<svg width="56" height="56" viewBox="0 0 56 56" fill="none" xmlns="http://www.w3.org/2000/svg">
<g clip-path="url(#clip0_6143_74301)">
<path d="M34 35L33.0151 35.1734C33.0788 35.535 33.3355 35.8326 33.6838 35.9487L34 35ZM22.0186 35L22.3325 35.9494C22.6833 35.8335 22.9415 35.5336 23.0041 35.1695L22.0186 35ZM41 17C41 16.4477 40.5523 16 40 16C39.4477 16 39 16.4477 39 17H41ZM33.2 30.4556L32.7993 29.5394L33.2 30.4556ZM51 55C51 55.5523 51.4477 56 52 56C52.5523 56 53 55.5523 53 55H51ZM22.8 30.4556L23.2007 29.5394L22.8 30.4556ZM40 37L40.3165 36.0514L40.3162 36.0513L40 37ZM15.9703 37L15.6563 36.0506L15.6538 36.0514L15.9703 37ZM3 55C3 55.5523 3.44772 56 4 56C4.55228 56 5 55.5523 5 55H3ZM47.3 39.8437L47.7719 38.9621L47.3 39.8437ZM8.7 39.8437L8.22807 38.9621L8.7 39.8437ZM22 55C22 55.5523 22.4477 56 23 56C23.5523 56 24 55.5523 24 55H22ZM42 55C42 55.5523 42.4477 56 43 56C43.5523 56 44 55.5523 44 55H42ZM34 55C34 55.5523 34.4477 56 35 56C35.5523 56 36 55.5523 36 55H34ZM42 18C42.5523 18 43 17.5523 43 17C43 16.4477 42.5523 16 42 16V18ZM20.9923 3.14206C21.0608 2.59405 20.6722 2.0942 20.1242 2.02561C19.5762 1.95703 19.0763 2.34567 19.0077 2.89368L20.9923 3.14206ZM22.6501 13.9094C23.0783 13.5606 23.1427 12.9308 22.7939 12.5025C22.4452 12.0743 21.8153 12.0099 21.387 12.3587L22.6501 13.9094ZM10.4185 21.2921C9.99027 21.6409 9.92586 22.2708 10.2746 22.699C10.6234 23.1272 11.2533 23.1916 11.6815 22.8429L10.4185 21.2921ZM16.9703 18.0601C16.9703 17.5078 16.5226 17.0601 15.9703 17.0601C15.418 17.0601 14.9703 17.5078 14.9703 18.0601H16.9703ZM24 19C24 18.4477 23.5523 18 23 18C22.4477 18 22 18.4477 22 19H24ZM22 20.3846C22 20.9369 22.4477 21.3846 23 21.3846C23.5523 21.3846 24 20.9369 24 20.3846H22ZM34 19C34 18.4477 33.5523 18 33 18C32.4477 18 32 18.4477 32 19H34ZM32 20.3846C32 20.9369 32.4477 21.3846 33 21.3846C33.5523 21.3846 34 20.9369 34 20.3846H32ZM23.6 24.2C23.1582 23.8686 22.5314 23.9582 22.2 24.4C21.8686 24.8418 21.9582 25.4686 22.4 25.8L23.6 24.2ZM33.6 25.8C34.0418 25.4686 34.1314 24.8418 33.8 24.4C33.4686 23.9582 32.8418 23.8686 32.4 24.2L33.6 25.8ZM36 34H34V36H36V34ZM22.0186 34H20V36H22.0186V34ZM43.95 24C43.95 26.4837 43.0474 29.019 41.5714 30.9202C40.095 32.822 38.1237 34 36 34V36C38.9065 36 41.4102 34.3893 43.1512 32.1467C44.8927 29.9035 45.95 26.9389 45.95 24H43.95ZM20 34C17.8763 34 15.905 32.822 14.4286 30.9202C12.9526 29.019 12.05 26.4837 12.05 24H10.05C10.05 26.9389 11.1073 29.9035 12.8488 32.1467C14.5898 34.3893 17.0935 36 20 36V34ZM12.05 17C12.05 8.02418 19.9726 2 28 2V0C19.1193 0 10.05 6.68405 10.05 17H12.05ZM28 32.5C29.8697 32.5 31.962 32.0885 33.6007 31.3718L32.7993 29.5394C31.4343 30.1363 29.6178 30.5 28 30.5V32.5ZM32.2151 30.6289L33.0151 35.1734L34.9849 34.8266L34.1849 30.2822L32.2151 30.6289ZM51 47.943V55H53V47.943H51ZM22.3993 31.3718C24.038 32.0885 26.1303 32.5 28 32.5V30.5C26.3822 30.5 24.5657 30.1363 23.2007 29.5394L22.3993 31.3718ZM21.8145 30.2861L21.033 34.8305L23.0041 35.1695L23.7855 30.625L21.8145 30.2861ZM33.6838 35.9487L39.6838 37.9487L40.3162 36.0513L34.3162 34.0513L33.6838 35.9487ZM39.4567 36.1604L22.4567 47.1604L23.5433 48.8396L40.5433 37.8396L39.4567 36.1604ZM21.7046 34.0506L15.6563 36.0506L16.2842 37.9494L22.3325 35.9494L21.7046 34.0506ZM23.8426 47.4615L16.8129 36.4615L15.1276 37.5385L22.1574 48.5385L23.8426 47.4615ZM3 47.943V55H5V47.943H3ZM45.95 24V17H43.95V24H45.95ZM12.05 24V17H10.05V24H12.05ZM39.6835 37.9486C43.1176 39.0944 44.3136 39.3794 46.8281 40.7253L47.7719 38.9621C45.0704 37.516 43.6744 37.1718 40.3165 36.0514L39.6835 37.9486ZM46.8281 40.7253C48.166 41.4415 49.175 42.1936 49.8677 43.2432C50.5552 44.285 51 45.7265 51 47.943H53C53 45.4549 52.4979 43.5978 51.5369 42.1416C50.5811 40.6932 49.2402 39.748 47.7719 38.9621L46.8281 40.7253ZM15.6538 36.0514C12.2912 37.1734 10.9286 37.5165 8.22807 38.9621L9.17193 40.7253C11.6874 39.3788 12.8574 39.0929 16.2868 37.9486L15.6538 36.0514ZM8.22807 38.9621C6.75985 39.748 5.41888 40.6932 4.46306 42.1416C3.50208 43.5978 3 45.4549 3 47.943H5C5 45.7265 5.44485 44.285 6.13234 43.2432C6.82498 42.1936 7.83401 41.4415 9.17193 40.7253L8.22807 38.9621ZM22 48V55H24V48H22ZM33.6007 31.3718C36.7702 29.9856 38.6592 27.9041 39.7256 25.3556C40.7711 22.8571 41 19.9697 41 17H39C39 19.9111 38.7664 22.4668 37.8806 24.5835C37.0158 26.6502 35.5048 28.3561 32.7993 29.5394L33.6007 31.3718ZM34 54V55H36V54H34ZM44 55V54H42V55H44ZM41 51H37V53H41V51ZM45.95 17C45.95 7.87297 38.0196 0 28 0V2C36.9893 2 43.95 9.05039 43.95 17H45.95ZM42 16H30V18H42V16ZM30 16C27.2768 16 25.4264 15.1967 24.1414 14.0649C22.8386 12.9173 22.0346 11.3588 21.5529 9.72597C21.0715 8.09421 20.9288 6.44382 20.91 5.18768C20.9007 4.56291 20.9222 4.0437 20.9456 3.68366C20.9574 3.50382 20.9695 3.36422 20.9785 3.27159C20.983 3.22529 20.9867 3.19078 20.9892 3.1689C20.9904 3.15796 20.9913 3.15018 20.9918 3.14567C20.9921 3.14342 20.9923 3.14198 20.9923 3.14138C20.9924 3.14107 20.9924 3.14098 20.9924 3.14109C20.9924 3.14115 20.9923 3.14139 20.9923 3.14142C20.9923 3.14172 20.9923 3.14206 20 3.01787C19.0077 2.89368 19.0077 2.89414 19.0076 2.89465C19.0076 2.89489 19.0075 2.89545 19.0075 2.89593C19.0073 2.89689 19.0072 2.89807 19.007 2.89946C19.0067 2.90224 19.0063 2.90587 19.0057 2.91034C19.0047 2.91927 19.0032 2.93155 19.0015 2.94707C18.998 2.9781 18.9934 3.0221 18.9879 3.07821C18.977 3.1904 18.9631 3.35119 18.9499 3.55367C18.9235 3.95828 18.9 4.53142 18.9103 5.21748C18.9306 6.58299 19.0848 8.42813 19.6346 10.2919C20.1842 12.1546 21.1458 14.0916 22.8195 15.5657C24.5111 17.0556 26.8482 18 30 18V16ZM21.387 12.3587L10.4185 21.2921L11.6815 22.8429L22.6501 13.9094L21.387 12.3587ZM14.9703 18.0601C14.9703 21.4109 15.4563 24.1594 16.6594 26.3773C17.877 28.622 19.7743 30.2237 22.3993 31.3718L23.2007 29.5394C20.9011 28.5336 19.3836 27.2048 18.4174 25.4237C17.4368 23.6159 16.9703 21.2436 16.9703 18.0601H14.9703ZM22 19V20.3846H24V19H22ZM32 19V20.3846H34V19H32ZM23 25C22.4 25.8 22.4003 25.8002 22.4006 25.8004C22.4007 25.8005 22.401 25.8007 22.4012 25.8009C22.4017 25.8012 22.4021 25.8016 22.4026 25.802C22.4036 25.8027 22.4048 25.8035 22.406 25.8045C22.4085 25.8063 22.4115 25.8085 22.415 25.8111C22.422 25.8162 22.431 25.8228 22.442 25.8306C22.4638 25.8462 22.4936 25.8671 22.5309 25.8924C22.6056 25.943 22.7109 26.0115 22.8449 26.0919C23.1124 26.2524 23.4965 26.4615 23.9811 26.6691C24.9483 27.0837 26.3334 27.5 28 27.5V25.5C26.6666 25.5 25.5517 25.1663 24.7689 24.8309C24.3785 24.6635 24.0751 24.4976 23.8739 24.3769C23.7735 24.3166 23.6991 24.268 23.6526 24.2365C23.6295 24.2208 23.6133 24.2094 23.6044 24.2031C23.6 24.1999 23.5974 24.198 23.5966 24.1975C23.5963 24.1972 23.5964 24.1973 23.5969 24.1977C23.5972 24.1979 23.5976 24.1982 23.5981 24.1986C23.5984 24.1988 23.5986 24.199 23.599 24.1992C23.5991 24.1993 23.5994 24.1995 23.5995 24.1996C23.5997 24.1998 23.6 24.2 23 25ZM28 27.5C29.6666 27.5 31.0517 27.0837 32.0189 26.6691C32.5035 26.4615 32.8876 26.2524 33.1551 26.0919C33.2891 26.0115 33.3944 25.943 33.4691 25.8924C33.5064 25.8671 33.5362 25.8462 33.558 25.8306C33.569 25.8228 33.578 25.8162 33.585 25.8111C33.5885 25.8085 33.5915 25.8063 33.594 25.8045C33.5952 25.8035 33.5964 25.8027 33.5974 25.802C33.5979 25.8016 33.5983 25.8012 33.5988 25.8009C33.599 25.8007 33.5993 25.8005 33.5994 25.8004C33.5997 25.8002 33.6 25.8 33 25C32.4 24.2 32.4003 24.1998 32.4005 24.1996C32.4006 24.1995 32.4009 24.1993 32.401 24.1992C32.4014 24.199 32.4016 24.1988 32.4019 24.1986C32.4024 24.1982 32.4028 24.1979 32.4031 24.1977C32.4036 24.1973 32.4037 24.1972 32.4034 24.1975C32.4026 24.198 32.4 24.1999 32.3956 24.2031C32.3867 24.2094 32.3705 24.2208 32.3474 24.2365C32.3009 24.268 32.2265 24.3166 32.1261 24.3769C31.9249 24.4976 31.6215 24.6635 31.2311 24.8309C30.4483 25.1663 29.3334 25.5 28 25.5V27.5ZM44 54C44 52.3431 42.6569 51 41 51V53C41.5523 53 42 53.4477 42 54H44ZM36 54C36 53.4477 36.4477 53 37 53V51C35.3431 51 34 52.3431 34 54H36Z" fill="url(#paint0_linear_6143_74301)"/>
</g>
<defs>
<linearGradient id="paint0_linear_6143_74301" x1="28" y1="0.999341" x2="28" y2="55" gradientUnits="userSpaceOnUse">
<stop stop-color="#00BDD6"/>
<stop offset="1" stop-color="#06A8BD"/>
</linearGradient>
<clipPath id="clip0_6143_74301">
<rect width="56" height="56" fill="white" transform="translate(0 0.000976562)"/>
</clipPath>
</defs>
</svg>
