<svg width="56" height="56" viewBox="0 0 56 56" fill="none" xmlns="http://www.w3.org/2000/svg">
<g clip-path="url(#clip0_6143_74299)">
<path fill-rule="evenodd" clip-rule="evenodd" d="M11 4.00006H17C17 7.31377 19.6863 10.0001 23 10.0001H33C36.3137 10.0001 39 7.31377 39 4.00006H45C47.2091 4.00006 49 5.79092 49 8.00006V52.0001C49 54.2092 47.2091 56.0001 45 56.0001H11C8.79086 56.0001 7 54.2092 7 52.0001V8.00006C7 5.79092 8.79086 4.00006 11 4.00006ZM45 7C45.5523 7 46 7.44772 46 8V45C46 45.2652 45.8946 45.5196 45.7071 45.7071L38.7071 52.7071C38.5196 52.8946 38.2652 53 38 53H11C10.4477 53 10 52.5523 10 52V8C10 7.44772 10.4477 7 11 7H14C14.5523 7 15 7.44772 15 8C15 8.55228 14.5523 9 14 9H12V51H37V45C37 44.4477 37.4477 44 38 44H44V9H42C41.4477 9 41 8.55228 41 8C41 7.44772 41.4477 7 42 7H45ZM42.5858 46L39 49.5858V46H42.5858ZM23.2318 18.3598C23.5853 17.9355 24.2159 17.8782 24.6402 18.2318C25.0645 18.5853 25.1218 19.2159 24.7682 19.6402L19.7682 25.6402C19.5884 25.856 19.326 25.9862 19.0453 25.999C18.7646 26.0117 18.4916 25.9058 18.2929 25.7071L14.2929 21.7071C13.9024 21.3166 13.9024 20.6834 14.2929 20.2929C14.6834 19.9024 15.3166 19.9024 15.7071 20.2929L18.9328 23.5186L23.2318 18.3598ZM41 19C41.5523 19 42 19.4477 42 20C42 20.5523 41.5523 21 41 21H29C28.4477 21 28 20.5523 28 20C28 19.4477 28.4477 19 29 19H41ZM37 23C37.5523 23 38 23.4477 38 24C38 24.5523 37.5523 25 37 25H29C28.4477 25 28 24.5523 28 24C28 23.4477 28.4477 23 29 23H37ZM23.2318 33.3598C23.5853 32.9355 24.2159 32.8782 24.6402 33.2318C25.0645 33.5853 25.1218 34.2159 24.7682 34.6402L19.7682 40.6402C19.5884 40.856 19.326 40.9862 19.0453 40.999C18.7646 41.0117 18.4916 40.9058 18.2929 40.7071L14.2929 36.7071C13.9024 36.3166 13.9024 35.6834 14.2929 35.2929C14.6834 34.9024 15.3166 34.9024 15.7071 35.2929L18.9328 38.5186L23.2318 33.3598ZM41 34C41.5523 34 42 34.4477 42 35C42 35.5523 41.5523 36 41 36H29C28.4477 36 28 35.5523 28 35C28 34.4477 28.4477 34 29 34H41ZM37 38C37.5523 38 38 38.4477 38 39C38 39.5523 37.5523 40 37 40H29C28.4477 40 28 39.5523 28 39C28 38.4477 28.4477 38 29 38H37Z" fill="#1A2C36"/>
<rect x="19" width="18" height="8" rx="4" fill="#1A2C36"/>
</g>
<defs>
<clipPath id="clip0_6143_74299">
<rect width="56" height="56" fill="white" transform="translate(0 0.000976562)"/>
</clipPath>
</defs>
</svg>
