<svg width="56" height="56" viewBox="0 0 56 56" fill="none" xmlns="http://www.w3.org/2000/svg">
<g clip-path="url(#clip0_6147_74490)">
<path d="M46 8L53.8009 6.69985C54.4929 6.58452 55 5.98586 55 5.28438V5.28438C55 4.55318 54.4502 3.93891 53.7235 3.85816L46 3M46 8V3M46 8V8C46 9.10457 45.1046 10 44 10H42M46 3V3C46 1.89543 45.1046 1 44 1H42M42 1H32.5C30.0147 1 28 3.01472 28 5.5V5.5C28 7.98528 30.0147 10 32.5 10H33M42 1V4M42 10V4M42 10H39M42 4H37M34 4H33M39 10V20L37 23M39 10H33M37 23L32.5 18.5M37 23L39 25L35.9444 28.5M33 10V17.5L32.5 18.5M32.5 18.5L31 17L27.5714 20M3 41.5L2.35504 42.0643C0.563811 43.6317 0.529222 46.4069 2.28084 48.0184L8.47857 53.7203C10.1344 55.2436 12.7204 55.1021 14.2001 53.4072L14.5556 53M3 41.5L14.5556 53M3 41.5L7 38M14.5556 53L35.9444 28.5M7 38L8.75038 39.1669C11.1998 40.7999 14.4722 40.4146 16.4753 38.2573L22.6017 31.6597C24.5032 29.6119 24.4584 26.4309 22.5 24.4375V24.4375M7 38L22.5 24.4375M22.5 24.4375L27.5714 20M35.9444 28.5L27.5714 20M15 46L17 43.8333M21 39.5L19 41.6667" stroke="url(#paint0_linear_6147_74490)" stroke-width="2" stroke-linecap="round" stroke-linejoin="round"/>
</g>
<defs>
<linearGradient id="paint0_linear_6147_74490" x1="27" y1="0.999323" x2="27" y2="56.5" gradientUnits="userSpaceOnUse">
<stop stop-color="#00BDD6"/>
<stop offset="1" stop-color="#06A8BD"/>
</linearGradient>
<clipPath id="clip0_6147_74490">
<rect width="56" height="56" fill="white" transform="translate(0 0.000976562)"/>
</clipPath>
</defs>
</svg>
