<svg width="56" height="56" viewBox="0 0 56 56" fill="none" xmlns="http://www.w3.org/2000/svg">
<g clip-path="url(#clip0_6147_74500)">
<path d="M53 14V4C53 1.50995 51.49 0 49 0H20C18.5062 0 17 0.5 17 2.5C17 4.5 18.5062 5 20 5H21V7C21 8.5 21.5 9 23 9H31C32.5 9 33 8.5 33 7V5H47C47.5 5 48 5.5 48 6V15C47.6304 15.4009 47.19 15.9264 46.973 16.4521L42.5826 27.1184C42.1345 28.2024 41.1736 29 40 29H18.0645V25H24.5C26.99 25 29.0161 23.2642 29.0161 20.7742V20H19C20.174 18.852 21 17.4782 21 15.7097V13H7V15.7097C7 17.4782 7.82598 18.8833 9 20.0312L5 20V9.03226C5 8.03686 5.50372 7 6.5 7C7.4954 7 8 8.03686 8 9.03226V11H9.80645V9.03226C9.80645 7.03969 9 5 6.5 5C4 5 3 7.03969 3 9.03226V20.0312H0V20.7742C0 23.2642 2.02608 25 4.51613 25H11V32.3402L1.26443 42.5517C0.402924 43.4719 0 44.6564 0 45.9035C0 48.4836 2.09709 50.5806 4.6771 50.5806C5.97373 50.5806 7.22316 50.0351 8.10389 49.0869L16.0781 40.4996C16.8045 41.1029 17.7113 41.4646 18.6625 41.5303L16 49H13.0592C10.5692 49 9 50.51 9 53L9.03226 56H46.9677L47 53C47 50.51 45.4308 49 42.9408 49H40L37.3339 41.5175C39.3772 41.3804 41.0571 39.8963 41.4562 37.9355H45.3068C47.2368 37.9355 48.9458 36.7787 49.6611 34.9863L55.6639 19.9803C56.6223 17.5902 55.2713 15.0657 53 14ZM31 6C31 6.49836 30.4984 7 30 7H24C23.4839 7 23 6.5 23 6V5H31V6ZM25 39C25 37.3431 26.3431 36 28 36C29.6569 36 31 37.3431 31 39C31 40.6569 29.6569 42 28 42C26.3431 42 25 40.6569 25 39Z" fill="#1A2C36"/>
</g>
<defs>
<clipPath id="clip0_6147_74500">
<rect width="56" height="56" fill="white" transform="translate(0 0.000976562)"/>
</clipPath>
</defs>
</svg>
