<svg width="56" height="56" viewBox="0 0 56 56" fill="none" xmlns="http://www.w3.org/2000/svg">
<g clip-path="url(#clip0_6147_74590)">
<path fill-rule="evenodd" clip-rule="evenodd" d="M6 11C2.68629 11 0 13.6863 0 17V50C0 53.3137 2.68629 56 6 56H13V40C13 36.134 16.134 33 20 33H36C39.866 33 43 36.134 43 40V56H50C53.3137 56 56 53.3137 56 50V22C56 18.6863 53.3137 16 50 16H25.4853C23.894 16 22.3679 15.3679 21.2426 14.2426L19.7574 12.7574C18.6321 11.6321 17.106 11 15.5147 11H6ZM41 56V40C41 37.2386 38.7614 35 36 35H20C17.2386 35 15 37.2386 15 40V56H27V43.5C27 42.9477 27.4477 42.5 28 42.5C28.5523 42.5 29 42.9477 29 43.5V56H41Z" fill="#1A2C36"/>
</g>
<defs>
<clipPath id="clip0_6147_74590">
<rect width="56" height="56" fill="white" transform="translate(0 0.000976562)"/>
</clipPath>
</defs>
</svg>
