<svg width="56" height="56" viewBox="0 0 56 56" fill="none" xmlns="http://www.w3.org/2000/svg">
<g clip-path="url(#clip0_6147_74716)">
<path fill-rule="evenodd" clip-rule="evenodd" d="M11 15C11 12.7909 12.7909 11 15 11H42C44.2091 11 46 12.7909 46 15V25.6459C46 26.4637 45.5021 27.1992 44.7428 27.5029L42.2572 28.4971C41.4979 28.8008 41 29.5363 41 30.3541V33.6459C41 34.4637 41.4979 35.1992 42.2572 35.5029L44.7428 36.4971C45.5021 36.8008 46 37.5363 46 38.3541V52C46 54.2091 44.2091 56 42 56H15C12.7909 56 11 54.2091 11 52V38.3541C11 37.5363 11.4979 36.8008 12.2572 36.4971L14.7428 35.5029C15.5021 35.1992 16 34.4637 16 33.6459V30.3541C16 29.5363 15.5021 28.8008 14.7428 28.4971L12.2572 27.5029C11.4979 27.1992 11 26.4637 11 25.6459V15ZM13 15C13 13.8954 13.8954 13 15 13H42C43.1046 13 44 13.8954 44 15V21C44 21 34.6064 20.8688 29 19C23 17 13 17 13 17V15ZM44 52H13C13 53.1046 13.8954 54 15 54H42C43.1046 54 44 53.1046 44 52Z" fill="#E0EEF8"/>
<path fill-rule="evenodd" clip-rule="evenodd" d="M19 2C19 0.89543 19.8954 0 21 0H35C36.1046 0 37 0.895431 37 2V7C37 8.10457 36.1046 9 35 9H21C19.8954 9 19 8.10457 19 7V2ZM21 3C21 2.44772 21.4477 2 22 2C22.5523 2 23 2.44772 23 3V6C23 6.55228 22.5523 7 22 7C21.4477 7 21 6.55228 21 6V3ZM26 2C25.4477 2 25 2.44772 25 3V6C25 6.55228 25.4477 7 26 7C26.5523 7 27 6.55228 27 6V3C27 2.44772 26.5523 2 26 2ZM29 3C29 2.44772 29.4477 2 30 2C30.5523 2 31 2.44772 31 3V6C31 6.55228 30.5523 7 30 7C29.4477 7 29 6.55228 29 6V3ZM34 2C33.4477 2 33 2.44772 33 3V6C33 6.55228 33.4477 7 34 7C34.5523 7 35 6.55228 35 6V3C35 2.44772 34.5523 2 34 2Z" fill="#E0EEF8"/>
</g>
<defs>
<clipPath id="clip0_6147_74716">
<rect width="56" height="56" fill="white" transform="translate(0 0.000976562)"/>
</clipPath>
</defs>
</svg>
