<svg width="56" height="56" viewBox="0 0 56 56" fill="none" xmlns="http://www.w3.org/2000/svg">
<path d="M17.7236 21.3846L23.4 17.08C25.1804 15.7299 27.3459 15 29.5714 15H37.1292C38.4279 15 39.6976 15.2838 40.8573 15.8174C42.936 16.774 44.4218 18.6043 46 20.2M17.7236 21.3846C16.4949 22.3164 13.0754 22.9581 11.5694 23.2626L6.04299 24.3802C3.11071 24.9732 1 27 1 31M17.7236 21.3846V21.3846C18.5027 23.042 20.1691 24.1 22.0004 24.1H34M8 37H4C2.57984 37 1 35.9359 1 34.5V31M8 37C8 39.2091 9.79086 41 12 41C14.2091 41 16 39.2091 16 37C16 34.7909 14.2091 33 12 33C9.79086 33 8 34.7909 8 37ZM48.8573 37H51.5C52.775 37 54.0745 36.3717 54.6446 35.2186C54.8783 34.746 55 34.2249 55 33.6966V28M48.8573 37C48.8573 39.2091 47.0664 41 44.8573 41C42.6482 41 40.8573 39.2091 40.8573 37C40.8573 34.7909 42.6482 33 44.8573 33C47.0664 33 48.8573 34.7909 48.8573 37ZM1 31H3C4.13241 31 6 30.5 7 29M55 28H52M55 28C55 26.4297 54.0545 25.0176 52.6125 24.4344L50.5317 23.5928C49.2383 23.0697 48.0635 22.2865 47.0786 21.2906L46 20.2M34 24.1H40.9738C43.3431 24.1 45.4115 22.4951 46 20.2V20.2M34 24.1V15M32 29H29M12.5 37H11.5M45.5 37H44.5M45 30C41.3805 30 38.5798 32.8658 38.0797 36.0041C37.9928 36.5495 37.5523 37 37 37H20C19.4477 37 19.0072 36.5496 18.9203 36.0042C18.6832 34.516 17.9287 33.0891 16.815 32M1 42H55" stroke="url(#paint0_linear_6150_75022)" stroke-width="2" stroke-linecap="round" stroke-linejoin="round"/>
<defs>
<linearGradient id="paint0_linear_6150_75022" x1="28" y1="14.9997" x2="28" y2="42" gradientUnits="userSpaceOnUse">
<stop stop-color="#00BDD6"/>
<stop offset="1" stop-color="#06A8BD"/>
</linearGradient>
</defs>
</svg>
