<svg width="56" height="56" viewBox="0 0 56 56" fill="none" xmlns="http://www.w3.org/2000/svg">
<path fill-rule="evenodd" clip-rule="evenodd" d="M12 8C7.58172 8 4 11.5817 4 16V48C4 52.4183 7.58172 56 12 56H44C48.4183 56 52 52.4183 52 48V16C52 11.5817 48.4183 8 44 8H12ZM18 15H28.4706C34.9647 15 40.0875 20.2548 40 26.6571C39.9137 32.9728 34.9647 38 28.4706 38H24C23.4477 38 23 38.4477 23 39V47C23 48.1046 22.1046 49 21 49H18C16.8954 49 16 48.1046 16 47V17C16 15.8954 16.8954 15 18 15ZM24 31.0286H28.4706C30.7765 31.0286 32.5 28.9771 32.5 26.5C32.5 24.0228 30.7765 22 28.4706 22H24C23.4477 22 23 22.4477 23 23V30.0286C23 30.5808 23.4477 31.0286 24 31.0286Z" fill="#E0EEF8"/>
</svg>
