<svg width="56" height="56" viewBox="0 0 56 56" fill="none" xmlns="http://www.w3.org/2000/svg">
<g clip-path="url(#clip0_6152_73734)">
<path fill-rule="evenodd" clip-rule="evenodd" d="M28 0C12.536 0 0 12.536 0 28C0 43.464 12.536 56 28 56C43.464 56 56 43.464 56 28C56 12.536 43.464 0 28 0ZM12.0001 28C10.8273 28 9.92513 28.2944 9.30284 28.6056C8.99333 28.7603 8.75502 28.9182 8.58756 29.0438C8.05698 29.4417 7.73881 30.153 8.29295 30.7071C8.69551 31.1097 9.2963 31.0676 9.70543 30.7096C9.77672 30.6472 10.2224 30.2758 11.0611 30.096C11.0995 30.521 11.1619 31.0538 11.2637 31.6644C11.5246 33.2299 12.0483 35.3325 13.1056 37.4472C14.1649 39.5658 15.7696 41.7149 18.1954 43.3321C20.6273 44.9534 23.8251 46 28.0001 46C32.175 46 35.3728 44.9534 37.8048 43.3321C40.2305 41.7149 41.8352 39.5658 42.8945 37.4472C43.9518 35.3325 44.4755 33.2299 44.7365 31.6644C44.8382 31.0538 44.9006 30.521 44.939 30.096C45.8253 30.286 46.2746 30.6911 46.303 30.717C46.6943 31.0976 47.32 31.0943 47.7072 30.7071C48.0977 30.3166 48.097 29.6827 47.7065 29.2922C47.4147 29.0088 47.0593 28.7866 46.6973 28.6056C46.075 28.2944 45.1728 28 44.0001 28C42.8273 28 41.9251 28.2944 41.3028 28.6056C40.9302 28.7919 40.5918 28.9941 40.2929 29.2929C39.9024 29.6834 39.9024 30.3166 40.2929 30.7071C40.6801 31.0943 41.3058 31.0976 41.6971 30.717C41.7241 30.6924 42.13 30.3271 42.9267 30.1272C42.8917 30.4695 42.84 30.8776 42.7637 31.3356C42.5246 32.7701 42.0483 34.6675 41.1056 36.5528C40.1649 38.4342 38.7696 40.2851 36.6954 41.6679C34.6273 43.0466 31.8251 44 28.0001 44C24.175 44 21.3728 43.0466 19.3048 41.6679C17.2305 40.2851 15.8352 38.4342 14.8945 36.5528C13.9518 34.6675 13.4755 32.7701 13.2364 31.3356C13.1601 30.8776 13.1084 30.4695 13.0734 30.1272C13.825 30.3158 14.2273 30.6507 14.2947 30.7096C14.7038 31.0676 15.3046 31.1097 15.7072 30.7071C16.2484 30.1659 15.9381 29.4379 15.4126 29.0438C15.2451 28.9182 15.0068 28.7603 14.6973 28.6056C14.075 28.2944 13.1728 28 12.0001 28Z" fill="#1A2C36"/>
</g>
<defs>
<clipPath id="clip0_6152_73734">
<rect width="56" height="56" fill="white" transform="translate(0 0.000976562)"/>
</clipPath>
</defs>
</svg>
