<svg width="56" height="56" viewBox="0 0 56 56" fill="none" xmlns="http://www.w3.org/2000/svg">
<path d="M54 22.1286C45 19.1479 34.9999 11.1993 28 17.1608C19.9999 11.1993 10 19.1479 2 22.1286M54 22.1286C45.9999 27.0965 38.9999 23.1222 33.9999 23.1222C29.9999 23.1222 28 25.1093 28 25.1093C28 25.1093 25.9999 23.1222 20.9999 23.1222C15.9999 23.1222 9.99988 27.0965 2 22.1286M54 22.1286C54 22.1286 49.78 34.108 38.9999 39.4644M2 22.1286C2 22.1286 9.00012 42 28 42C30.5446 42 32.8739 41.6436 35 41.0262M7.99988 27.0965C10.3263 29.6681 14.0015 31.5085 18 32.6475M47.9999 27.0965C43.7501 31.7942 35.0001 34.0514 28 34.0514C24.832 34.0514 21.3055 33.5891 18 32.6475M16.4999 24.6125L16.8713 26.4578C16.9495 26.846 17.2493 27.1515 17.636 27.2369L20.429 27.8536C21.0038 27.9805 21.5633 27.586 21.6368 27.0019L21.9999 24.1158V27.6731C21.9999 28.1905 22.3946 28.6225 22.9099 28.669L26.5551 28.9983C27.0848 29.0461 27.5592 28.6711 27.6349 28.1447L28 25.6061L28.3649 28.1446C28.4406 28.671 28.915 29.0461 29.4447 28.9983L33.0898 28.669C33.6052 28.6225 33.9999 28.1905 33.9999 27.6731V24.1158L34.363 27.0019C34.4365 27.586 34.996 27.9805 35.5708 27.8536L38.3637 27.2369C38.7504 27.1515 39.0503 26.846 39.1284 26.4578L39.4999 24.6125M18 32.6475C17.5 34 17.5 36 17.5 36M35 41.0262C35 41.0262 35.5 39.5 35 36M35 41.0262C36.4231 40.613 37.7552 40.0828 38.9999 39.4644M38.9999 39.4644C38.9999 39.4644 39.3235 39.3006 38.9999 36.5" stroke="url(#paint0_linear_6152_73873)" stroke-width="2" stroke-linecap="round" stroke-linejoin="round"/>
<defs>
<linearGradient id="paint0_linear_6152_73873" x1="28" y1="14.9997" x2="28" y2="42" gradientUnits="userSpaceOnUse">
<stop stop-color="#00BDD6"/>
<stop offset="1" stop-color="#06A8BD"/>
</linearGradient>
</defs>
</svg>
