<svg width="56" height="56" viewBox="0 0 56 56" fill="none" xmlns="http://www.w3.org/2000/svg">
<path d="M20.0259 20.0002C20.5404 19.9935 20.9926 20.224 21.3962 20.8068C21.8279 21.4302 22.1091 22.3591 22.1091 23.3336C22.1091 24.3081 21.8279 25.2369 21.3962 25.8604C20.9926 26.4432 20.5404 26.6737 20.0259 26.667C19.509 26.6603 19.0695 26.4222 18.6837 25.8482C18.2689 25.2311 18 24.3122 18 23.3336C18 22.3549 18.2689 21.4361 18.6837 20.819C19.0695 20.2449 19.509 20.0069 20.0259 20.0002Z" fill="#1A2C36"/>
<path d="M34 36.6667C34 35.6864 34.2697 34.7579 34.6858 34.1362C35.0725 33.5584 35.5029 33.3335 36 33.3335C36.4971 33.3335 36.9275 33.5584 37.3142 34.1362C37.7303 34.7579 38 35.6864 38 36.6667C38 37.6471 37.7303 38.5756 37.3142 39.1973C36.9275 39.7751 36.4971 40 36 40C35.5029 40 35.0725 39.7751 34.6858 39.1973C34.2697 38.5756 34 37.6471 34 36.6667Z" fill="#1A2C36"/>
<path fill-rule="evenodd" clip-rule="evenodd" d="M16 4C12.6863 4 10 6.68629 10 10V50C10 53.3137 12.6863 56 16 56H40C43.3137 56 46 53.3137 46 50V10C46 6.68629 43.3137 4 40 4H16ZM15 6C13.8954 6 13 6.89543 13 8H43C43 6.89543 42.1046 6 41 6H15ZM13 52H43C43 53.1046 42.1046 54 41 54H15C13.8954 54 13 53.1046 13 52ZM26.1091 23.3336C26.1091 21.6788 25.6503 19.924 24.6847 18.5296C23.691 17.0945 22.0886 15.9731 19.9741 16.0005C17.8877 16.0275 16.3272 17.1544 15.3639 18.5876C14.4295 19.9779 14 21.7088 14 23.3336C14 24.9584 14.4295 26.6893 15.3639 28.0795C16.3272 29.5128 17.8877 30.6396 19.9741 30.6667C22.0886 30.6941 23.691 29.5726 24.6847 28.1376C25.6503 26.7432 26.1091 24.9884 26.1091 23.3336ZM35.0698 21.6592C35.6178 20.7002 35.2847 19.4785 34.3256 18.9305C33.3666 18.3825 32.1449 18.7156 31.5969 19.6747L20.9302 38.3411C20.3822 39.3001 20.7153 40.5218 21.6744 41.0699C22.6334 41.6179 23.8551 41.2847 24.4031 40.3257L35.0698 21.6592ZM36 29.3335C33.8936 29.3335 32.324 30.4735 31.3616 31.9114C30.4285 33.3055 30 35.0437 30 36.6667C30 38.2898 30.4285 40.028 31.3616 41.4221C32.324 42.86 33.8936 44 36 44C38.1064 44 39.676 42.86 40.6384 41.4221C41.5715 40.028 42 38.2898 42 36.6667C42 35.0437 41.5715 33.3055 40.6384 31.9114C39.676 30.4735 38.1064 29.3335 36 29.3335Z" fill="#1A2C36"/>
</svg>
