<svg width="56" height="57" viewBox="0 0 56 57" fill="none" xmlns="http://www.w3.org/2000/svg">
<path fill-rule="evenodd" clip-rule="evenodd" d="M6.99991 3.328C7.5522 3.328 7.99991 3.77572 7.99991 4.328V15.328H15.9999C16.2651 15.328 16.5195 15.4334 16.707 15.6209L19.9999 18.9138L21.8786 17.0351C23.0502 15.8636 24.9497 15.8636 26.1212 17.0351L27.9999 18.9138L29.8786 17.0351C31.0502 15.8635 32.9497 15.8635 34.1213 17.0351L36 18.9138L39.6334 15.2803C39.2622 14.7922 38.9595 14.2678 38.726 13.7204C38.5093 13.2125 38.7454 12.625 39.2533 12.4082C39.7613 12.1915 40.3488 12.4276 40.5656 12.9356C40.8263 13.5466 41.2061 14.12 41.7071 14.6209C43.8018 16.7157 47.1981 16.7157 49.2929 14.6209C51.3876 12.5261 51.3876 9.12988 49.2929 7.03512C47.6988 5.4411 45.3493 5.05864 43.3924 5.89362C42.8844 6.11036 42.2969 5.87427 42.0801 5.36629C41.8634 4.85831 42.0995 4.27081 42.6075 4.05407C45.2898 2.90959 48.5161 3.4299 50.7071 5.6209C53.5829 8.49671 53.5829 13.1593 50.7071 16.0351C48.0711 18.6711 43.9339 18.8909 41.0476 16.6946L37.4142 20.328L39.2929 22.2067C40.4644 23.3783 40.4644 25.2778 39.2929 26.4493L37.4141 28.328L49.707 40.6209L52.707 43.6209C54.7544 45.6683 54.7544 48.9877 52.707 51.0351L50.707 53.0351C48.6596 55.0825 45.3402 55.0825 43.2928 53.0351L40.2928 50.0351L27.9999 37.7423L15.7071 50.0351L12.7071 53.0351C10.6597 55.0825 7.34024 55.0825 5.29287 53.0351L3.29285 51.0351C1.24548 48.9877 1.24548 45.6683 3.29286 43.6209L6.29286 40.6209L15.2928 31.6209C15.6833 31.2304 16.3165 31.2304 16.707 31.6209C17.0975 32.0114 17.0975 32.6446 16.707 33.0351L8.41418 41.328L15 47.9138L26.5857 36.328L16.707 26.4494C15.5354 25.2778 15.5354 23.3783 16.707 22.2067L18.5857 20.328L15.5857 17.328H6.99991C6.44763 17.328 5.99991 16.8803 5.99991 16.328V4.328C5.99991 3.77572 6.44763 3.328 6.99991 3.328ZM24.707 18.4494L27.2929 21.0351L35.2929 29.0351L47.5857 41.328L44.2928 44.6209L43.9999 44.9138L41.707 42.6209C41.3165 42.2304 40.6833 42.2304 40.2928 42.6209C39.9023 43.0114 39.9023 43.6446 40.2928 44.0351L42.5857 46.328L40.9999 47.9138L28.7147 35.6286L28.7071 35.6209L28.6993 35.6132L18.1212 25.0351C17.7307 24.6446 17.7307 24.0115 18.1212 23.6209L20.707 21.0351L23.2928 18.4494C23.6833 18.0588 24.3165 18.0588 24.707 18.4494ZM29.4141 20.328L35.9999 26.9138L37.8786 25.0351C38.2692 24.6446 38.2692 24.0114 37.8786 23.6209L35.2929 21.0351L32.7071 18.4493C32.3165 18.0588 31.6834 18.0588 31.2929 18.4493L29.4141 20.328ZM48.9999 42.7422L45.707 46.0351L44.707 47.0351L42.4141 49.328L44.707 51.6209C45.9734 52.8872 48.0265 52.8872 49.2928 51.6209L51.2928 49.6209C52.5591 48.3546 52.5591 46.3014 51.2928 45.0351L48.9999 42.7422ZM32.2928 34.6209C32.6833 34.2304 33.3165 34.2304 33.707 34.6209L38.707 39.6209C39.0975 40.0114 39.0975 40.6446 38.707 41.0351C38.3165 41.4256 37.6833 41.4256 37.2928 41.0351L32.2928 36.0351C31.9023 35.6446 31.9023 35.0114 32.2928 34.6209ZM6.99996 42.7422L13.5857 49.328L11.2929 51.6209C10.0265 52.8872 7.97341 52.8872 6.70708 51.6209L4.70706 49.6209C3.44074 48.3545 3.44074 46.3014 4.70707 45.0351L6.99996 42.7422ZM37.8944 3.88079C37.725 3.542 37.3787 3.328 37 3.328C36.6212 3.328 36.2749 3.54201 36.1055 3.8808C35.575 4.94195 35.401 5.26277 35.1679 5.49592C34.9347 5.72907 34.6139 5.90303 33.5528 6.4336C33.214 6.60299 33 6.94925 33 7.32803C33 7.7068 33.214 8.05306 33.5528 8.22245C34.6139 8.75303 34.9347 8.92699 35.1679 9.16013C35.401 9.39328 35.575 9.71409 36.1055 10.7752C36.2749 11.114 36.6212 11.328 37 11.328C37.3787 11.328 37.725 11.114 37.8944 10.7752C38.425 9.71409 38.5989 9.39328 38.8321 9.16013C39.0652 8.92699 39.386 8.75303 40.4472 8.22245C40.786 8.05306 41 7.7068 41 7.32803C41 6.94925 40.786 6.60299 40.4472 6.4336C39.386 5.90303 39.0652 5.72907 38.8321 5.49592C38.5989 5.26277 38.425 4.94195 37.8944 3.88079ZM36.5821 6.91013C36.7352 6.75697 36.8716 6.58956 37 6.40537C37.1283 6.58957 37.2647 6.75697 37.4179 6.91013C37.571 7.06328 37.7384 7.19968 37.9226 7.32802C37.7384 7.45637 37.571 7.59276 37.4179 7.74592C37.2647 7.89907 37.1283 8.06648 37 8.25067C36.8716 8.06648 36.7352 7.89907 36.5821 7.74592C36.4289 7.59276 36.2615 7.45637 36.0773 7.32802C36.2615 7.19968 36.4289 7.06328 36.5821 6.91013Z" fill="white"/>
</svg>
