<svg width="56" height="57" viewBox="0 0 56 57" fill="none" xmlns="http://www.w3.org/2000/svg">
<path fill-rule="evenodd" clip-rule="evenodd" d="M27.9386 5.28028C26.3466 5.28028 24.83 5.023 23.3347 4.68691C22.7653 4.55893 22.1741 4.4128 21.5798 4.26591C20.6755 4.04237 19.7641 3.8171 18.9118 3.65141C15.9462 3.07486 12.9409 3.04266 9.90906 5.5039C8.64094 6.53335 7.53115 7.72659 6.59074 9.54461C5.66177 11.3405 4.91926 13.7049 4.31355 17.051C3.83318 19.7046 3.88428 24.9339 4.61094 30.5336C5.30898 35.9128 6.37857 41.8151 8.46477 46.2379C9.51084 48.4557 10.8465 50.3767 12.5892 51.6617C14.3605 52.9677 16.4964 53.5737 19.0156 53.2346C20.7945 52.9952 21.8746 51.973 22.5681 50.7126C23.1422 49.6694 23.486 48.3931 23.7932 47.2523L23.7933 47.2522C23.8348 47.0978 23.8757 46.946 23.9165 46.7975C24.2808 45.469 24.6381 44.3664 25.2362 43.5827C25.7738 42.8784 26.543 42.3848 27.9386 42.3848C29.3341 42.3848 30.1034 42.8784 30.6409 43.5827C31.239 44.3664 31.5964 45.469 31.9607 46.7975C32.0014 46.946 32.0423 47.0978 32.0839 47.2522L32.0839 47.2522L32.0839 47.2523L32.0839 47.2523C32.3912 48.3931 32.735 49.6694 33.309 50.7126C34.0026 51.973 35.0826 52.9952 36.8616 53.2346C39.6597 53.6113 42.0228 52.828 43.9562 51.2501C45.8588 49.6973 47.3105 47.407 48.4204 44.7961C48.6742 44.1989 48.446 43.6708 48.1978 43.3545C47.9768 43.073 47.6713 42.8555 47.4242 42.6964C47.1705 42.5331 46.8764 42.369 46.6013 42.2155L46.5723 42.1994C46.2774 42.0348 45.9913 41.8746 45.7201 41.7039C45.1465 41.343 44.802 41.0312 44.6603 40.7593C44.6021 40.6476 44.5834 40.5521 44.5927 40.449C44.5993 40.3764 44.6225 40.2726 44.6878 40.1341C44.7294 40.1406 44.7764 40.149 44.8293 40.1597C45.0332 40.2011 45.2685 40.2645 45.5581 40.3431L45.5757 40.3479L45.5757 40.3479C45.8489 40.4221 46.1623 40.5073 46.4802 40.5764C47.0964 40.7105 47.9151 40.8309 48.6734 40.5841C49.5478 40.2994 50.1455 39.6012 50.3865 38.5518C50.9909 35.9203 51.3988 33.1649 51.656 30.501C52.1925 24.9441 52.0552 19.7652 51.5636 17.0509C50.9564 13.6983 50.1855 11.3311 49.2272 9.53359C48.2585 7.71667 47.1226 6.52756 45.8616 5.5039L45.2369 6.27334L45.8616 5.5039C42.8476 3.05718 39.8693 3.08896 36.925 3.66215C36.0843 3.82581 35.1831 4.0485 34.2882 4.26963L34.2881 4.26965L34.2881 4.26966C33.6931 4.41667 33.1009 4.56299 32.5312 4.69083C31.0435 5.02461 29.5311 5.28028 27.9386 5.28028ZM11.3727 6.89625C13.68 5.12383 15.9234 5.10788 18.5301 5.61465C19.3574 5.77547 20.1585 5.97435 21.0055 6.18461L21.0055 6.18462L21.0055 6.18463C21.6043 6.33328 22.226 6.48762 22.8961 6.63822C24.4544 6.98848 26.1344 7.28028 27.9386 7.28028C28.6737 7.28028 29.3874 7.23214 30.0802 7.15153C30.2935 8.31132 30.933 9.67513 31.993 10.7351C33.3774 12.1195 35.4831 12.988 38.2426 12.2981C39.3127 12.0306 40.0506 12.0747 40.5814 12.2437C41.107 12.4109 41.526 12.731 41.9096 13.1882C42.3066 13.6613 42.6366 14.2442 42.9986 14.9158L43.0981 15.1009C43.4165 15.6942 43.7731 16.3586 44.2 16.928C45.018 18.0187 45.9071 18.7963 46.9535 19.1988C47.8868 19.5578 48.8495 19.5818 49.844 19.3871C50.0753 22.0948 50.0759 26.0552 49.6653 30.3088C49.4145 32.9063 49.0183 35.574 48.4373 38.1041C48.3273 38.5832 48.1563 38.6491 48.0543 38.6823C47.8363 38.7533 47.4709 38.7452 46.9053 38.6221C46.6391 38.5642 46.3687 38.4909 46.0824 38.4131L46.0714 38.4101L46.0712 38.41C45.8002 38.3364 45.5032 38.2557 45.2271 38.1997C44.9584 38.1452 44.6228 38.0946 44.2928 38.1285C43.9441 38.1644 43.4752 38.3125 43.168 38.7733C42.8482 39.253 42.6474 39.7526 42.6008 40.2694C42.5534 40.7944 42.6715 41.2706 42.8867 41.6836C43.2919 42.4611 44.0411 43.0105 44.655 43.3967C44.9776 43.5997 45.3087 43.7845 45.5977 43.9459C45.8984 44.1137 46.1432 44.2504 46.3416 44.3781C46.3635 44.3921 46.384 44.4056 46.4034 44.4186C45.3939 46.6801 44.1617 48.5009 42.6916 49.7006C41.1657 50.9459 39.3517 51.5518 37.1284 51.2525C36.1222 51.1171 35.5268 50.5944 35.0613 49.7485C34.6121 48.9322 34.3353 47.911 34.0159 46.7331L34.0157 46.7322C33.9745 46.5802 33.9326 46.4256 33.8895 46.2685C33.535 44.976 33.0972 43.5045 32.2308 42.3693C31.3038 41.1547 29.9392 40.3848 27.9386 40.3848C25.938 40.3848 24.5734 41.1547 23.6464 42.3693C22.78 43.5045 22.3422 44.976 21.9877 46.2685C21.9445 46.4259 21.9025 46.5808 21.8612 46.7331C21.5419 47.911 21.265 48.9322 20.8159 49.7485C20.3504 50.5944 19.7549 51.1171 18.7488 51.2525C16.7397 51.523 15.1259 51.0472 13.7761 50.0519C13.1731 49.6073 12.6124 49.0508 12.0915 48.3938C12.1763 48.2884 12.2914 48.1651 12.4491 48.004C12.4895 47.9627 12.5324 47.9193 12.5774 47.8738L12.5776 47.8737C12.9018 47.5457 13.333 47.1096 13.6966 46.5856C14.1261 45.9666 14.4879 45.1943 14.5743 44.2211C14.6325 43.5649 14.5624 42.8537 14.3388 42.0759C15.5154 41.6645 16.9347 40.6948 17.8945 38.7752C18.1415 38.2812 17.9412 37.6805 17.4473 37.4336C16.9533 37.1866 16.3526 37.3868 16.1056 37.8808C15.3787 39.3346 14.3551 39.9579 13.6543 40.1969C13.4185 39.3669 13.3321 38.4175 13.3642 37.4959C13.4067 36.2774 13.6499 35.2644 13.8945 34.7752C14.1415 34.2812 13.9413 33.6805 13.4473 33.4336C12.9533 33.1866 12.3527 33.3868 12.1057 33.8808C11.6836 34.7249 11.4132 36.056 11.3654 37.4262C11.3172 38.811 11.4902 40.3929 12.0863 41.7341C12.5334 42.7401 12.6317 43.4858 12.5821 44.0443C12.533 44.5971 12.3324 45.0435 12.0535 45.4454C11.7956 45.8171 11.493 46.1243 11.1615 46.4609C11.1148 46.5083 11.0675 46.5563 11.0198 46.6051C10.9954 46.63 10.9706 46.6554 10.9456 46.6813C10.712 46.2722 10.4882 45.8396 10.2736 45.3847C8.33279 41.2701 7.29081 35.6435 6.59431 30.2762C5.87684 24.7473 5.8559 19.7587 6.28156 17.4072C6.86842 14.1653 7.56451 12.0152 8.36715 10.4635C8.80481 9.61741 9.2803 8.93727 9.80344 8.34771L12.5396 9.71581L11.168 11.7733C10.8616 12.2328 10.9858 12.8537 11.4454 13.16C11.9049 13.4664 12.5257 13.3422 12.8321 12.8827L14.6596 10.1414L14.6757 10.136C14.8597 10.0747 15.1448 9.99602 15.5165 9.94293C16.2561 9.83727 17.3477 9.8313 18.6838 10.2767C19.2078 10.4513 19.7741 10.1682 19.9487 9.64421C20.1234 9.12026 19.8402 8.55394 19.3163 8.3793C17.6524 7.82466 16.244 7.8187 15.2336 7.96303C14.7353 8.03422 14.336 8.14159 14.0518 8.23582L11.3727 6.89625ZM49.5937 17.3965C49.0081 14.1671 48.2878 12.0228 47.4623 10.4745C46.6463 8.94389 45.7046 7.95255 44.6011 7.05666C42.239 5.13921 39.9672 5.10744 37.3072 5.62529C36.4897 5.78443 35.6992 5.98066 34.8626 6.18831L34.8626 6.18832L34.8625 6.18834C34.2638 6.33695 33.6416 6.49141 32.969 6.64231C32.6692 6.70958 32.3648 6.77467 32.0557 6.83591C32.2005 7.56583 32.6324 8.54604 33.4072 9.32087C34.3228 10.2365 35.7171 10.868 37.7576 10.3578C39.0875 10.0254 40.2165 10.0287 41.1879 10.3379C42.1647 10.6487 42.8835 11.2374 43.4417 11.9026C43.9866 12.552 44.4026 13.3053 44.7591 13.9668L44.8498 14.1354C45.1845 14.7577 45.469 15.2866 45.8001 15.728C46.482 16.6373 47.093 17.1096 47.6715 17.3321C48.2027 17.5364 48.8101 17.5699 49.5937 17.3965ZM19.0001 31.328L18.5398 30.4402C18.0495 30.6945 17.8581 31.298 18.1123 31.7883C18.3665 32.2784 18.9697 32.4698 19.46 32.216L19.4604 32.2157L19.4639 32.2139L19.4893 32.2012C19.5134 32.1892 19.5518 32.1705 19.6038 32.1459C19.7077 32.0966 19.866 32.0242 20.0737 31.9361C20.4892 31.7598 21.1008 31.5217 21.8686 31.2828C23.4075 30.8041 25.555 30.328 28.0001 30.328C30.4452 30.328 32.5927 30.8041 34.1316 31.2828C34.8994 31.5217 35.5109 31.7598 35.9265 31.9361C36.1341 32.0242 36.2924 32.0966 36.3964 32.1459C36.4484 32.1705 36.4867 32.1892 36.5108 32.2012L36.5362 32.2139L36.5398 32.2157L36.5402 32.216L36.5405 32.2161L36.5407 32.2162L36.5407 32.2162L36.5409 32.2163C37.031 32.4697 37.6338 32.2782 37.8878 31.7883C38.1421 31.298 37.9507 30.6945 37.4604 30.4402L37.0078 31.3131C37.4604 30.4402 37.4601 30.4401 37.4599 30.44L37.4593 30.4396L37.4578 30.4389L37.4538 30.4368L37.4415 30.4305L37.4002 30.4098C37.3653 30.3925 37.3157 30.3683 37.2522 30.3382C37.1251 30.2781 36.9419 30.1943 36.7076 30.0949C36.2392 29.8962 35.565 29.6342 34.7257 29.3731C33.0503 28.8519 30.6978 28.328 28.0001 28.328C25.3023 28.328 22.9498 28.8519 21.2744 29.3731C20.4351 29.6342 19.7609 29.8962 19.2926 30.0949C19.0582 30.1943 18.875 30.2781 18.748 30.3382C18.6844 30.3683 18.6349 30.3925 18.6 30.4098L18.5587 30.4305L18.5464 30.4368L18.5424 30.4389L18.5409 30.4396L18.5403 30.44C18.54 30.4401 18.5398 30.4402 19.0001 31.328ZM20.5001 17.328C19.1194 17.328 18.0001 18.4473 18.0001 19.828V21.828C18.0001 23.2087 19.1194 24.328 20.5001 24.328C21.8808 24.328 23.0001 23.2087 23.0001 21.828V19.828C23.0001 18.4473 21.8808 17.328 20.5001 17.328ZM20.0001 19.828C20.0001 19.5518 20.2239 19.328 20.5001 19.328C20.7762 19.328 21.0001 19.5518 21.0001 19.828V21.828C21.0001 22.1041 20.7762 22.328 20.5001 22.328C20.2239 22.328 20.0001 22.1041 20.0001 21.828V19.828ZM35.5001 17.328C34.1194 17.328 33.0001 18.4473 33.0001 19.828V21.828C33.0001 23.2087 34.1194 24.328 35.5001 24.328C36.8808 24.328 38.0001 23.2087 38.0001 21.828V19.828C38.0001 18.4473 36.8808 17.328 35.5001 17.328ZM35.0001 19.828C35.0001 19.5518 35.2239 19.328 35.5001 19.328C35.7762 19.328 36.0001 19.5518 36.0001 19.828V21.828C36.0001 22.1041 35.7762 22.328 35.5001 22.328C35.2239 22.328 35.0001 22.1041 35.0001 21.828V19.828Z" fill="white"/>
</svg>
