<svg width="56" height="57" viewBox="0 0 56 57" fill="none" xmlns="http://www.w3.org/2000/svg">
<path fill-rule="evenodd" clip-rule="evenodd" d="M7.89442 2.88079C7.72502 2.542 7.37876 2.328 6.99998 2.328C6.62121 2.328 6.27495 2.54201 6.10556 2.8808C5.63572 3.82049 5.19297 4.47083 4.66789 4.99592C4.14281 5.521 3.49247 5.96376 2.55279 6.4336C2.214 6.60299 2 6.94925 2 7.32803C2 7.7068 2.214 8.05306 2.55279 8.22245C3.49247 8.69229 4.14281 9.13505 4.66789 9.66013C5.19297 10.1852 5.63573 10.8356 6.10557 11.7752C6.27496 12.114 6.62122 12.328 7 12.328C7.37877 12.328 7.72503 12.114 7.89442 11.7752C8.36426 10.8356 8.80702 10.1852 9.3321 9.66013C9.85719 9.13505 10.5075 8.69229 11.4472 8.22245C11.786 8.05306 12 7.7068 12 7.32803C12 6.94925 11.786 6.60299 11.4472 6.4336C10.5075 5.96376 9.85719 5.521 9.3321 4.99592C8.80702 4.47083 8.36426 3.82048 7.89442 2.88079ZM6.08211 6.41013C6.4197 6.07253 6.72093 5.70788 6.99999 5.30749C7.27906 5.70788 7.58029 6.07253 7.91789 6.41013C8.25548 6.74773 8.62014 7.04896 9.02052 7.32803C8.62014 7.60709 8.25549 7.90832 7.91789 8.24592C7.58029 8.58352 7.27906 8.94817 7 9.34855C6.72093 8.94817 6.4197 8.58352 6.08211 8.24592C5.74451 7.90832 5.37986 7.60709 4.97948 7.32803C5.37986 7.04896 5.74451 6.74773 6.08211 6.41013ZM50.8944 41.8808C50.725 41.542 50.3788 41.328 50 41.328C49.6212 41.328 49.275 41.542 49.1056 41.8808C48.575 42.942 48.401 43.2628 48.1679 43.4959C47.9348 43.7291 47.6139 43.903 46.5528 44.4336C46.214 44.603 46 44.9493 46 45.328C46 45.7068 46.214 46.0531 46.5528 46.2225C47.6139 46.753 47.9348 46.927 48.1679 47.1601C48.401 47.3933 48.575 47.7141 49.1056 48.7752C49.275 49.114 49.6212 49.328 50 49.328C50.3788 49.328 50.725 49.114 50.8944 48.7752C51.425 47.7141 51.599 47.3933 51.8321 47.1601C52.0653 46.927 52.3861 46.753 53.4472 46.2225C53.786 46.0531 54 45.7068 54 45.328C54 44.9493 53.786 44.603 53.4472 44.4336C52.3861 43.903 52.0653 43.7291 51.8321 43.4959C51.599 43.2628 51.425 42.9419 50.8944 41.8808ZM49.5821 44.9101C49.7353 44.757 49.8717 44.5896 50 44.4054C50.1283 44.5896 50.2647 44.757 50.4179 44.9101C50.5711 45.0633 50.7385 45.1997 50.9227 45.328C50.7385 45.4564 50.5711 45.5928 50.4179 45.7459C50.2647 45.8991 50.1283 46.0665 50 46.2507C49.8717 46.0665 49.7353 45.8991 49.5821 45.7459C49.429 45.5928 49.2616 45.4564 49.0774 45.328C49.2616 45.1997 49.429 45.0633 49.5821 44.9101ZM44.5 49.328C43.1193 49.328 42 50.4473 42 51.828C42 53.2087 43.1193 54.328 44.5 54.328C45.8807 54.328 47 53.2087 47 51.828C47 50.4473 45.8807 49.328 44.5 49.328ZM44 51.828C44 51.5519 44.2239 51.328 44.5 51.328C44.7761 51.328 45 51.5519 45 51.828C45 52.1041 44.7761 52.328 44.5 52.328C44.2239 52.328 44 52.1041 44 51.828ZM50.634 18.1622C50.1379 19.3285 49.118 20.3468 47.8312 20.3591C48.0691 22.7884 48.0773 26.3691 47.715 30.1541C47.2785 34.7157 46.3115 39.6643 44.4503 43.3757C43.5172 45.2362 42.3283 46.849 40.8081 47.9286C39.263 49.0258 37.4219 49.5372 35.296 49.2486C33.756 49.0395 32.8225 48.1424 32.2315 47.059C31.7471 46.171 31.4578 45.0865 31.2048 44.1384C31.1705 44.0099 31.1369 43.8839 31.1035 43.7612C30.8017 42.6509 30.5129 41.7621 30.0408 41.1381C29.6292 40.5941 29.046 40.2087 27.9492 40.2087C26.8525 40.2087 26.2692 40.5941 25.8576 41.1381C25.3855 41.7621 25.0967 42.6509 24.7949 43.7612C24.7615 43.8839 24.7279 44.0099 24.6936 44.1384L24.6936 44.1384L24.6936 44.1385L24.6936 44.1385L24.6936 44.1386L24.6936 44.1386C24.4406 45.0867 24.1512 46.171 23.6669 47.059C23.0759 48.1424 22.1424 49.0394 20.6024 49.2486C18.4561 49.54 16.6325 49.0111 15.126 47.8769C14.9411 47.7377 14.8182 47.5468 14.7622 47.3395C12.4351 47.0766 10.4811 45.3126 9.66159 42.9733C8.48115 43.3246 7.29755 43.1889 6.27128 42.7053C4.925 42.0708 3.86868 40.8513 3.3864 39.4044C3.00741 38.2674 2.84989 36.8181 3.17856 35.5287C3.51943 34.1914 4.42161 32.9511 6.13897 32.6076C7.54252 32.3269 8.74897 32.9485 9.50607 33.4996C9.89812 33.785 10.2125 34.0818 10.4286 34.306C10.5375 34.4189 10.6235 34.5157 10.6842 34.5865C10.7145 34.622 10.7387 34.6511 10.7563 34.6727L10.7777 34.6994L10.7848 34.7083L10.7873 34.7115L10.7884 34.7129L10.7888 34.7135C10.789 34.7137 10.7893 34.714 10 35.3281L10.7893 34.714C11.1284 35.1499 11.05 35.7782 10.6141 36.1173C10.179 36.4558 9.55236 36.3783 9.21275 35.9447L9.21211 35.9439L9.21207 35.9438L9.21187 35.9436L9.20537 35.9356C9.1976 35.926 9.18402 35.9096 9.16495 35.8873C9.12673 35.8426 9.06708 35.7753 8.9886 35.6939C8.83002 35.5294 8.60319 35.3162 8.32902 35.1166C7.75365 34.6978 7.12764 34.4495 6.5312 34.5688C5.74853 34.7253 5.31738 35.235 5.11659 36.0227C4.9036 36.8583 4.9961 37.909 5.28377 38.772C5.60148 39.7251 6.29516 40.5056 7.12387 40.8961C7.92623 41.2742 8.87214 41.2998 9.82059 40.7307C10.1043 40.5605 10.4539 40.5416 10.7543 40.6803C11.0547 40.8191 11.2671 41.0974 11.3215 41.4238C11.7534 44.0151 13.8506 45.6249 15.8586 45.3381C16.4678 45.2511 16.8717 44.9737 17.1412 44.602C17.4246 44.2112 17.5966 43.6601 17.6051 43.0075C17.6226 41.679 16.9628 40.2085 15.7804 39.4202C15.3608 39.1405 15.2151 38.5921 15.4407 38.141C17.1544 34.7135 14.9736 31.9357 13.139 31.5688C12.6715 31.4753 12.3351 31.0649 12.3351 30.5882C12.3351 29.3672 11.8295 28.4143 11.1479 27.869C10.4776 27.3328 9.60574 27.1569 8.70647 27.5167C7.72904 27.9076 7.45217 28.428 7.35541 28.7505C7.30002 28.9351 7.29071 29.1027 7.29528 29.2216C7.29753 29.2802 7.30304 29.3237 7.30665 29.347C7.30783 29.3545 7.30878 29.3598 7.30929 29.3625C7.43231 29.8928 7.10778 30.4258 6.57762 30.5583C6.04182 30.6923 5.49889 30.3665 5.36494 29.8307L6.33508 29.5882C5.36494 29.8307 5.36478 29.8301 5.36463 29.8295L5.3643 29.8282L5.36363 29.8254L5.36215 29.8193L5.35874 29.8047C5.35629 29.7939 5.35348 29.7811 5.35043 29.7662C5.34435 29.7365 5.33731 29.6987 5.33031 29.6536C5.31635 29.5637 5.30232 29.443 5.29676 29.2985C5.28571 29.0112 5.30764 28.6162 5.43976 28.1758C5.71799 27.2484 6.44112 26.2687 7.9637 25.6597C8.00329 25.6439 8.04291 25.6286 8.08254 25.6139C7.92727 22.8211 7.99326 20.3969 8.26147 18.9023C8.7633 16.1058 9.38035 14.1182 10.1579 12.6018C10.9469 11.0631 11.8799 10.0513 12.9423 9.18124C15.5043 7.08316 18.0508 7.11526 20.5271 7.6009C21.2335 7.73943 21.997 7.92973 22.7491 8.11718L22.7491 8.11719L22.7492 8.11719L22.7492 8.1172L22.7492 8.1172L22.7492 8.1172C23.2393 8.23935 23.7245 8.36028 24.1859 8.46491C25.4155 8.7437 26.6535 8.95492 27.9492 8.95491C29.7903 8.95491 31.4322 8.5454 33.1092 8.12708L33.1093 8.12707C33.6268 7.99799 34.1476 7.86808 34.6787 7.7491C34.7289 7.51726 34.7966 7.29684 34.8745 7.09248C35.0961 6.511 35.4291 5.98467 35.7929 5.62093C37.0031 4.4107 39.1423 3.75281 41.6465 4.22541C42.4931 3.47255 43.7539 3.20301 44.875 3.20301C46.2969 3.20302 47.8944 3.62383 49.1 4.52803C51.0526 5.99245 51.2012 8.50866 50.3864 10.069C49.9683 10.8697 49.1962 11.5971 48.1108 11.6326C47.0452 11.6674 46.0556 11.0192 45.2132 9.94516C44.8723 9.5106 44.9483 8.88201 45.3829 8.54117C45.8174 8.20033 46.446 8.27631 46.7869 8.71088C47.4445 9.54933 47.8923 9.63864 48.0455 9.63364C48.1789 9.62927 48.4067 9.53948 48.6136 9.14326C49.0488 8.30988 48.9474 6.91359 47.9 6.12804C47.1056 5.53222 45.9531 5.20302 44.875 5.20301C43.7346 5.20301 43.0494 5.55664 42.8321 5.88272C42.5964 6.23609 42.1633 6.4021 41.7519 6.29672C39.513 5.72327 37.9054 6.33682 37.2071 7.03514C37.0708 7.1714 36.8798 7.44675 36.7433 7.80487C36.6084 8.15867 36.5552 8.51851 36.6035 8.82949C36.648 9.1158 36.7819 9.39837 37.1068 9.65347C37.4517 9.92429 38.0647 10.2033 39.124 10.3357C40.8238 10.5482 42.0777 11.1834 43.0366 12.0555C43.9749 12.9088 44.5854 13.9492 45.0678 14.8878C45.2245 15.1927 45.3638 15.477 45.4943 15.7435L45.4944 15.7436C45.792 16.3513 46.0444 16.8665 46.3554 17.3232C46.7652 17.925 47.1649 18.2412 47.6962 18.3474C47.8995 18.3881 48.4149 18.2696 48.7936 17.3793C49.1444 16.5545 49.237 15.253 48.5808 13.7219C48.3633 13.2143 48.5984 12.6264 49.1061 12.4089C49.6137 12.1913 50.2016 12.4265 50.4191 12.9341C51.263 14.9031 51.2239 16.7752 50.634 18.1622ZM44.7023 18.449C44.9824 18.8602 45.3136 19.2525 45.7212 19.5754C46.0446 21.7026 46.1372 25.6476 45.7241 29.9635C45.296 34.437 44.3592 39.0958 42.6625 42.4791C41.8165 44.1659 40.8129 45.4722 39.6501 46.2979C38.5123 47.1059 37.18 47.486 35.5651 47.2668C34.8044 47.1635 34.3538 46.7732 33.9873 46.1013C33.6262 45.4393 33.4028 44.6086 33.1378 43.6231L33.1375 43.6218C33.1036 43.4959 33.0691 43.3674 33.0335 43.2365C32.7415 42.1626 32.3734 40.9064 31.6357 39.9313C30.8375 38.8762 29.658 38.2087 27.9492 38.2087C26.2404 38.2087 25.0609 38.8762 24.2627 39.9313C23.525 40.9064 23.1569 42.1626 22.8649 43.2365C22.8292 43.3679 22.7946 43.4968 22.7606 43.6231C22.4956 44.6086 22.2722 45.4393 21.9111 46.1013C21.5446 46.7732 21.094 47.1635 20.3333 47.2668C19.2216 47.4177 18.2648 47.2821 17.4241 46.9202C17.9659 46.645 18.4143 46.2533 18.7604 45.776C19.3367 44.9813 19.5922 44.0036 19.605 43.0337C19.6268 41.3701 18.9343 39.5309 17.5623 38.282C19.0632 34.3732 16.9488 30.8593 14.289 29.8296C14.1096 28.3727 13.4175 27.1235 12.3973 26.3073C11.7271 25.7711 10.9258 25.4329 10.0711 25.3486C9.93016 22.681 10.0069 20.4989 10.23 19.2556C10.7134 16.5622 11.2847 14.7876 11.9376 13.5143C12.579 12.2634 13.3186 11.4581 14.2095 10.7286C16.1175 9.1661 17.9522 9.13401 20.1422 9.56351C20.8234 9.6971 21.4758 9.86056 22.1702 10.0345C22.6648 10.1585 23.1808 10.2878 23.7437 10.4154C25.0367 10.7086 26.4394 10.9549 27.9492 10.9549C30.061 10.9549 32.0323 10.4615 33.7539 10.0307C34.1114 9.94117 34.4582 9.85438 34.7932 9.77527C34.9915 10.308 35.3401 10.8091 35.8716 11.2264C36.5916 11.7919 37.5892 12.1595 38.876 12.3203C40.1762 12.4828 41.0443 12.947 41.691 13.5351C42.3583 14.142 42.837 14.9225 43.289 15.8021C43.4003 16.0186 43.5139 16.2505 43.6309 16.4892L43.631 16.4894C43.9557 17.1521 44.3059 17.8668 44.7023 18.449ZM18.1056 27.8808C18.3525 27.387 18.9529 27.1867 19.4468 27.4334L19.4517 27.4358L19.4789 27.449C19.5044 27.4612 19.5446 27.4803 19.5988 27.5052C19.7072 27.5549 19.8714 27.6279 20.0855 27.7165C20.514 27.8938 21.1406 28.1327 21.9191 28.3723C23.4806 28.8527 25.6283 29.328 28 29.328C30.3717 29.328 32.5194 28.8527 34.0809 28.3723C34.8594 28.1327 35.486 27.8938 35.9145 27.7165C36.1286 27.6279 36.2928 27.5549 36.4012 27.5052C36.4554 27.4803 36.4956 27.4612 36.5211 27.449L36.5483 27.4358L36.5528 27.4336L36.5532 27.4334C37.0471 27.1867 37.6475 27.387 37.8944 27.8808C38.1414 28.3748 37.9412 28.9755 37.4472 29.2225L37 28.328C37.4472 29.2225 37.447 29.2226 37.4467 29.2227L37.4462 29.223L37.4447 29.2237L37.4408 29.2257L37.4285 29.2317L37.3866 29.252C37.3511 29.2691 37.3005 29.293 37.2355 29.3228C37.1057 29.3824 36.9183 29.4656 36.6792 29.5646C36.2015 29.7622 35.5156 30.0234 34.6691 30.2838C32.9806 30.8033 30.6283 31.328 28 31.328C25.3717 31.328 23.0194 30.8033 21.3309 30.2838C20.4844 30.0234 19.7985 29.7622 19.3208 29.5646C19.0817 29.4656 18.8943 29.3824 18.7645 29.3228C18.6995 29.293 18.6489 29.2691 18.6134 29.252L18.5715 29.2317L18.5592 29.2257L18.5553 29.2237L18.5538 29.223L18.5533 29.2227C18.553 29.2226 18.5528 29.2225 19 28.328L18.5528 29.2225C18.0588 28.9755 17.8586 28.3748 18.1056 27.8808ZM18 18.828C18 17.4473 19.1193 16.328 20.5 16.328C21.8807 16.328 23 17.4473 23 18.828V20.828C23 22.2087 21.8807 23.328 20.5 23.328C19.1193 23.328 18 22.2087 18 20.828V18.828ZM20.5 18.328C20.2239 18.328 20 18.5519 20 18.828V20.828C20 21.1042 20.2239 21.328 20.5 21.328C20.7761 21.328 21 21.1042 21 20.828V18.828C21 18.5519 20.7761 18.328 20.5 18.328ZM33 18.828C33 17.4473 34.1193 16.328 35.5 16.328C36.8807 16.328 38 17.4473 38 18.828V20.828C38 22.2087 36.8807 23.328 35.5 23.328C34.1193 23.328 33 22.2087 33 20.828V18.828ZM35.5 18.328C35.2239 18.328 35 18.5519 35 18.828V20.828C35 21.1042 35.2239 21.328 35.5 21.328C35.7761 21.328 36 21.1042 36 20.828V18.828C36 18.5519 35.7761 18.328 35.5 18.328Z" fill="white"/>
</svg>
