<svg width="56" height="57" viewBox="0 0 56 57" fill="none" xmlns="http://www.w3.org/2000/svg">
<path fill-rule="evenodd" clip-rule="evenodd" d="M49.8944 2.88079C49.725 2.542 49.3787 2.328 48.9999 2.328C48.6212 2.328 48.2749 2.54201 48.1055 2.8808C47.6357 3.82049 47.1929 4.47083 46.6678 4.99592C46.1428 5.521 45.4924 5.96376 44.5527 6.4336C44.214 6.60299 44 6.94925 44 7.32803C44 7.7068 44.214 8.05306 44.5527 8.22245C45.4924 8.69229 46.1428 9.13505 46.6678 9.66013C47.1929 10.1852 47.6357 10.8356 48.1055 11.7752C48.2749 12.114 48.6212 12.328 49 12.328C49.3787 12.328 49.725 12.114 49.8944 11.7752C50.3642 10.8356 50.807 10.1852 51.3321 9.66013C51.8571 9.13505 52.5075 8.69229 53.4472 8.22245C53.786 8.05306 54 7.7068 54 7.32803C54 6.94925 53.786 6.60299 53.4472 6.4336C52.5075 5.96376 51.8571 5.521 51.3321 4.99592C50.807 4.47083 50.3642 3.82048 49.8944 2.88079ZM48.0821 6.41013C48.4197 6.07253 48.7209 5.70788 48.9999 5.30749C49.279 5.70788 49.5802 6.07253 49.9178 6.41013C50.2554 6.74773 50.6201 7.04896 51.0205 7.32803C50.6201 7.60709 50.2554 7.90832 49.9178 8.24592C49.5803 8.58352 49.279 8.94817 49 9.34855C48.7209 8.94817 48.4197 8.58352 48.0821 8.24592C47.7445 7.90832 47.3798 7.60709 46.9794 7.32803C47.3798 7.04896 47.7445 6.74773 48.0821 6.41013ZM14.4999 44.328C13.1192 44.328 11.9999 45.4473 11.9999 46.828C11.9999 48.2087 13.1192 49.328 14.4999 49.328C15.8807 49.328 16.9999 48.2087 16.9999 46.828C16.9999 45.4473 15.8807 44.328 14.4999 44.328ZM13.9999 46.828C13.9999 46.5519 14.2238 46.328 14.4999 46.328C14.7761 46.328 14.9999 46.5519 14.9999 46.828C14.9999 47.1041 14.7761 47.328 14.4999 47.328C14.2238 47.328 13.9999 47.1041 13.9999 46.828ZM6.89437 46.8808C6.72498 46.542 6.37872 46.328 5.99994 46.328C5.62117 46.328 5.27491 46.542 5.10552 46.8808C4.57495 47.942 4.40099 48.2628 4.16784 48.4959C3.9347 48.7291 3.61389 48.903 2.55274 49.4336C2.21396 49.603 1.99995 49.9493 1.99995 50.328C1.99995 50.7068 2.21396 51.0531 2.55274 51.2225C3.61389 51.753 3.9347 51.927 4.16785 52.1601C4.401 52.3933 4.57495 52.7141 5.10553 53.7752C5.27492 54.114 5.62118 54.328 5.99995 54.328C6.37873 54.328 6.72499 54.114 6.89438 53.7752C7.42495 52.7141 7.59891 52.3933 7.83206 52.1601C8.06521 51.927 8.38602 51.753 9.44717 51.2225C9.78595 51.0531 9.99995 50.7068 9.99995 50.328C9.99995 49.9493 9.78595 49.603 9.44717 49.4336C8.38603 48.903 8.06521 48.7291 7.83206 48.4959C7.59891 48.2628 7.42495 47.9419 6.89437 46.8808ZM5.58206 49.9101C5.73522 49.757 5.87161 49.5896 5.99995 49.4054C6.12829 49.5896 6.26469 49.757 6.41784 49.9101C6.571 50.0633 6.73841 50.1997 6.9226 50.328C6.73841 50.4564 6.571 50.5928 6.41785 50.7459C6.26469 50.8991 6.1283 51.0665 5.99996 51.2507C5.87161 51.0665 5.73521 50.8991 5.58206 50.7459C5.42891 50.5928 5.2615 50.4564 5.07731 50.328C5.2615 50.1997 5.42891 50.0633 5.58206 49.9101ZM4.05315 24.2563C6.764 22.8892 13.7446 20.328 27.9999 20.328C42.2553 20.328 49.2359 22.8892 51.9467 24.2563C52.5966 24.584 52.9999 25.3025 52.9999 26.2015V30.6786C52.4376 30.2005 51.6908 29.9372 50.8995 30.0171C50.3991 30.0676 49.9397 30.2518 49.5448 30.5128C49.4652 30.3661 49.3755 30.2244 49.2761 30.0885C48.0037 28.3485 45.5307 28.0348 43.8643 29.4022C43.6979 29.5387 43.5338 29.6844 43.376 29.8401C43.3265 29.7593 43.274 29.68 43.2189 29.6024C41.7877 27.5893 38.9417 27.2291 37.054 28.8222C36.7138 29.1093 36.3845 29.4284 36.0929 29.7857L36.0674 29.7512C34.488 27.6454 31.4798 27.2635 29.4243 28.9079C28.9153 29.3151 28.4137 29.7807 27.9999 30.3294C27.5862 29.7807 27.0846 29.3151 26.5756 28.9079C24.5201 27.2635 21.5119 27.6454 19.9325 29.7512L19.9069 29.7857C19.6154 29.4284 19.2861 29.1093 18.9458 28.8222C17.0582 27.2291 14.2122 27.5893 12.781 29.6024C12.7258 29.68 12.6734 29.7593 12.6238 29.8401C12.4661 29.6844 12.302 29.5387 12.1356 29.4022C10.4692 28.0348 7.99614 28.3485 6.72374 30.0885C6.62445 30.2243 6.53482 30.366 6.4552 30.5126C6.06076 30.2514 5.602 30.0669 5.10246 30.0154C4.20731 29.9232 3.50095 30.238 2.99994 30.7274V26.2015C2.99994 25.3025 3.40331 24.584 4.05315 24.2563ZM54.1213 33.6209L53.9999 33.7422V35.507C53.9999 36.5072 53.1776 37.328 52.1789 37.328H49.9805C49.8328 38.4487 48.8615 39.328 47.7032 39.328H44.2967C44.0408 39.328 43.794 39.2851 43.5633 39.2061C43.1053 39.8804 42.3326 40.328 41.465 40.328H37.5349C37.1825 40.328 36.8457 40.2541 36.5393 40.1212C36.0508 40.8461 35.2224 41.328 34.2928 41.328H29.707C29.063 41.328 28.4675 41.0967 27.9999 40.7134C27.5324 41.0967 26.9369 41.328 26.2928 41.328H21.707C20.7775 41.328 19.9491 40.8461 19.4606 40.1212C19.1542 40.2541 18.8174 40.328 18.465 40.328H14.5349C13.6673 40.328 12.8945 39.8804 12.4366 39.2061C12.2058 39.2851 11.9591 39.328 11.7032 39.328H8.29673C7.13835 39.328 6.16709 38.4487 6.01937 37.328H3.82094C3.20027 37.328 2.70499 37.0286 2.39627 36.6051C2.10954 36.2117 1.99994 35.7427 1.99994 35.328V33.7422L1.87862 33.6209C1.31601 33.0583 0.999939 32.2952 0.999939 31.4996V26.2015C0.999939 24.7262 1.68251 23.2119 3.1526 22.4705C3.86061 22.1134 4.79752 21.6991 5.99994 21.2733V19.328C5.99994 17.6711 7.34308 16.328 8.99994 16.328H9.99994C11.6568 16.328 12.9999 17.6711 12.9999 19.328V19.4911C14.7575 19.1794 16.7498 18.908 18.9999 18.706V17.328C18.9999 15.6711 20.3431 14.328 21.9999 14.328H22.9999C24.6568 14.328 25.9999 15.6711 25.9999 17.328V18.3449C26.6509 18.3338 27.3174 18.328 27.9999 18.328C28.6824 18.328 29.349 18.3338 29.9999 18.3449V17.328C29.9999 15.6711 31.3431 14.328 32.9999 14.328H33.9999C35.6568 14.328 36.9999 15.6711 36.9999 17.328V18.706C39.2501 18.908 41.2423 19.1794 42.9999 19.4911V19.328C42.9999 17.6711 44.3431 16.328 45.9999 16.328H46.9999C48.6568 16.328 49.9999 17.6711 49.9999 19.328V21.2733C51.2024 21.6991 52.1393 22.1134 52.8473 22.4705C54.3174 23.2118 54.9999 24.7262 54.9999 26.2015V31.4996C54.9999 32.2952 54.6839 33.0583 54.1213 33.6209ZM47.9999 20.6338V19.328C47.9999 18.7757 47.5522 18.328 46.9999 18.328H45.9999C45.4477 18.328 44.9999 18.7757 44.9999 19.328V19.8831C46.1093 20.1224 47.1066 20.376 47.9999 20.6338ZM34.9999 18.55V17.328C34.9999 16.7757 34.5522 16.328 33.9999 16.328H32.9999C32.4477 16.328 31.9999 16.7757 31.9999 17.328V18.3975C33.043 18.4348 34.0425 18.4862 34.9999 18.55ZM23.9999 18.3975V17.328C23.9999 16.7757 23.5522 16.328 22.9999 16.328H21.9999C21.4477 16.328 20.9999 16.7757 20.9999 17.328V18.55C21.9574 18.4862 22.9569 18.4348 23.9999 18.3975ZM10.9999 19.8831V19.328C10.9999 18.7757 10.5522 18.328 9.99994 18.328H8.99994C8.44765 18.328 7.99994 18.7757 7.99994 19.328V20.6338C8.8933 20.376 9.89059 20.1224 10.9999 19.8831ZM13.9999 32.9043V37.0312V37.793C13.9999 38.0767 14.2511 38.328 14.5349 38.328H18.465C18.7488 38.328 18.9999 38.0767 18.9999 37.793V32.7349C18.9999 31.8133 18.5243 31.0835 17.6559 30.3506C16.6624 29.5121 15.1644 29.7017 14.4111 30.7613C14.1436 31.1374 13.9999 31.5875 13.9999 32.0491V32.9043ZM11.9999 32.9043C11.9999 32.1602 11.6162 31.5631 10.867 30.9483C10.0883 30.3094 8.93271 30.456 8.33815 31.269C8.11839 31.5696 7.99994 31.9322 7.99994 32.3045V33.2488V35.507V37.0312C7.99994 37.101 8.02899 37.1758 8.09057 37.2374C8.15213 37.2989 8.22686 37.328 8.29673 37.328H11.7032C11.773 37.328 11.8477 37.2989 11.9093 37.2374C11.9709 37.1758 11.9999 37.101 11.9999 37.0312V32.9043ZM5.99994 33.2488C5.99994 33.0147 5.88746 32.7099 5.64888 32.4404C5.41082 32.1716 5.12803 32.0287 4.89742 32.0049C4.7167 31.9863 4.60694 32.0193 4.53473 32.0562C4.45601 32.0964 4.3705 32.1685 4.28634 32.2922C4.10487 32.5589 3.99994 32.9662 3.99994 33.328V35.328H5.99994V33.2488ZM20.9999 37.793V38.6209C20.9999 38.9984 21.3295 39.328 21.707 39.328H26.2928C26.6704 39.328 26.9999 38.9984 26.9999 38.6209V33.2505C26.9999 32.1393 26.3923 31.3225 25.3262 30.4696C24.1524 29.5306 22.4344 29.7487 21.5325 30.9512C21.1868 31.4122 20.9999 31.9728 20.9999 32.5489V32.7349V37.793ZM28.9999 38.6209C28.9999 38.9984 29.3295 39.328 29.707 39.328H34.2928C34.6704 39.328 34.9999 38.9984 34.9999 38.6209V37.793V32.7349V32.5489C34.9999 31.9728 34.8131 31.4122 34.4674 30.9512C33.5654 29.7487 31.8475 29.5306 30.6737 30.4696C29.6076 31.3225 28.9999 32.1393 28.9999 33.2505V38.6209ZM36.9999 37.793C36.9999 38.0767 37.2511 38.328 37.5349 38.328H41.465C41.7488 38.328 41.9999 38.0767 41.9999 37.793V37.0312V32.9043V32.0491C41.9999 31.5875 41.8562 31.1374 41.5888 30.7613C40.8355 29.7017 39.3375 29.5121 38.344 30.3506C37.4755 31.0835 36.9999 31.8133 36.9999 32.7349V37.793ZM43.9999 37.0312C43.9999 37.101 44.029 37.1758 44.0906 37.2374C44.1521 37.2989 44.2269 37.328 44.2967 37.328H47.7032C47.773 37.328 47.8477 37.2989 47.9093 37.2374C47.9709 37.1758 47.9999 37.101 47.9999 37.0312V35.507V33.2488V32.3045C47.9999 31.9322 47.8815 31.5696 47.6617 31.269C47.0672 30.456 45.9116 30.3094 45.1329 30.9483C44.3837 31.5631 43.9999 32.1602 43.9999 32.9043V37.0312ZM49.9999 35.328H51.9999V32.8189C51.9999 32.3529 51.5673 31.9598 51.1004 32.0069C50.8705 32.0302 50.5885 32.1722 50.3507 32.4407C50.1124 32.7097 49.9999 33.0145 49.9999 33.2488V35.328Z" fill="white"/>
</svg>
