<svg width="57" height="57" viewBox="0 0 57 57" fill="none" xmlns="http://www.w3.org/2000/svg">
<path fill-rule="evenodd" clip-rule="evenodd" d="M44.9999 0.328003C43.7713 0.328007 42.7297 0.849982 41.9162 1.58687C40.6141 2.7664 39.8035 4.56885 39.5162 6.14911C39.4184 6.68656 39.306 7.18298 39.1842 7.64352C35.9096 7.79362 33.123 9.22595 30.8796 11.038C28.5728 12.9013 26.7924 15.2033 25.575 17.0625C24.8099 18.231 24.5344 19.5582 24.6685 20.8448L22.6552 23.1936C22.654 23.1944 22.6508 23.1962 22.6447 23.1981C22.631 23.2025 22.6078 23.2054 22.5793 23.1997C20.2955 22.7386 17.9888 23.1066 15.8364 23.888C12.2812 25.1787 8.99976 27.6511 6.6395 29.7511C5.45134 30.8082 4.47947 31.7866 3.80358 32.5018C3.46538 32.8597 3.2006 33.1524 3.01918 33.3571C2.92846 33.4594 2.85853 33.5398 2.81064 33.5954C2.7867 33.6231 2.76826 33.6447 2.75548 33.6597L2.74057 33.6773L2.73634 33.6823L1.02906 35.6741C-0.0425166 36.9243 0.115672 38.8095 1.38061 39.8636C2.62096 40.8972 4.46155 40.7428 5.51229 39.5169L7.2472 37.4928C11.7247 32.6456 15.7408 30.0974 18.2702 29.3876C20.3556 28.8024 21.7879 29.1196 22.6203 29.5553C23.4263 29.9772 24.7225 30.0279 25.4848 29.0478L27.7281 26.1635L28.73 26.8076L26.232 29.8942C25.4215 30.8066 25.6869 32.0588 26.2315 32.7764C26.7995 33.5249 27.3502 34.8847 27.1196 37.0383C26.8399 39.6504 24.9942 44.0341 20.9581 49.2546L19.2504 51.3016C18.2161 52.5414 18.3696 54.3821 19.5949 55.4335C20.8445 56.5057 22.7297 56.3485 23.7845 55.0842L25.4633 53.0718L25.4637 53.0713L25.465 53.0697L25.4693 53.0647L25.4694 53.0646L25.4841 53.0471C25.4968 53.032 25.515 53.0102 25.5384 52.982C25.5853 52.9256 25.6529 52.8433 25.7388 52.7368C25.9104 52.5239 26.1551 52.2142 26.4518 51.8212C27.0448 51.0359 27.8481 49.915 28.6932 48.5678C30.372 45.8914 32.2648 42.2449 32.947 38.5247C33.36 36.2724 33.3397 33.9366 32.5057 31.7611C32.4953 31.734 32.4943 31.7106 32.4963 31.6964C32.4972 31.69 32.4984 31.6866 32.4991 31.6852L34.6458 29.1147C35.9323 29.0354 37.1908 28.5492 38.225 27.5923C39.954 25.9925 42.0714 23.6834 43.5445 20.8831C43.6518 20.6791 43.7558 20.4723 43.856 20.2627C43.984 20.2141 44.104 20.1382 44.2071 20.0351C45.5602 18.6819 47.8975 17.2544 51.2747 16.2895C54.1993 15.4539 56.4685 12.5367 55.9899 9.18658C55.7334 7.39062 54.571 6.20797 53.3645 5.48326C52.4416 4.92888 51.4341 4.60243 50.6123 4.43837C50.3281 3.60482 49.8643 2.71068 49.1314 1.96403C48.1786 0.99343 46.8229 0.327997 44.9999 0.328003ZM27.2195 18.2026C28.6061 17.322 30.366 17.1676 31.9071 17.844C31.8635 16.4566 32.3957 15.0622 33.4785 14.0435L38.0129 9.77759C35.8056 10.1534 33.8408 11.217 32.1363 12.5938C30.0493 14.2796 28.4011 16.3974 27.2482 18.1581C27.2385 18.1729 27.229 18.1877 27.2195 18.2026ZM34.2363 19.1261L34.2581 19.1383C35.6255 19.9075 37.3547 19.4931 38.225 18.1877L39.5481 16.2031C38.9503 16.2146 38.322 16.038 37.8172 15.5397C37.2398 14.9698 36.9885 14.3089 37.0508 13.5578C37.0547 13.51 37.06 13.462 37.0664 13.414L34.8489 15.5002C33.898 16.3948 33.6534 17.7751 34.1683 18.917C34.1991 18.9854 34.2216 19.0555 34.2363 19.1261ZM41.9382 12.6179L42.1639 12.2793L42.173 12.2657L43.1679 10.7733C43.3875 10.444 43.7806 10.2751 44.1706 10.3427C44.5607 10.4102 44.8741 10.7015 44.9701 11.0855C45.4747 13.1037 45.4343 15.038 45.0449 16.8407C46.5497 15.8803 48.4478 15.0172 50.7253 14.3665C52.8006 13.7735 54.3314 11.7193 54.01 9.46942C53.8666 8.46538 53.2231 7.73137 52.3347 7.19774C51.9094 6.94232 51.4513 6.74856 51.0163 6.60776C51.0265 6.89799 51.0183 7.17087 50.9958 7.41854C50.9458 7.96856 50.4594 8.3739 49.9094 8.3239C49.3594 8.27389 48.954 7.78748 49.004 7.23747C49.0436 6.80212 49.0185 6.2016 48.8616 5.56858C48.67 4.79537 48.3051 3.97732 47.7041 3.36509C47.1278 2.77798 46.2866 2.328 44.9999 2.328C44.685 2.328 44.3812 2.39342 44.0893 2.51982C44.2388 2.71541 44.3905 2.92196 44.5323 3.11939C44.7479 3.41929 44.9475 3.70728 45.0927 3.91967L45.0983 3.92787L47.1961 4.34742C47.7376 4.45573 48.0888 4.98255 47.9805 5.52411C47.8722 6.06567 47.3454 6.41689 46.8038 6.30858L45.2844 6.0047L44.9805 7.52412C44.8722 8.06568 44.3454 8.4169 43.8038 8.30858C43.2623 8.20027 42.9111 7.67345 43.0194 7.13189L43.4373 5.04206C43.2981 4.83851 43.1097 4.56693 42.9083 4.28662C42.8003 4.13638 42.6903 3.98614 42.5834 3.84404C42.0392 4.61761 41.651 5.58792 41.4839 6.50689C41.0087 9.12031 40.2036 10.8895 39.6446 12.1179C39.586 12.2467 39.5301 12.3696 39.4775 12.4869C39.1864 13.1366 39.0638 13.4832 39.0439 13.7232C39.0336 13.8471 39.0397 13.9362 39.2221 14.1163C39.2713 14.1649 39.3479 14.2129 39.5406 14.2023C39.7564 14.1904 40.0578 14.1022 40.4159 13.9106C41.0147 13.59 41.5836 13.0834 41.9382 12.6179ZM6.89436 2.88075C6.72496 2.54197 6.3787 2.32796 5.99992 2.32796C5.62115 2.32797 5.27489 2.54197 5.1055 2.88076C4.57493 3.94191 4.40097 4.26273 4.16782 4.49588C3.93468 4.72903 3.61387 4.90299 2.55272 5.43356C2.21394 5.60295 1.99994 5.94922 1.99994 6.32799C1.99994 6.70676 2.21394 7.05302 2.55272 7.22241C3.61387 7.75299 3.93468 7.92695 4.16783 8.16009C4.40098 8.39324 4.57494 8.71406 5.10551 9.7752C5.2749 10.114 5.62116 10.328 5.99994 10.328C6.37871 10.328 6.72497 10.114 6.89436 9.7752C7.42494 8.71406 7.5989 8.39324 7.83204 8.16009C8.06519 7.92695 8.386 7.75299 9.44715 7.22241C9.78593 7.05302 9.99994 6.70676 9.99994 6.32799C9.99994 5.94922 9.78593 5.60295 9.44715 5.43356C8.38601 4.90299 8.06519 4.72903 7.83204 4.49588C7.59889 4.26272 7.42493 3.9419 6.89436 2.88075ZM5.58205 5.91009C5.7352 5.75693 5.8716 5.58953 5.99994 5.40533C6.12827 5.58952 6.26467 5.75693 6.41783 5.91008C6.57098 6.06324 6.73839 6.19964 6.92259 6.32799C6.73839 6.45633 6.57098 6.59273 6.41783 6.74588C6.26468 6.89903 6.12828 7.06644 5.99994 7.25064C5.8716 7.06644 5.7352 6.89903 5.58204 6.74588C5.42889 6.59273 5.26148 6.45633 5.07729 6.32799C5.26148 6.19965 5.42889 6.06324 5.58205 5.91009ZM14.4999 6.328C13.1192 6.328 11.9999 7.44728 11.9999 8.828C11.9999 10.2087 13.1192 11.328 14.4999 11.328C15.8806 11.328 16.9999 10.2087 16.9999 8.82799C16.9999 7.44728 15.8806 6.328 14.4999 6.328ZM13.9999 8.828C13.9999 8.55185 14.2238 8.328 14.4999 8.328C14.7761 8.328 14.9999 8.55185 14.9999 8.828C14.9999 9.10414 14.7761 9.328 14.4999 9.328C14.2238 9.328 13.9999 9.10414 13.9999 8.828ZM31.9999 20.828C30.6192 20.828 29.4999 21.9473 29.4999 23.328C29.4999 24.7087 30.6192 25.828 31.9999 25.828C33.3806 25.828 34.4999 24.7087 34.4999 23.328C34.4999 21.9473 33.3806 20.828 31.9999 20.828ZM31.4999 23.328C31.4999 23.0519 31.7238 22.828 31.9999 22.828C32.2761 22.828 32.4999 23.0519 32.4999 23.328C32.4999 23.6041 32.2761 23.828 31.9999 23.828C31.7238 23.828 31.4999 23.6041 31.4999 23.328ZM49.8944 44.8808C49.725 44.542 49.3787 44.328 48.9999 44.328C48.6212 44.328 48.2749 44.542 48.1055 44.8808C47.6357 45.8205 47.1929 46.4708 46.6678 46.9959C46.1428 47.521 45.4924 47.9637 44.5527 48.4336C44.214 48.603 44 48.9492 44 49.328C44 49.7068 44.214 50.0531 44.5527 50.2224C45.4924 50.6923 46.1428 51.135 46.6678 51.6601C47.1929 52.1852 47.6357 52.8355 48.1055 53.7752C48.2749 54.114 48.6212 54.328 49 54.328C49.3787 54.328 49.725 54.114 49.8944 53.7752C50.3642 52.8355 50.807 52.1852 51.3321 51.6601C51.8571 51.135 52.5075 50.6923 53.4472 50.2224C53.786 50.0531 54 49.7068 54 49.328C54 48.9492 53.786 48.603 53.4472 48.4336C52.5075 47.9637 51.8571 47.521 51.3321 46.9959C50.807 46.4708 50.3642 45.8205 49.8944 44.8808ZM48.0821 48.4101C48.4197 48.0725 48.7209 47.7079 48.9999 47.3075C49.279 47.7079 49.5802 48.0725 49.9178 48.4101C50.2554 48.7477 50.6201 49.049 51.0205 49.328C50.6201 49.6071 50.2554 49.9083 49.9178 50.2459C49.5802 50.5835 49.279 50.9482 49 51.3485C48.7209 50.9482 48.4197 50.5835 48.0821 50.2459C47.7445 49.9083 47.3798 49.6071 46.9794 49.328C47.3798 49.049 47.7445 48.7477 48.0821 48.4101ZM3.61741 35.7276L2.54758 36.9757C2.20191 37.379 2.25294 37.9871 2.66098 38.3271C3.06109 38.6606 3.65483 38.6107 3.99378 38.2153L5.08082 36.9471L3.61741 35.7276ZM6.41628 35.4565C10.2721 31.4236 13.9035 28.8974 16.6996 27.809C16.6206 27.6489 16.5308 27.4747 16.4335 27.2916C16.2174 26.8849 15.9747 26.4541 15.751 26.0687C12.8295 27.295 10.0742 29.3722 7.96894 31.2453C6.83253 32.2564 5.90228 33.1929 5.25719 33.8755C5.13984 33.9997 5.03202 34.1154 4.9342 34.2215L6.41628 35.4565ZM17.674 25.4008C17.8509 25.7112 18.0321 26.0378 18.1997 26.3531C18.3631 26.6607 18.519 26.9678 18.6464 27.2445C20.7277 26.8434 22.3788 27.1714 23.5479 27.7834C23.6438 27.8336 23.7524 27.8508 23.8333 27.8412C23.8705 27.8368 23.8916 27.8281 23.9002 27.8236L23.9043 27.8212L23.9059 27.8202L23.9061 27.8199L26.7106 24.2141C27.0284 23.8055 27.6054 23.7069 28.0407 23.9868L31.7364 26.3626C33.429 27.4507 35.5068 27.3825 36.8667 26.1243C38.5064 24.6071 40.4471 22.4753 41.7745 19.952C42.7185 18.1574 43.3389 16.1927 43.3424 14.1172L39.8891 19.2971C38.4386 21.4728 35.5566 22.1635 33.2775 20.8815L31.3712 19.8091C30.1236 19.1074 28.5541 19.3847 27.6226 20.4715L24.1732 24.4958C23.6594 25.0952 22.8792 25.3006 22.1835 25.1601C20.7288 24.8664 19.2084 24.9846 17.674 25.4008ZM17.0097 28.5319L17.0085 28.5266C17.0094 28.5303 17.0097 28.532 17.0097 28.5319ZM20.7861 52.5828L21.8562 51.3002L23.3018 52.5407L22.2488 53.803C21.9085 54.2108 21.3004 54.2615 20.8973 53.9157C20.502 53.5765 20.4525 52.9827 20.7861 52.5828ZM24.8557 50.616C24.7528 50.7524 24.6566 50.8779 24.5683 50.992L23.1041 49.7357C26.4405 45.2635 28.3283 41.2629 28.9371 38.3248C29.1082 38.3762 29.2949 38.4357 29.4916 38.5012C29.9285 38.6468 30.3936 38.8146 30.8108 38.9712C30.0869 42.0557 28.4963 45.1179 26.999 47.505C26.1907 48.7936 25.4217 49.8665 24.8557 50.616ZM30.1236 36.6037C29.7931 36.4937 29.4644 36.391 29.1704 36.3113L27.729 31.2205L27.7292 31.2203C27.7433 31.2049 27.7569 31.1892 27.77 31.173L30.2932 28.0552C30.5903 28.1859 30.9561 28.3438 31.3392 28.5022C31.6361 28.6249 31.9483 28.75 32.2498 28.8636L30.9631 30.4042L30.9628 30.4046C30.457 31.0109 30.3841 31.8143 30.6382 32.477C31.1695 33.8628 31.3055 35.3817 31.15 36.9639C30.8145 36.8411 30.4624 36.7166 30.1236 36.6037Z" fill="white"/>
</svg>
