<svg width="56" height="57" viewBox="0 0 56 57" fill="none" xmlns="http://www.w3.org/2000/svg">
<path fill-rule="evenodd" clip-rule="evenodd" d="M7.89435 2.88079C7.72496 2.542 7.3787 2.328 6.99992 2.328C6.62115 2.328 6.27489 2.54201 6.1055 2.8808C5.63566 3.82049 5.19291 4.47083 4.66783 4.99592C4.14275 5.521 3.49241 5.96376 2.55273 6.4336C2.21394 6.60299 1.99994 6.94925 1.99994 7.32803C1.99994 7.7068 2.21394 8.05306 2.55273 8.22245C3.49241 8.69229 4.14275 9.13505 4.66783 9.66013C5.19291 10.1852 5.63567 10.8356 6.10551 11.7752C6.2749 12.114 6.62116 12.328 6.99994 12.328C7.37871 12.328 7.72497 12.114 7.89436 11.7752C8.3642 10.8356 8.80696 10.1852 9.33204 9.66013C9.85713 9.13505 10.5075 8.69229 11.4471 8.22245C11.7859 8.05306 11.9999 7.7068 11.9999 7.32803C11.9999 6.94925 11.7859 6.60299 11.4471 6.4336C10.5075 5.96376 9.85713 5.521 9.33204 4.99592C8.80696 4.47083 8.3642 3.82048 7.89435 2.88079ZM6.08205 6.41013C6.41964 6.07253 6.72087 5.70788 6.99993 5.30749C7.279 5.70788 7.58023 6.07253 7.91783 6.41013C8.25542 6.74773 8.62007 7.04896 9.02046 7.32803C8.62008 7.60709 8.25542 7.90832 7.91783 8.24592C7.58023 8.58352 7.279 8.94817 6.99994 9.34855C6.72087 8.94817 6.41964 8.58352 6.08204 8.24592C5.74445 7.90832 5.3798 7.60709 4.97942 7.32803C5.3798 7.04896 5.74445 6.74773 6.08205 6.41013ZM50.8944 41.8808C50.725 41.542 50.3787 41.328 49.9999 41.328C49.6212 41.328 49.2749 41.542 49.1055 41.8808C48.5749 42.942 48.401 43.2628 48.1678 43.4959C47.9347 43.7291 47.6139 43.903 46.5527 44.4336C46.2139 44.603 45.9999 44.9493 45.9999 45.328C45.9999 45.7068 46.2139 46.0531 46.5527 46.2225C47.6139 46.753 47.9347 46.927 48.1678 47.1601C48.401 47.3933 48.5749 47.7141 49.1055 48.7752C49.2749 49.114 49.6212 49.328 49.9999 49.328C50.3787 49.328 50.725 49.114 50.8944 48.7752C51.4249 47.7141 51.5989 47.3933 51.8321 47.1601C52.0652 46.927 52.386 46.753 53.4472 46.2225C53.7859 46.0531 53.9999 45.7068 53.9999 45.328C53.9999 44.9493 53.7859 44.603 53.4472 44.4336C52.386 43.903 52.0652 43.7291 51.8321 43.4959C51.5989 43.2628 51.4249 42.9419 50.8944 41.8808ZM49.5821 44.9101C49.7352 44.757 49.8716 44.5896 49.9999 44.4054C50.1283 44.5896 50.2647 44.757 50.4178 44.9101C50.571 45.0633 50.7384 45.1997 50.9226 45.328C50.7384 45.4564 50.571 45.5928 50.4178 45.7459C50.2647 45.8991 50.1283 46.0665 49.9999 46.2507C49.8716 46.0665 49.7352 45.8991 49.5821 45.7459C49.4289 45.5928 49.2615 45.4564 49.0773 45.328C49.2615 45.1997 49.4289 45.0633 49.5821 44.9101ZM46.9999 51.828C46.9999 50.4473 45.8807 49.328 44.4999 49.328C43.1192 49.328 41.9999 50.4473 41.9999 51.828C41.9999 53.2087 43.1192 54.328 44.4999 54.328C45.8807 54.328 46.9999 53.2087 46.9999 51.828ZM43.9999 51.828C43.9999 51.5519 44.2238 51.328 44.4999 51.328C44.7761 51.328 44.9999 51.5519 44.9999 51.828C44.9999 52.1041 44.7761 52.328 44.4999 52.328C44.2238 52.328 43.9999 52.1041 43.9999 51.828ZM27.9788 8.62954C26.9813 8.62954 26.0238 8.46459 25.0613 8.24318C24.7085 8.16201 24.3299 8.06634 23.9446 7.96899L23.9446 7.96897L23.9445 7.96896C23.3453 7.81753 22.7299 7.66202 22.1699 7.5506C20.184 7.15543 18.0969 7.12355 16.0065 8.86039C15.1507 9.57144 14.396 10.4019 13.7597 11.661C13.1347 12.8976 12.644 14.5079 12.2466 16.7546L12.2466 16.7546C11.9249 18.5734 11.8423 21.9033 12.4675 25.8684C12.5418 26.3395 12.6953 27.0268 12.8231 27.5713C12.8883 27.8489 12.9491 28.099 12.9936 28.2795C13.0159 28.3699 13.0341 28.4431 13.0469 28.4938L13.0616 28.5526L13.0656 28.5682L13.0666 28.5723L13.0669 28.5734L13.067 28.5738L13.067 28.5739L14.0363 28.328L13.067 28.5739C13.1434 28.875 13.3554 29.1235 13.6407 29.2464L14.0363 28.328C13.6407 29.2464 13.6408 29.2465 13.6411 29.2466L13.6416 29.2468L13.6432 29.2475L13.6484 29.2497L13.6662 29.2573L13.7314 29.2847C13.7879 29.3082 13.87 29.3421 13.9762 29.3847C14.1883 29.47 14.4965 29.5907 14.8871 29.7349C14.9523 29.7589 15.0197 29.7836 15.0894 29.8089L16.0298 33.5705C16.1003 33.8525 16.29 34.0899 16.5495 34.2208L16.9999 33.328C16.5495 34.2208 16.5498 34.2209 16.5501 34.2211L16.5509 34.2215L16.5527 34.2224L16.5573 34.2247L16.5711 34.2315C16.5822 34.237 16.5971 34.2442 16.616 34.2532C16.6536 34.2712 16.7067 34.2959 16.775 34.3265C16.9116 34.3877 17.109 34.4722 17.3654 34.5722C17.7712 34.7304 18.325 34.9273 19.0194 35.1315C18.9147 35.652 19.2369 36.168 19.7574 36.2981L20.1662 36.4004L20.6607 39.3409C20.1597 39.2587 19.6682 39.5684 19.534 40.0692C19.3911 40.6026 19.7076 41.151 20.2411 41.2939L21.0245 41.5038L21.4993 44.3277C21.0726 44.3279 20.6774 44.6033 20.5446 45.0324C20.3814 45.56 20.6767 46.1201 21.2043 46.2833L21.8624 46.487L22.5803 50.7558C22.9072 52.6997 24.9025 53.678 26.613 53.2724C27.119 53.1525 27.5907 53.0789 27.9661 53.078C28.353 53.077 28.8409 53.1527 29.3627 53.2764C31.0716 53.6818 33.0626 52.7045 33.3921 50.765L33.4862 50.2112L33.6854 50.2773C34.2097 50.451 34.7755 50.1668 34.9492 49.6425C35.1229 49.1183 34.8387 48.5524 34.3145 48.3788L33.825 48.2166L34.3407 45.1802L34.7265 45.2899C35.2578 45.4409 35.8108 45.1327 35.9618 44.6014C36.1128 44.0702 35.8046 43.5171 35.2733 43.3661L34.6776 43.1968L35.1939 40.1573L35.7574 40.2981C36.2932 40.4321 36.8361 40.1063 36.9701 39.5705C37.104 39.0347 36.7783 38.4918 36.2425 38.3579L35.5299 38.1797L35.9858 35.4955C35.9919 35.4597 35.996 35.4241 35.9982 35.3887C36.1231 35.3574 36.2448 35.326 36.3633 35.2945C37.3424 35.0347 38.0998 34.7734 38.6187 34.5739C38.8781 34.4742 39.078 34.3899 39.2162 34.329C39.2854 34.2985 39.3391 34.2739 39.3771 34.256C39.3882 34.2508 39.3981 34.2462 39.4065 34.2421C39.4125 34.2393 39.4177 34.2368 39.4224 34.2346L39.4361 34.2279L39.4408 34.2256L39.4425 34.2247L39.4433 34.2244C39.4436 34.2242 39.4439 34.224 38.9999 33.328L39.4439 34.224C39.7066 34.0939 39.899 33.855 39.9701 33.5705L40.8737 29.956C41.1024 29.8802 41.3138 29.8084 41.5065 29.7417C41.9214 29.5981 42.2497 29.478 42.4758 29.3933C42.5888 29.3509 42.6764 29.3173 42.7364 29.294L42.8055 29.267L42.8242 29.2596L42.8295 29.2575L42.8311 29.2569L42.8317 29.2567C42.8319 29.2566 42.832 29.2565 42.4608 28.328L42.832 29.2565C43.1667 29.1227 43.4035 28.8191 43.4518 28.4619L42.4608 28.328L43.4518 28.4619L43.4518 28.4618L43.4518 28.4615L43.452 28.4605L43.4525 28.4566L43.4545 28.4414L43.4623 28.3837L43.4904 28.1718C43.514 27.993 43.5464 27.7454 43.5813 27.4705C43.6506 26.9253 43.7321 26.2567 43.7745 25.8065C44.1254 22.0869 44.038 18.603 43.7109 16.7545C43.3122 14.5014 42.8024 12.8884 42.1574 11.6501C41.502 10.392 40.7303 9.56557 39.8816 8.86039L39.2425 9.62954L39.8816 8.86038C37.803 7.13333 35.7335 7.16477 33.7612 7.55777C33.2091 7.66778 32.6002 7.8216 32.0068 7.97148L32.0068 7.97148L32.0068 7.97149C31.621 8.06896 31.2417 8.16476 30.889 8.24577C29.9317 8.4656 28.9767 8.62954 27.9788 8.62954ZM38.6406 30.6422C38.4645 30.6922 38.2842 30.7425 38.1001 30.7927C35.3129 31.5534 31.5951 32.328 27.9788 32.328C24.3593 32.328 20.7736 31.5523 18.1147 30.7892C17.8467 30.7123 17.5877 30.6354 17.3385 30.5592L17.8518 32.6125C17.9227 32.6418 18.0027 32.6741 18.0918 32.7088C18.541 32.8839 19.2204 33.1222 20.1156 33.3621C21.9057 33.8418 24.5595 34.328 27.9636 34.328C31.3678 34.328 34.0405 33.8417 35.8503 33.3615C36.7552 33.1213 37.4444 32.8826 37.9011 32.7071C37.9932 32.6717 38.0759 32.6388 38.1489 32.6091L38.6406 30.6422ZM15.5797 27.8586C15.3004 27.7555 15.0668 27.6656 14.8848 27.5938C14.8505 27.4525 14.8112 27.2888 14.7702 27.1141C14.6414 26.5658 14.5044 25.9454 14.4431 25.5569L13.4553 25.7126L14.4431 25.5569C13.8432 21.7527 13.942 18.6525 14.216 17.1029C14.5955 14.9577 15.0417 13.5582 15.5447 12.5631C16.0362 11.5905 16.6003 10.9673 17.2847 10.3987C18.7188 9.20707 20.0862 9.17519 21.7796 9.51214C22.314 9.61847 22.8168 9.74639 23.3576 9.88399L23.3577 9.88401L23.3577 9.88402C23.7477 9.98324 24.1574 10.0875 24.6129 10.1923C25.6395 10.4284 26.7641 10.6295 27.9788 10.6295C29.1929 10.6295 30.3143 10.4298 31.3366 10.195C31.7942 10.09 32.2041 9.98565 32.5938 9.8865L32.5939 9.88649C33.1277 9.75066 33.6236 9.6245 34.152 9.51922C35.8301 9.18486 37.1804 9.2163 38.6035 10.3987C39.2949 10.9732 39.8765 11.6004 40.3836 12.574C40.9011 13.5674 41.363 14.9641 41.7415 17.103C42.0253 18.7069 42.1253 21.9936 41.7834 25.6187C41.7443 26.0329 41.6667 26.672 41.5973 27.2184C41.5798 27.3557 41.563 27.4861 41.5477 27.6043C41.3597 27.6732 41.1262 27.7569 40.8522 27.8518C40.0567 28.1272 38.9222 28.4952 37.5735 28.8633C34.8643 29.6026 31.3411 30.328 27.9788 30.328C24.6195 30.328 21.234 29.6037 18.6664 28.8668C17.3875 28.4998 16.3227 28.1329 15.5797 27.8586ZM23.1482 42.0729L23.6305 44.9405L28.2592 46.3727L28.2781 46.3788L31.9044 47.5802L32.4055 44.6302L27.6974 43.292L23.1482 42.0729ZM31.4203 50.4301L31.5656 49.5749L27.6585 48.2804L24.0019 47.1489L24.5526 50.4241C24.6532 51.0224 25.3536 51.5156 26.1516 51.3264C26.7251 51.1904 27.3659 51.0795 27.9611 51.078C28.5736 51.0765 29.235 51.1906 29.8243 51.3304C30.6195 51.519 31.3188 51.0278 31.4203 50.4301ZM28.237 41.3661L32.7424 42.6467L33.2479 39.6708L22.2833 36.9296L22.7836 39.9047L28.2224 41.3621L28.237 41.3661ZM28.1217 36.3277L33.5839 37.6932L33.9001 35.8315C32.2891 36.1118 30.3519 36.3183 28.1217 36.3277ZM22.0001 15.328C22.5523 15.328 23.0001 15.7757 23.0001 16.328V17.7126C23.0001 18.2649 22.5523 18.7126 22.0001 18.7126C21.4478 18.7126 21.0001 18.2649 21.0001 17.7126V16.328C21.0001 15.7757 21.4478 15.328 22.0001 15.328ZM34.0001 15.328C34.5523 15.328 35.0001 15.7757 35.0001 16.328V17.7126C35.0001 18.2649 34.5523 18.7126 34.0001 18.7126C33.4478 18.7126 33.0001 18.2649 33.0001 17.7126V16.328C33.0001 15.7757 33.4478 15.328 34.0001 15.328ZM22.5548 22.496L22.5544 22.4957L22.5543 22.4957L22.5539 22.4954C22.0944 22.1898 21.4742 22.3141 21.168 22.7733C20.8617 23.2328 20.9858 23.8537 21.4454 24.1601L22.0001 23.328C21.4454 24.1601 21.4456 24.1602 21.4458 24.1603L21.4462 24.1606L21.4474 24.1614L21.4506 24.1635L21.4602 24.1699L21.4924 24.1908C21.5194 24.2082 21.5577 24.2326 21.6065 24.263C21.704 24.3237 21.8437 24.4082 22.0195 24.5087C22.3706 24.7093 22.8697 24.9755 23.4689 25.2418C24.6499 25.7667 26.2985 26.328 28.0001 26.328C29.7016 26.328 31.3502 25.7667 32.5312 25.2418C33.1304 24.9755 33.6295 24.7093 33.9806 24.5087C34.1564 24.4082 34.2961 24.3237 34.3936 24.263C34.4424 24.2326 34.4807 24.2082 34.5078 24.1908L34.5399 24.1699L34.5495 24.1635L34.5527 24.1614L34.5539 24.1606L34.5544 24.1603C34.5546 24.1602 34.5548 24.1601 34.0001 23.328L34.5548 24.1601C35.0143 23.8537 35.1385 23.2328 34.8321 22.7733C34.5258 22.3139 33.9052 22.1897 33.4457 22.4957L33.4454 22.496L33.4428 22.4976L33.4235 22.5102C33.4052 22.522 33.3761 22.5405 33.337 22.5649C33.2587 22.6136 33.1406 22.6853 32.9883 22.7723C32.6831 22.9467 32.2447 23.1805 31.7189 23.4142C30.6499 23.8893 29.2985 24.328 28.0001 24.328C26.7016 24.328 25.3502 23.8893 24.2812 23.4142C23.7554 23.1805 23.317 22.9467 23.0118 22.7723C22.8596 22.6853 22.7414 22.6136 22.6631 22.5649C22.624 22.5405 22.5949 22.522 22.5766 22.5102L22.5573 22.4976L22.5548 22.496Z" fill="white"/>
</svg>
