<svg width="24" height="25" viewBox="0 0 24 25" fill="none" xmlns="http://www.w3.org/2000/svg">
<path d="M2.00004 7.66787C2.52677 4.66788 3.27083 3.55613 4.31521 2.68201C6.70514 0.68167 9.00003 2.68201 12 2.68201C15 2.68201 17.2634 0.694655 19.6378 2.68201C20.6822 3.55613 21.4731 4.66787 22 7.66786C22.2072 8.847 22.2707 11.1594 22.0358 13.6679C21.5735 18.6052 20 24.1679 16 23.6127C13.5398 23.2713 15 18.6679 12 18.6679C9.00003 18.6679 10.4603 23.2713 8.00004 23.6127C4.00005 24.1679 2.75072 18.5616 2.13478 13.6679C1.81587 11.134 1.79995 8.80747 2.00004 7.66787Z" fill="url(#paint0_linear_7746_42340)"/>
<defs>
<linearGradient id="paint0_linear_7746_42340" x1="12.0272" y1="1.7927" x2="12.0272" y2="23.6512" gradientUnits="userSpaceOnUse">
<stop stop-color="#00BDD6"/>
<stop offset="1" stop-color="#06A8BD"/>
</linearGradient>
</defs>
</svg>
