<svg width="24" height="25" viewBox="0 0 24 25" fill="none" xmlns="http://www.w3.org/2000/svg">
<path fill-rule="evenodd" clip-rule="evenodd" d="M10.0955 1.42649C10.7376 1.5753 11.3594 1.68197 12 1.68197C12.6411 1.68197 13.2613 1.57593 13.8997 1.42823C14.1225 1.3767 14.3733 1.31296 14.6329 1.24701C15.0445 1.14243 15.4781 1.03226 15.8567 0.956271C16.5272 0.821686 17.2591 0.73618 18.0197 0.855676C18.799 0.978107 19.5524 1.30651 20.2796 1.91513C20.8804 2.41797 21.4336 3.01421 21.9012 3.91837C22.3584 4.80261 22.7115 5.9382 22.9849 7.49482C23.2134 8.79539 23.2707 11.2057 23.0314 13.7611C22.7963 16.2725 22.273 19.0399 21.2423 21.1404C20.7249 22.1948 20.0481 23.1469 19.153 23.7966C18.2316 24.4654 17.1245 24.7784 15.8625 24.6032C14.8497 24.4626 14.2405 23.8484 13.8767 23.1668C13.5907 22.6308 13.4217 21.9813 13.2886 21.4698C13.2705 21.4002 13.253 21.3331 13.236 21.2693C13.0723 20.6537 12.9349 20.2495 12.7409 19.9874C12.6073 19.8069 12.4351 19.6678 12 19.6678C11.5649 19.6678 11.3927 19.8069 11.2591 19.9874C11.065 20.2495 10.9277 20.6537 10.764 21.2693C10.747 21.3331 10.7295 21.4002 10.7114 21.4698C10.5783 21.9813 10.4093 22.6308 10.1233 23.1668C9.75951 23.8484 9.15032 24.4626 8.13746 24.6032C6.87311 24.7787 5.77791 24.4618 4.87747 23.7773C4.00765 23.116 3.37061 22.1523 2.88899 21.0996C1.9305 19.0045 1.4512 16.2448 1.14257 13.7927C0.819321 11.2244 0.789219 8.78122 1.01507 7.4949C1.28726 5.94459 1.6269 4.81176 2.06965 3.92927C2.52372 3.02421 3.06551 2.42386 3.67333 1.91513C4.40485 1.30285 5.16336 0.973066 5.94742 0.850148C6.71281 0.730158 7.44984 0.815955 8.12533 0.951351C8.50955 1.02836 8.94737 1.13966 9.36275 1.24525C9.62187 1.31112 9.87226 1.37477 10.0955 1.42649ZM6.25717 2.82602C5.84503 2.89063 5.42044 3.06092 4.957 3.44882C4.52044 3.81421 4.16801 4.20679 3.85728 4.82614C3.53523 5.46805 3.23946 6.39108 2.98493 7.84077C2.81061 8.83366 2.81232 11.0435 3.12691 13.543C3.43422 15.9845 3.88755 18.4749 4.7077 20.2676C5.1154 21.1587 5.57919 21.7984 6.08787 22.1851C6.56592 22.5486 7.12688 22.7243 7.86253 22.6222C8.07978 22.592 8.21064 22.5028 8.3588 22.2252C8.52554 21.9128 8.63094 21.5134 8.77647 20.9619C8.79406 20.8953 8.81224 20.8264 8.83118 20.7552C8.98491 20.1772 9.19879 19.4092 9.65159 18.7975C10.1648 18.1041 10.9351 17.6678 12 17.6678C13.0649 17.6678 13.8352 18.1041 14.3484 18.7975C14.8012 19.4092 15.0151 20.1772 15.1688 20.7552C15.1878 20.8264 15.2059 20.8953 15.2235 20.9619C15.369 21.5134 15.4744 21.9128 15.6412 22.2252C15.7893 22.5028 15.9202 22.592 16.1375 22.6222C16.8755 22.7246 17.4651 22.5504 17.9782 22.178C18.5175 21.7866 19.013 21.1435 19.4468 20.2594C20.3184 18.483 20.813 16.0005 21.0401 13.5746C21.2706 11.1131 21.2009 8.89855 21.0151 7.84083C20.7615 6.39746 20.4557 5.47719 20.1246 4.83703C19.8039 4.21679 19.4395 3.8201 18.9959 3.44882C18.5359 3.06376 18.116 2.89532 17.7093 2.83144C17.284 2.76462 16.8174 2.80333 16.2503 2.91716C15.8956 2.98835 15.576 3.07042 15.2241 3.1608C14.9605 3.22849 14.6787 3.30085 14.3505 3.37677C13.6466 3.5396 12.8589 3.68197 12 3.68197C11.1406 3.68197 10.3505 3.53861 9.64394 3.37486C9.31748 3.29921 9.03575 3.22687 8.7718 3.15909C8.41501 3.06747 8.09069 2.98419 7.73227 2.91235C7.1603 2.7977 6.688 2.75847 6.25717 2.82602Z" fill="#CCDDE9"/>
</svg>
