<svg width="24" height="6" viewBox="0 0 24 6" fill="none" xmlns="http://www.w3.org/2000/svg">
<path fill-rule="evenodd" clip-rule="evenodd" d="M0 5.00101C0 5.55329 0.447715 6.00101 1 6.00101C3.2059 6.00101 4.35051 4.6932 5.21094 3.71009C5.22567 3.69326 5.24032 3.67652 5.25489 3.65989C6.14215 2.6469 6.74784 2.00101 8 2.00101C9.31739 2.00101 10.1768 2.71994 11.3362 3.74893C11.3598 3.76987 11.3835 3.79095 11.4074 3.81215C12.4908 4.77458 13.8713 6.00101 16 6.00101C18.2013 6.00101 19.3461 4.69428 20.2064 3.71223C20.2216 3.6948 20.2368 3.67748 20.2519 3.66026C21.1399 2.64748 21.7474 2.00101 23 2.00101C23.5523 2.00101 24 1.55329 24 1.00101C24 0.448722 23.5523 0.00100708 23 0.00100708C20.7987 0.00100708 19.6539 1.30774 18.7936 2.28978C18.7784 2.30721 18.7632 2.32454 18.7481 2.34175C17.8601 3.35453 17.2526 4.00101 16 4.00101C14.6826 4.00101 13.8232 3.28207 12.6638 2.25308C12.6402 2.23215 12.6165 2.21107 12.5926 2.18986C11.5092 1.22743 10.1287 0.00100708 8 0.00100708C5.79919 0.00100708 4.65609 1.30721 3.79695 2.28894C3.78134 2.30678 3.76582 2.32451 3.75039 2.34213C2.86413 3.35398 2.25634 4.00101 1 4.00101C0.447715 4.00101 0 4.44872 0 5.00101Z" fill="#00BDD6"/>
</svg>
