<svg width="24" height="25" viewBox="0 0 24 25" fill="none" xmlns="http://www.w3.org/2000/svg">
<path fill-rule="evenodd" clip-rule="evenodd" d="M13.7474 3.3376C14.1143 3.75038 14.0771 4.38246 13.6644 4.74937L5.5052 12.002L13.6644 19.2546C14.0771 19.6215 14.1143 20.2535 13.7474 20.6663C13.3805 21.0791 12.7484 21.1163 12.3356 20.7494L3.33564 12.7494C3.12215 12.5596 3 12.2876 3 12.002C3 11.7163 3.12215 11.4443 3.33564 11.2546L12.3356 3.25455C12.7484 2.88764 13.3805 2.92482 13.7474 3.3376ZM18 11.002C17.4477 11.002 17 11.4497 17 12.002C17 12.5542 17.4477 13.002 18 13.002C18.5523 13.002 19 12.5542 19 12.002C19 11.4497 18.5523 11.002 18 11.002ZM15.1707 11.002C15.5825 9.83677 16.6938 9.00196 18 9.00196C19.6569 9.00196 21 10.3451 21 12.002C21 13.6588 19.6569 15.002 18 15.002C16.6938 15.002 15.5825 14.1672 15.1707 13.002H11C10.4477 13.002 10 12.5542 10 12.002C10 11.4497 10.4477 11.002 11 11.002H15.1707Z" fill="#00BDD6"/>
</svg>
