<svg width="24" height="25" viewBox="0 0 24 25" fill="none" xmlns="http://www.w3.org/2000/svg">
<path fill-rule="evenodd" clip-rule="evenodd" d="M10.2526 3.3376C10.6195 2.92482 11.2516 2.88764 11.6644 3.25455L20.6644 11.2546C20.8779 11.4443 21 11.7163 21 12.002C21 12.2876 20.8779 12.5596 20.6644 12.7494L11.6644 20.7494C11.2516 21.1163 10.6195 21.0791 10.2526 20.6663C9.88567 20.2535 9.92285 19.6215 10.3356 19.2546L18.4948 12.002L10.3356 4.74937C9.92285 4.38246 9.88567 3.75038 10.2526 3.3376ZM6 11.002C5.44772 11.002 5 11.4497 5 12.002C5 12.5542 5.44772 13.002 6 13.002C6.55228 13.002 7 12.5542 7 12.002C7 11.4497 6.55228 11.002 6 11.002ZM3 12.002C3 10.3451 4.34315 9.00196 6 9.00196C7.30622 9.00196 8.41746 9.83677 8.82929 11.002H13C13.5523 11.002 14 11.4497 14 12.002C14 12.5542 13.5523 13.002 13 13.002H8.82929C8.41746 14.1672 7.30622 15.002 6 15.002C4.34315 15.002 3 13.6588 3 12.002Z" fill="#00BDD6"/>
</svg>
