<svg width="24" height="24" viewBox="0 0 24 24" fill="none" xmlns="http://www.w3.org/2000/svg">
<path fill-rule="evenodd" clip-rule="evenodd" d="M7.00049 3C4.79135 3 3.00049 4.79086 3.00049 7V17C3.00049 19.2091 4.79135 21 7.00049 21H17.0005C19.2096 21 21.0005 19.2091 21.0005 17V7C21.0005 4.79086 19.2096 3 17.0005 3H7.00049ZM1.00049 7C1.00049 3.68629 3.68678 1 7.00049 1H17.0005C20.3142 1 23.0005 3.68629 23.0005 7V17C23.0005 20.3137 20.3142 23 17.0005 23H7.00049C3.68678 23 1.00049 20.3137 1.00049 17V7ZM12.4838 8.98918C11.8596 8.89663 11.2221 9.00324 10.662 9.29386C10.1019 9.58449 9.64775 10.0443 9.36405 10.608C9.08035 11.1716 8.98161 11.8103 9.08186 12.4333C9.1821 13.0563 9.47624 13.6319 9.92243 14.0781C10.3686 14.5242 10.9441 14.8184 11.5671 14.9186C12.1901 15.0189 12.8289 14.9201 13.3925 14.6364C13.9562 14.3527 14.416 13.8985 14.7066 13.3384C14.9972 12.7783 15.1039 12.1409 15.0113 11.5167C14.9169 10.88 14.6202 10.2905 14.1651 9.83541C13.7099 9.38028 13.1205 9.0836 12.4838 8.98918ZM9.7409 7.51862C10.6744 7.03424 11.7369 6.85655 12.7772 7.01082C13.8383 7.16817 14.8207 7.66265 15.5793 8.4212C16.3378 9.17975 16.8323 10.1622 16.9897 11.2233C17.1439 12.2636 16.9662 13.3261 16.4819 14.2596C15.9975 15.1931 15.2311 15.9501 14.2917 16.4229C13.3523 16.8957 12.2877 17.0603 11.2494 16.8932C10.2111 16.7262 9.25187 16.2359 8.50822 15.4923C7.76457 14.7486 7.27434 13.7894 7.10726 12.7511C6.94018 11.7128 7.10475 10.6482 7.57758 9.70878C8.05041 8.76938 8.8074 8.00299 9.7409 7.51862ZM17.5005 5.5C16.9482 5.5 16.5005 5.94772 16.5005 6.5C16.5005 7.05228 16.9482 7.5 17.5005 7.5H17.5105C18.0628 7.5 18.5105 7.05228 18.5105 6.5C18.5105 5.94772 18.0628 5.5 17.5105 5.5H17.5005Z" fill="white"/>
</svg>
