<svg width="24" height="24" viewBox="0 0 24 24" fill="none" xmlns="http://www.w3.org/2000/svg">
<path d="M11.3985 0.00195461C9.47346 0.0279546 5.33146 0.343955 3.01446 2.46695C1.29446 4.17695 0.693461 6.69795 0.623461 9.81995C0.563461 12.93 0.493462 18.77 6.12346 20.361V22.781C6.12346 22.781 6.08546 23.751 6.72546 23.951C7.51546 24.201 7.96546 23.452 8.71546 22.652L10.1155 21.072C13.9655 21.392 16.9155 20.653 17.2555 20.543C18.0355 20.293 22.4365 19.732 23.1565 13.891C23.8965 7.85995 22.7965 4.05995 20.8165 2.33995L20.8065 2.33795C20.2065 1.78795 17.8065 0.0379546 12.4365 0.0179546C12.4365 0.0179546 12.0405 -0.00704539 11.3985 0.00195461ZM11.4655 1.69895C12.0105 1.69595 12.3455 1.71895 12.3455 1.71895C16.8855 1.72895 19.0565 3.09895 19.5665 3.55895C21.2365 4.98795 22.0945 8.41496 21.4665 13.451C20.8665 18.331 17.2965 18.641 16.6365 18.851C16.3565 18.941 13.7565 19.581 10.4845 19.371C10.4845 19.371 8.04546 22.312 7.28546 23.072C7.16546 23.202 7.02546 23.242 6.93546 23.222C6.80546 23.192 6.76546 23.032 6.77546 22.812L6.79546 18.793C2.02446 17.473 2.30446 12.491 2.35446 9.89095C2.41446 7.29095 2.90446 5.15895 4.35446 3.71895C6.31146 1.94895 9.82946 1.70895 11.4645 1.69895H11.4655ZM11.8255 4.29895C11.7861 4.29882 11.7471 4.30646 11.7107 4.32143C11.6743 4.33639 11.6413 4.3584 11.6134 4.38618C11.5855 4.41395 11.5634 4.44696 11.5483 4.4833C11.5332 4.51964 11.5255 4.55861 11.5255 4.59795C11.5255 4.67752 11.5571 4.75383 11.6133 4.81009C11.6696 4.86635 11.7459 4.89795 11.8255 4.89795C12.5689 4.88377 13.3078 5.01697 13.9995 5.28988C14.6912 5.56278 15.322 5.96997 15.8555 6.48795C16.9455 7.54795 17.4765 8.96795 17.4965 10.828C17.4965 10.8674 17.5042 10.9064 17.5193 10.9428C17.5344 10.9792 17.5565 11.0122 17.5843 11.0401C17.6122 11.0679 17.6453 11.09 17.6817 11.1051C17.7181 11.1202 17.7571 11.128 17.7965 11.128V11.119C17.876 11.119 17.9523 11.0873 18.0086 11.0311C18.0649 10.9748 18.0965 10.8985 18.0965 10.819C18.1336 9.94424 17.9922 9.07113 17.681 8.25279C17.3699 7.43446 16.8954 6.68802 16.2865 6.05895C15.0965 4.89895 13.5955 4.29895 11.8255 4.29895ZM7.87146 4.98895C7.6588 4.95865 7.44213 5.00093 7.25646 5.10895H7.24446C6.83446 5.34895 6.45646 5.64895 6.09646 6.04895C5.82646 6.36895 5.67546 6.68795 5.63546 6.99795C5.61193 7.17977 5.62901 7.36453 5.68546 7.53895L5.70546 7.54895C6.01369 8.4551 6.41588 9.32651 6.90546 10.149C7.54007 11.3008 8.31977 12.3665 9.22546 13.32L9.25546 13.36L9.29546 13.39L9.32546 13.42L9.35546 13.45C10.3127 14.3579 11.3812 15.1409 12.5355 15.78C13.8555 16.5 14.6575 16.84 15.1375 16.98V16.99C15.2775 17.03 15.4055 17.05 15.5355 17.05C15.9452 17.0201 16.3331 16.8539 16.6375 16.578C17.0275 16.228 17.3375 15.84 17.5675 15.43V15.42C17.7975 14.99 17.7175 14.579 17.3875 14.299C16.7224 13.7172 16.0023 13.2014 15.2375 12.759C14.7275 12.479 14.2075 12.649 13.9975 12.929L13.5475 13.498C13.3175 13.778 12.8975 13.738 12.8975 13.738L12.8855 13.748C9.76546 12.948 8.93546 9.78895 8.93546 9.78895C8.93546 9.78895 8.89546 9.35895 9.18546 9.13895L9.74546 8.68895C10.0155 8.46895 10.2055 7.94895 9.91546 7.43895C9.47361 6.67369 8.95781 5.95358 8.37546 5.28895C8.24879 5.13185 8.06996 5.0254 7.87146 4.98895ZM12.3445 5.87895C12.2649 5.87922 12.1887 5.91108 12.1326 5.96753C12.0765 6.02398 12.0452 6.10039 12.0455 6.17995C12.0457 6.25952 12.0776 6.33572 12.134 6.39179C12.1905 6.44787 12.2669 6.47922 12.3465 6.47895C13.3472 6.49633 14.3002 6.90989 14.9965 7.62895C15.3106 7.97547 15.5521 8.38142 15.7066 8.82284C15.8612 9.26425 15.9258 9.73217 15.8965 10.199C15.8967 10.2783 15.9284 10.3544 15.9847 10.4104C16.0409 10.4665 16.1171 10.498 16.1965 10.498L16.2065 10.51C16.2459 10.51 16.285 10.5022 16.3215 10.487C16.358 10.4719 16.3911 10.4497 16.4189 10.4217C16.4468 10.3938 16.4689 10.3606 16.4839 10.3241C16.4989 10.2876 16.5066 10.2484 16.5065 10.209C16.5365 9.01895 16.1665 8.01895 15.4365 7.21895C14.7065 6.41895 13.6865 5.96896 12.3865 5.87895C12.3725 5.87797 12.3584 5.87797 12.3445 5.87895ZM12.8345 7.49795C12.7943 7.49677 12.7544 7.5035 12.7169 7.51777C12.6793 7.53203 12.645 7.55354 12.6158 7.58107C12.5866 7.6086 12.5631 7.64162 12.5467 7.67823C12.5302 7.71484 12.5211 7.75434 12.52 7.79445C12.5188 7.83457 12.5255 7.87453 12.5398 7.91205C12.554 7.94957 12.5755 7.98391 12.6031 8.01311C12.6306 8.04232 12.6636 8.06581 12.7002 8.08226C12.7368 8.0987 12.7763 8.10777 12.8165 8.10895C13.8065 8.15895 14.2865 8.65895 14.3465 9.68895C14.3491 9.76677 14.3818 9.84053 14.4378 9.89465C14.4938 9.94877 14.5686 9.979 14.6465 9.97895H14.6565C14.6968 9.9777 14.7364 9.96834 14.773 9.95144C14.8096 9.93453 14.8424 9.91042 14.8694 9.88056C14.8965 9.85069 14.9173 9.81567 14.9305 9.7776C14.9437 9.73952 14.9492 9.69917 14.9465 9.65895C14.8765 8.31895 14.1465 7.56796 12.8465 7.49795C12.8425 7.49788 12.8385 7.49788 12.8345 7.49795Z" fill="white"/>
</svg>
