<svg width="24" height="24" viewBox="0 0 24 24" fill="none" xmlns="http://www.w3.org/2000/svg">
<path fill-rule="evenodd" clip-rule="evenodd" d="M12.0005 1C5.92123 1 1.00294 5.987 1.0005 11.9996L1.0005 12C1.0005 13.8219 1.60154 15.5983 2.42102 17.1182L1.04267 21.7127C0.936962 22.065 1.03326 22.447 1.29339 22.7071C1.55352 22.9672 1.93548 23.0635 2.28785 22.9578L6.89377 21.576C8.3098 22.3152 9.89066 22.9546 11.9789 22.9998C18.0892 23.1318 23.0005 18.055 23.0005 12C23.0005 5.92487 18.0756 1 12.0005 1ZM12.0005 3C7.03421 3 3.00272 7.08323 3.0005 12L3.0005 12.0004C3.0006 13.5161 3.55115 15.092 4.36586 16.4989C4.50416 16.7377 4.53762 17.023 4.45832 17.2873L3.49197 20.5085L6.71315 19.5422C6.96803 19.4657 7.24288 19.494 7.47686 19.6207C8.87898 20.3804 10.2175 20.9612 12.0221 21.0002C16.9549 21.1068 21.0005 16.9906 21.0005 12C21.0005 7.02944 16.9711 3 12.0005 3ZM11.5529 15.3726C12.6337 16.0652 15.3042 17.7552 16.5613 16.6155C17.1021 16.1251 17.1583 14.3748 16.6472 13.7788C16.2386 13.3021 14.7595 12.9222 14.0956 13.0621C13.7285 13.1395 13.4479 13.4431 13.1894 13.7229C13.1191 13.7989 13.0505 13.8732 12.9822 13.9407C11.7483 13.2474 10.7267 12.2378 10.0251 11.0184C10.0934 10.9509 10.1686 10.8831 10.2455 10.8137C10.5285 10.5584 10.8358 10.2812 10.9142 9.91813C11.0554 9.26375 10.6711 7.80638 10.1945 7.40139C9.56831 6.86918 7.93399 6.83645 7.33653 7.48326C6.29122 8.6149 7.96088 11.4817 8.59586 12.4503C9.35254 13.6271 10.3621 14.6248 11.5529 15.3726Z" fill="white"/>
</svg>
