<svg width="24" height="24" viewBox="0 0 24 24" fill="none" xmlns="http://www.w3.org/2000/svg">
<path fill-rule="evenodd" clip-rule="evenodd" d="M12.0005 4C12.0005 3 12.0004 3 12.0004 3H12.0001L11.999 3L11.995 3L11.9796 3.00001L11.9206 3.00011C11.869 3.00023 11.7934 3.00046 11.6968 3.00091C11.5036 3.00182 11.2261 3.00363 10.8879 3.00724C10.2119 3.01448 9.29152 3.02895 8.31579 3.05794C7.34167 3.08689 6.30439 3.13054 5.39712 3.19671C4.51782 3.26085 3.67578 3.35123 3.14213 3.49395L3.12826 3.49777C2.50211 3.67492 1.96852 3.96245 1.44405 4.50315C0.919577 5.04384 0.648423 5.58593 0.490421 6.21719C0.48501 6.23881 0.480324 6.2606 0.47637 6.28253C0.151061 8.08643 -0.00823384 9.91636 0.000480364 11.7493C-0.0107701 13.5961 0.148538 15.44 0.476377 17.2575C0.482235 17.29 0.489698 17.3222 0.498737 17.3539C0.672907 17.9655 0.951607 18.487 1.47521 19.0052C1.9988 19.5234 2.52323 19.7967 3.13658 19.9645L3.13657 19.9646L3.14213 19.966C3.67578 20.1088 4.51782 20.1992 5.39713 20.2633C6.30439 20.3295 7.34167 20.3731 8.31579 20.4021C9.29152 20.4311 10.2119 20.4455 10.8879 20.4528C11.2261 20.4564 11.5036 20.4582 11.6968 20.4591C11.7934 20.4595 11.869 20.4598 11.9206 20.4599L11.9796 20.46L11.995 20.46L11.999 20.46H12.0001H12.0004C12.0004 20.46 12.0005 20.46 12.0005 19.46C12.0005 20.46 12.0006 20.46 12.0006 20.46H12.0009H12.002L12.006 20.46L12.0214 20.46L12.0804 20.4599C12.132 20.4598 12.2076 20.4595 12.3042 20.4591C12.4974 20.4582 12.7749 20.4564 13.1131 20.4528C13.7891 20.4455 14.7095 20.4311 15.6852 20.4021C16.6593 20.3731 17.6966 20.3295 18.6039 20.2633C19.4832 20.1992 20.3252 20.1088 20.8589 19.966L20.8727 19.9622C21.4989 19.7851 22.0325 19.4975 22.5569 18.9569C23.0814 18.4162 23.3526 17.8741 23.5106 17.2428C23.516 17.2212 23.5207 17.1994 23.5246 17.1774C23.8475 15.3869 24.0067 13.5707 24.0005 11.7513C24.0118 9.90432 23.8525 8.06021 23.5246 6.24249C23.5207 6.22057 23.516 6.19879 23.5106 6.17719C23.3526 5.54593 23.0814 5.00384 22.5569 4.46315C22.0325 3.92245 21.4989 3.63492 20.8727 3.45777C20.8611 3.45448 20.8494 3.45141 20.8377 3.44854C20.312 3.32017 19.4772 3.23798 18.5976 3.1794C17.6921 3.11909 16.6562 3.07928 15.6826 3.05287C14.7076 3.02641 13.7878 3.01321 13.1121 3.00661C12.7741 3.00331 12.4968 3.00166 12.3038 3.00083C12.2072 3.00042 12.1317 3.00021 12.0802 3.0001L12.0213 3.00001L12.006 3L12.002 3L12.0009 3H12.0006C12.0006 3 12.0005 3 12.0005 4ZM12.0005 4L12.0005 5H12.0007H12.0015L12.005 5L12.0193 5.00001L12.0762 5.0001L12.2952 5.00081C12.4851 5.00162 12.7587 5.00325 13.0926 5.00651C13.7607 5.01304 14.6684 5.02609 15.6284 5.05213C16.5898 5.07822 17.5964 5.11716 18.4647 5.17498C19.3437 5.23352 20.0064 5.3073 20.3461 5.38734C20.6519 5.47591 20.8663 5.5927 21.1214 5.85566C21.373 6.11511 21.4837 6.33064 21.5627 6.6325C21.8647 8.31923 22.0113 10.0301 22.0005 11.7437H22.0005L22.0005 11.7536C22.0066 13.4414 21.86 15.1262 21.5627 16.7875C21.4837 17.0894 21.373 17.3049 21.1214 17.5643C20.8633 17.8304 20.6469 17.9468 20.3354 18.0357C20.0068 18.1223 19.3467 18.2038 18.4584 18.2686C17.5919 18.3318 16.5867 18.3744 15.6258 18.4029C14.6665 18.4314 13.7594 18.4457 13.0917 18.4529C12.758 18.4564 12.4845 18.4582 12.2948 18.4591C12.1999 18.4596 12.126 18.4598 12.076 18.4599L12.0192 18.46L12.005 18.46L12.0015 18.46H12.0007H12.0005H12.0003H11.9995L11.996 18.46L11.9818 18.46L11.925 18.4599C11.875 18.4598 11.8011 18.4596 11.7062 18.4591C11.5164 18.4582 11.243 18.4564 10.9093 18.4529C10.2416 18.4457 9.33447 18.4314 8.3752 18.4029C7.41432 18.3744 6.4091 18.3318 5.54262 18.2686C4.65059 18.2035 3.9888 18.1217 3.66152 18.0347C3.35407 17.9502 3.14092 17.8399 2.88207 17.5837C2.6351 17.3393 2.52133 17.1351 2.4353 16.8506C2.13531 15.1693 1.98975 13.4641 2.00048 11.7563H2.00054L2.00048 11.7451C1.99208 10.0444 2.13864 8.34651 2.43833 6.67248C2.51733 6.37063 2.62797 6.15511 2.87963 5.89566C3.13767 5.62965 3.35407 5.51322 3.66557 5.42427C3.99424 5.33765 4.65425 5.25621 5.54262 5.19141C6.4091 5.12821 7.41432 5.08561 8.3752 5.05706C9.33447 5.02855 10.2416 5.01427 10.9093 5.00713C11.243 5.00356 11.5165 5.00178 11.7062 5.00089C11.8011 5.00044 11.875 5.00022 11.925 5.00011L11.9818 5.00001L11.996 5L11.9995 5L12.0003 5H12.0005L12.0005 4ZM10.2448 7.61073C9.9353 7.4347 9.55549 7.43655 9.24768 7.61561C8.93986 7.79466 8.75049 8.1239 8.75049 8.48V15.02C8.75049 15.3761 8.93986 15.7053 9.24768 15.8844C9.55549 16.0634 9.9353 16.0653 10.2448 15.8893L15.9948 12.6193C16.3074 12.4415 16.5005 12.1096 16.5005 11.75C16.5005 11.3904 16.3074 11.0585 15.9948 10.8807L10.2448 7.61073ZM13.4776 11.75L10.7505 13.3009V10.1991L13.4776 11.75Z" fill="white"/>
</svg>
