<svg width="56" height="57" viewBox="0 0 56 57" fill="none" xmlns="http://www.w3.org/2000/svg">
<path fill-rule="evenodd" clip-rule="evenodd" d="M9.00011 4.66699C9.37889 4.66699 9.72515 4.88099 9.89455 5.21978C10.3644 6.15947 10.8071 6.80982 11.3322 7.3349C11.8573 7.85999 12.5077 8.30274 13.4473 8.77259C13.7861 8.94198 14.0001 9.28824 14.0001 9.66701C14.0001 10.0458 13.7861 10.392 13.4473 10.5614C12.5077 11.0313 11.8573 11.474 11.3322 11.9991C10.8072 12.5242 10.3644 13.1745 9.89456 14.1142C9.72516 14.453 9.3789 14.667 9.00013 14.667C8.62136 14.667 8.27509 14.453 8.1057 14.1142C7.63586 13.1745 7.1931 12.5242 6.66802 11.9991C6.14294 11.474 5.4926 11.0313 4.55291 10.5614C4.21413 10.392 4.00013 10.0458 4.00013 9.66701C4.00013 9.28824 4.21413 8.94198 4.55291 8.77259C5.4926 8.30274 6.14294 7.85999 6.66802 7.33491C7.1931 6.80982 7.63585 6.15948 8.10569 5.21979C8.27508 4.881 8.62134 4.66699 9.00011 4.66699ZM9.00012 7.64648C8.72106 8.04687 8.41983 8.41152 8.08224 8.74912C7.74464 9.08671 7.37999 9.38795 6.97961 9.66701C7.37999 9.94608 7.74464 10.2473 8.08223 10.5849C8.41983 10.9225 8.72106 11.2872 9.00013 11.6875C9.2792 11.2872 9.58043 10.9225 9.91802 10.5849C10.2556 10.2473 10.6203 9.94608 11.0206 9.66701C10.6203 9.38795 10.2556 9.08671 9.91802 8.74912C9.58042 8.41152 9.27919 8.04687 9.00012 7.64648ZM2.00013 22.667L1.05627 22.9974C0.876665 22.4842 1.13994 21.9216 1.649 21.7307C3.48624 21.0417 5.44087 20.0777 7.51176 19.0563C7.63096 18.9975 7.75055 18.9385 7.87053 18.8794C10.0532 17.8037 12.3506 16.6856 14.6604 15.8515C19.0542 14.2648 23.7241 13.6253 27.9631 16.4186C31.7689 13.6074 36.2468 14.2832 40.5897 15.8515C42.7526 16.6325 44.9653 17.665 47.1316 18.6759C47.2705 18.7407 47.4092 18.8055 47.5477 18.87C49.8665 19.9511 52.1289 20.9892 54.3164 21.7183C54.5704 21.803 54.7799 21.9861 54.8979 22.2265C55.0158 22.4669 55.0325 22.7446 54.944 22.9974L54.0001 22.667C54.944 22.9974 54.9438 22.9978 54.9436 22.9984L54.9431 22.9998L54.9416 23.0041L54.9366 23.0182L54.9188 23.0675C54.9033 23.1097 54.8808 23.1704 54.8511 23.2482C54.7917 23.4038 54.7034 23.6284 54.5849 23.9119C54.348 24.4789 53.99 25.283 53.5009 26.2452C52.5238 28.1673 51.017 30.7331 48.8965 33.3034C44.6547 38.4449 37.8972 43.667 28.0001 43.667C18.103 43.667 11.3455 38.4449 7.1038 33.3034C4.98328 30.7331 3.47641 28.1673 2.49934 26.2452C2.01021 25.283 1.65225 24.4789 1.41534 23.9119C1.29685 23.6284 1.20852 23.4038 1.14912 23.2482C1.11941 23.1704 1.09693 23.1097 1.08151 23.0675L1.06365 23.0182L1.05866 23.0041L1.05714 22.9998L1.05663 22.9984C1.05644 22.9978 1.05627 22.9974 2.00013 22.667ZM51.9582 24.8577C51.8823 25.0127 51.8022 25.1732 51.7181 25.3389C50.7889 27.1668 49.3582 29.601 47.3537 32.0306C43.3454 36.8892 37.1029 41.667 28.0001 41.667C18.8973 41.667 12.6548 36.8892 8.64655 32.0306C6.64205 29.601 5.2114 27.1668 4.2822 25.3389C4.20092 25.179 4.12352 25.0238 4.04996 24.8738C7.24226 26.2447 10.1319 26.3484 12.7442 26.0349C13.721 25.9177 14.6639 25.7412 15.5579 25.5557L15.8917 27.2244C16.047 28.0009 16.6459 28.6127 17.419 28.7845L20.2102 29.4048C20.5945 29.4902 20.9754 29.459 21.3179 29.336C21.6413 29.838 22.1843 30.1879 22.8189 30.2456L26.4634 30.5769C27.0475 30.63 27.5981 30.4259 28 30.0557C28.402 30.4259 28.9526 30.63 29.5367 30.5769L33.1811 30.2456C33.8157 30.1879 34.3587 29.838 34.6821 29.336C35.0246 29.459 35.4056 29.4902 35.7898 29.4048L38.581 28.7845C39.3541 28.6127 39.953 28.0009 40.1083 27.2244L40.4161 25.6855C41.1727 25.8221 41.9584 25.9463 42.7646 26.0359C45.5684 26.3474 48.6697 26.2473 51.9582 24.8577ZM38.453 25.3032C38.2705 25.2663 38.0905 25.2299 37.9133 25.1945C36.8475 24.9813 35.8891 24.8038 35.0144 24.7196L35.356 27.4524L38.1472 26.8321L38.453 25.3032ZM33 24.7141C31.6723 24.8414 30.6564 25.2069 29.9473 25.5614C29.5276 25.7713 29.2135 25.9784 29.0053 26.1321L29.3556 28.5851L33 28.2538V24.7141ZM27.9864 24.402C28.2604 24.2115 28.6159 23.9911 29.0528 23.7726C30.1751 23.2115 31.8272 22.667 34 22.667C35.3629 22.667 36.8302 22.9383 38.3055 23.2333C38.492 23.2706 38.679 23.3084 38.8667 23.3463C40.1939 23.6143 41.5543 23.8891 42.9855 24.0481C45.6628 24.3456 48.5329 24.23 51.5784 22.84C49.9497 22.1895 48.3124 21.4333 46.7026 20.6827C46.5715 20.6216 46.4406 20.5606 46.3099 20.4996C44.1207 19.4782 41.9851 18.4817 39.9104 17.7326C35.4891 16.136 31.7179 15.7974 28.6509 18.4263C28.2951 18.7313 27.7751 18.7482 27.4001 18.467C23.8051 15.7708 19.7247 16.1491 15.3397 17.7326C13.1496 18.5234 10.947 19.5929 8.75469 20.6734C8.62516 20.7372 8.49561 20.8011 8.36607 20.865C7.00319 21.5373 5.64126 22.2092 4.31088 22.7974C7.33746 24.2317 10.0299 24.3463 12.5059 24.0491C13.7912 23.8949 15.0078 23.6315 16.2178 23.3696C16.4246 23.3248 16.6313 23.2801 16.8381 23.2359C18.2257 22.9397 19.6324 22.667 21 22.667C23.6377 22.667 25.5263 23.1955 26.7812 23.7532C27.286 23.9776 27.685 24.2052 27.9864 24.402ZM27.2962 26.3773L27.2986 26.3796L27.3013 26.3822L27.3015 26.3825C27.3014 26.3824 27.3011 26.3821 27.3006 26.3816C27.3 26.3811 27.2992 26.3804 27.2982 26.3794C27.2923 26.374 27.2788 26.3617 27.2575 26.3436C27.2389 26.3279 27.2144 26.3077 27.1838 26.2836M26.9933 26.1439L26.6444 28.5851L23 28.2538V24.79C24.3099 24.9591 25.285 25.2769 25.9689 25.5808C26.4388 25.7897 26.7759 25.994 26.9933 26.1439ZM20.9922 24.667C19.9326 24.668 18.7975 24.8676 17.5138 25.1372L17.8528 26.8321L20.644 27.4524L20.9922 24.667ZM27.2962 26.3773C27.2961 26.3772 27.296 26.3771 27.296 26.3771L27.2961 26.3772L27.2962 26.3773ZM7.33153 26.9233C7.74228 26.5541 8.37454 26.5878 8.74374 26.9985C10.706 29.1817 13.7724 30.8586 17.2756 31.9883C20.7653 33.1138 24.599 33.667 28.0001 33.667C31.4013 33.667 35.2349 33.1138 38.7245 31.9883C42.2277 30.8586 45.294 29.1817 47.2563 26.9985C47.6255 26.5878 48.2577 26.5541 48.6685 26.9233C49.0792 27.2925 49.1129 27.9248 48.7437 28.3355C46.4563 30.8805 43.0227 32.7036 39.3384 33.8918C35.6406 35.0843 31.5991 35.667 28.0001 35.667C24.4011 35.667 20.3596 35.0843 16.6617 33.8918C12.9773 32.7036 9.54374 30.8805 7.25628 28.3355C6.88708 27.9248 6.92077 27.2925 7.33153 26.9233ZM48 40.667C48.3788 40.667 48.725 40.881 48.8944 41.2198C49.425 42.2809 49.599 42.6018 49.8321 42.8349C50.0653 43.0681 50.3861 43.242 51.4472 43.7726C51.786 43.942 52 44.2882 52 44.667C52 45.0458 51.786 45.3921 51.4472 45.5615C50.3861 46.092 50.0653 46.266 49.8321 46.4991C49.599 46.7323 49.425 47.0531 48.8944 48.1142C48.725 48.453 48.3788 48.667 48 48.667C47.6212 48.667 47.275 48.453 47.1056 48.1142C46.575 47.0531 46.401 46.7323 46.1679 46.4991C45.9348 46.266 45.6139 46.092 44.5528 45.5615C44.214 45.3921 44 45.0458 44 44.667C44 44.2882 44.214 43.942 44.5528 43.7726C45.6139 43.242 45.9348 43.0681 46.1679 42.8349C46.401 42.6018 46.575 42.2809 47.1056 41.2198C47.275 40.881 47.6212 40.667 48 40.667ZM48 43.7444C47.8717 43.9286 47.7353 44.096 47.5821 44.2491C47.429 44.4023 47.2616 44.5387 47.0774 44.667C47.2616 44.7954 47.429 44.9318 47.5821 45.0849C47.7353 45.2381 47.8717 45.4055 48 45.5897C48.1283 45.4055 48.2647 45.2381 48.4179 45.0849C48.5711 44.9318 48.7385 44.7954 48.9227 44.667C48.7385 44.5387 48.5711 44.4023 48.4179 44.2491C48.2647 44.096 48.1283 43.9286 48 43.7444ZM37.5 50.167C37.5 48.7863 38.6193 47.667 40 47.667C41.3807 47.667 42.5 48.7863 42.5 50.167C42.5 51.5477 41.3807 52.667 40 52.667C38.6193 52.667 37.5 51.5477 37.5 50.167ZM40 49.667C39.7239 49.667 39.5 49.8909 39.5 50.167C39.5 50.4432 39.7239 50.667 40 50.667C40.2761 50.667 40.5 50.4432 40.5 50.167C40.5 49.8909 40.2761 49.667 40 49.667Z" fill="url(#paint0_linear_7746_4609)"/>
<defs>
<linearGradient id="paint0_linear_7746_4609" x1="28" y1="4.66641" x2="28" y2="52.667" gradientUnits="userSpaceOnUse">
<stop stop-color="#00BDD6"/>
<stop offset="1" stop-color="#06A8BD"/>
</linearGradient>
</defs>
</svg>
