<svg width="57" height="57" viewBox="0 0 57 57" fill="none" xmlns="http://www.w3.org/2000/svg">
<path fill-rule="evenodd" clip-rule="evenodd" d="M47.3333 4.66699C47.7121 4.66699 48.0583 4.88099 48.2277 5.21978C48.6976 6.15947 49.1403 6.80982 49.6654 7.33491C50.1905 7.85999 50.8408 8.30275 51.7805 8.77259C52.1193 8.94198 52.3333 9.28824 52.3333 9.66702C52.3333 10.0458 52.1193 10.3921 51.7805 10.5614C50.8408 11.0313 50.1905 11.474 49.6654 11.9991C49.1403 12.5242 48.6976 13.1745 48.2277 14.1142C48.0584 14.453 47.7121 14.667 47.3333 14.667C46.9545 14.667 46.6083 14.453 46.4389 14.1142C45.969 13.1745 45.5263 12.5242 45.0012 11.9991C44.4761 11.474 43.8258 11.0313 42.8861 10.5614C42.5473 10.3921 42.3333 10.0458 42.3333 9.66702C42.3333 9.28824 42.5473 8.94198 42.8861 8.77259C43.8258 8.30275 44.4761 7.85999 45.0012 7.33491C45.5263 6.80982 45.969 6.15948 46.4389 5.21979C46.6083 4.881 46.9545 4.66699 47.3333 4.66699ZM47.3333 7.64648C47.0542 8.04687 46.753 8.41152 46.4154 8.74912C46.0778 9.08671 45.7132 9.38795 45.3128 9.66702C45.7132 9.94608 46.0778 10.2473 46.4154 10.5849C46.753 10.9225 47.0543 11.2872 47.3333 11.6875C47.6124 11.2872 47.9136 10.9225 48.2512 10.5849C48.5888 10.2473 48.9535 9.94608 49.3538 9.66702C48.9535 9.38795 48.5888 9.08671 48.2512 8.74912C47.9136 8.41152 47.6124 8.04687 47.3333 7.64648ZM4.33331 40.167C4.33331 38.7863 5.4526 37.667 6.83331 37.667C8.21403 37.667 9.33331 38.7863 9.33331 40.167C9.33331 41.5477 8.21403 42.667 6.83331 42.667C5.45259 42.667 4.33331 41.5477 4.33331 40.167ZM6.83331 39.667C6.55717 39.667 6.33331 39.8909 6.33331 40.167C6.33331 40.4432 6.55718 40.667 6.83331 40.667C7.10945 40.667 7.33331 40.4432 7.33331 40.167C7.33331 39.8909 7.10945 39.667 6.83331 39.667ZM12.3333 44.667C12.7121 44.667 13.0583 44.881 13.2277 45.2198C13.7583 46.2809 13.9323 46.6018 14.1654 46.8349C14.3986 47.0681 14.7194 47.242 15.7805 47.7726C16.1193 47.942 16.3333 48.2882 16.3333 48.667C16.3333 49.0458 16.1193 49.3921 15.7805 49.5615C14.7194 50.092 14.3986 50.266 14.1654 50.4991C13.9323 50.7323 13.7583 51.0531 13.2277 52.1142C13.0584 52.453 12.7121 52.667 12.3333 52.667C11.9545 52.667 11.6083 52.453 11.4389 52.1142C10.9083 51.0531 10.7344 50.7323 10.5012 50.4991C10.2681 50.266 9.94724 50.092 8.8861 49.5615C8.54732 49.3921 8.33331 49.0458 8.33331 48.667C8.33331 48.2882 8.54732 47.942 8.8861 47.7726C9.94725 47.242 10.2681 47.0681 10.5012 46.8349C10.7344 46.6018 10.9083 46.2809 11.4389 45.2198C11.6083 44.881 11.9545 44.667 12.3333 44.667ZM12.3333 47.7444C12.205 47.9286 12.0686 48.096 11.9154 48.2491C11.7623 48.4023 11.5949 48.5387 11.4107 48.667C11.5949 48.7954 11.7623 48.9318 11.9154 49.0849C12.0686 49.2381 12.205 49.4055 12.3333 49.5897C12.4617 49.4055 12.5981 49.2381 12.7512 49.0849C12.9044 48.9318 13.0718 48.7954 13.256 48.667C13.0718 48.5387 12.9044 48.4023 12.7512 48.2491C12.5981 48.096 12.4617 47.9286 12.3333 47.7444ZM25.3946 10.5822C26.3571 10.8036 27.3146 10.9686 28.3121 10.9685C29.31 10.9685 30.265 10.8046 31.2223 10.5848C31.575 10.5038 31.9543 10.408 32.3401 10.3105C32.9335 10.1606 33.5424 10.0068 34.0945 9.89679C36.0669 9.50379 38.1363 9.47234 40.2149 11.1994L39.5759 11.9685L40.2149 11.1994C41.0636 11.9046 41.8354 12.731 42.4907 13.9891C43.1358 15.2274 43.6456 16.8405 44.0442 19.0935C44.3713 20.942 44.4587 24.4259 44.1079 28.1456C44.0654 28.5958 43.9839 29.2643 43.9147 29.8095C43.8797 30.0844 43.8474 30.332 43.8238 30.5108L43.7956 30.7227L43.7879 30.7804L43.7858 30.7956L43.7853 30.7995L43.7852 30.8006L43.7851 30.8008L43.7851 30.8009C43.7368 31.1582 43.5 31.4617 43.1654 31.5955L42.7941 30.667C43.1654 31.5955 43.1652 31.5956 43.165 31.5957L43.1644 31.5959L43.1628 31.5966L43.1575 31.5987L43.1389 31.606L43.0697 31.6331C43.0097 31.6563 42.9222 31.6899 42.8091 31.7323C42.5831 31.817 42.2547 31.9371 41.8398 32.0807C41.0104 32.3679 39.8328 32.7498 38.4334 33.1317C35.6462 33.8924 31.9285 34.667 28.3121 34.667C24.6926 34.667 21.1069 33.8913 18.448 33.1282C17.1136 32.7452 16.0012 32.3621 15.2205 32.0739C14.8299 31.9297 14.5217 31.809 14.3095 31.7237C14.2034 31.6811 14.1212 31.6473 14.0648 31.6237L13.9995 31.5963L13.9817 31.5887L13.9766 31.5865L13.975 31.5858L13.9744 31.5856C13.9742 31.5855 13.974 31.5854 14.3696 30.667C13.4003 30.9129 13.4003 30.9129 13.4003 30.9129L13.4003 30.9128L13.4002 30.9124L13.3999 30.9113L13.3989 30.9072L13.395 30.8916L13.3802 30.8328C13.3675 30.7821 13.3492 30.7089 13.327 30.6185C13.2825 30.438 13.2216 30.1879 13.1565 29.9103C13.0286 29.3658 12.8751 28.6785 12.8009 28.2074C12.1756 24.2423 12.2583 20.9124 12.5799 19.0936L12.5799 19.0936C12.9773 16.8469 13.4681 15.2366 14.093 14C14.7293 12.7409 15.4841 11.9104 16.3399 11.1994C18.4302 9.46256 20.5173 9.49444 22.5033 9.88961C23.0632 10.001 23.6787 10.1566 24.2779 10.308C24.6632 10.4053 25.0418 10.501 25.3946 10.5822ZM14.3696 30.667L13.974 31.5854C13.6887 31.4625 13.4767 31.214 13.4003 30.9129L14.3696 30.667ZM15.2182 29.9328C15.4001 30.0046 15.6337 30.0945 15.9131 30.1976C16.6561 30.4719 17.7209 30.8388 18.9997 31.2058C21.5673 31.9427 24.9529 32.667 28.3121 32.667C31.6744 32.667 35.1977 31.9417 37.9068 31.2023C39.2556 30.8342 40.39 30.4662 41.1856 30.1908C41.4595 30.0959 41.6931 30.0122 41.881 29.9433C41.8964 29.8251 41.9132 29.6947 41.9306 29.5574C42 29.011 42.0777 28.3719 42.1167 27.9577C42.4586 24.3326 42.3586 21.046 42.0748 19.442C41.6963 17.3031 41.2344 15.9064 40.7169 14.913C40.2098 13.9395 39.6282 13.3122 38.9368 12.7377C37.5137 11.5553 36.1634 11.5239 34.4853 11.8582C33.957 11.9635 33.461 12.0897 32.9271 12.2255L32.9271 12.2255C32.5374 12.3247 32.1275 12.429 31.6699 12.534C30.6476 12.7688 29.5262 12.9685 28.3121 12.9685C27.0974 12.9686 25.9728 12.7674 24.9462 12.5313C24.4907 12.4265 24.081 12.3223 23.6911 12.223C23.1502 12.0854 22.6474 11.9575 22.113 11.8512C20.4196 11.5142 19.0522 11.5461 17.618 12.7377C16.9336 13.3063 16.3696 13.9295 15.878 14.9021C15.3751 15.8972 14.9288 17.2967 14.5494 19.4419C14.2753 20.9915 14.1766 24.0917 14.7764 27.8959C14.8377 28.2844 14.9747 28.9048 15.1035 29.4531C15.1445 29.6278 15.1838 29.7915 15.2182 29.9328ZM29.9495 36.4094C31.5485 35.995 33.4118 36.8015 33.913 38.5557L34.2938 39.8886L34.3866 39.8675L34.4667 39.8491C34.6631 39.8036 34.8179 39.7658 34.9226 39.7397C34.9749 39.7267 35.0147 39.7165 35.0409 39.7098L35.0698 39.7023L35.0763 39.7006L35.0775 39.7003L35.0776 39.7002L35.0776 39.7002C35.6115 39.5591 36.1588 39.8774 36.3 40.4112C36.4413 40.9452 36.123 41.4925 35.589 41.6338L35.3333 40.667C35.589 41.6338 35.5889 41.6338 35.5888 41.6338L35.5885 41.6339L35.5876 41.6341L35.5847 41.6349L35.5749 41.6375L35.5392 41.6467C35.5084 41.6546 35.4639 41.666 35.4066 41.6803C35.292 41.7088 35.1263 41.7492 34.9181 41.7975L34.844 41.8145L35.1393 42.8482C36.0428 42.648 36.8954 42.4272 37.6735 42.2053C38.9611 41.8382 40.034 41.4712 40.7829 41.1968C41.1572 41.0597 41.4499 40.9459 41.6475 40.8671C41.7463 40.8277 41.8213 40.797 41.8707 40.7766L41.9254 40.7538L41.938 40.7485L41.9405 40.7474L41.9407 40.7473C42.4485 40.5305 43.036 40.7663 43.253 41.2741C43.47 41.782 43.2342 42.3696 42.7263 42.5866L42.3334 41.667C42.7263 42.5866 42.7261 42.5867 42.7259 42.5868L42.7253 42.587L42.7237 42.5877L42.7186 42.5899L42.7007 42.5974L42.635 42.6248C42.5781 42.6483 42.4954 42.6821 42.3885 42.7248C42.1748 42.81 41.8643 42.9306 41.471 43.0747C40.6846 43.3628 39.5647 43.7458 38.2219 44.1287C35.5465 44.8915 31.9416 45.667 28.3121 45.667C24.6821 45.667 21.0965 44.8914 18.4397 44.1281C17.1065 43.7451 15.996 43.3619 15.2168 43.0736C14.827 42.9294 14.5194 42.8087 14.3078 42.7234C14.2019 42.6807 14.1199 42.6469 14.0636 42.6233L13.9985 42.5959L13.9807 42.5883L13.9756 42.5861L13.9739 42.5854L13.9734 42.5852C13.9732 42.5851 13.973 42.585 14.3696 41.667L13.973 42.585C13.466 42.3659 13.2326 41.7773 13.4517 41.2703C13.6707 40.7635 14.2591 40.5301 14.7661 40.7489L14.7663 40.749L14.7663 40.7491L14.7687 40.7501L14.7811 40.7554L14.835 40.7781C14.8838 40.7985 14.9578 40.8291 15.0555 40.8684C15.2508 40.9472 15.5403 41.0609 15.9107 41.1979C16.652 41.4721 17.7146 41.8389 18.992 42.2059C19.769 42.4291 20.6215 42.6512 21.526 42.8524L21.8226 41.8145L21.7485 41.7975C21.5402 41.7492 21.3746 41.7088 21.26 41.6803C21.2027 41.666 21.1581 41.6546 21.1273 41.6467L21.0917 41.6375L21.0819 41.6349L21.079 41.6341L21.0781 41.6339L21.0777 41.6338C21.0776 41.6338 21.0775 41.6338 21.3333 40.667L21.0775 41.6338C20.5436 41.4925 20.2253 40.9452 20.3665 40.4112C20.5078 39.8774 21.055 39.5591 21.5889 39.7002L21.5889 39.7002L21.589 39.7003L21.5902 39.7006L21.5967 39.7023L21.6257 39.7098C21.6518 39.7165 21.6916 39.7267 21.7439 39.7397C21.8486 39.7658 22.0034 39.8036 22.1999 39.8491C22.2544 39.8617 22.3121 39.8749 22.3728 39.8887L22.7531 38.5579C23.2547 36.8022 25.1202 35.997 26.7194 36.4124C27.308 36.5653 27.8741 36.6659 28.3146 36.667C28.7658 36.6682 29.3471 36.5655 29.9495 36.4094ZM23.7888 42.2128L23.496 43.2375C25.0415 43.4968 26.6786 43.667 28.3121 43.667C29.9558 43.667 31.6079 43.4947 33.1692 43.2326L32.8778 42.2127C31.5543 42.446 29.8934 42.667 28.3333 42.667C26.7731 42.667 25.1122 42.446 23.7888 42.2128ZM32.3252 40.2787C31.101 40.4871 29.6565 40.667 28.3333 40.667C27.01 40.667 25.5657 40.4871 24.3414 40.2787L24.6761 39.1074C24.8329 38.5587 25.4961 38.161 26.2166 38.3482C26.8659 38.5168 27.6211 38.6653 28.3096 38.667C29.0139 38.6688 29.7882 38.5173 30.4512 38.3455C31.1706 38.159 31.8332 38.5564 31.9899 39.1051L32.3252 40.2787ZM23.3334 18.667C23.3334 18.1147 22.8857 17.667 22.3334 17.667C21.7812 17.667 21.3334 18.1147 21.3334 18.667V20.0516C21.3334 20.6039 21.7812 21.0516 22.3334 21.0516C22.8857 21.0516 23.3334 20.6039 23.3334 20.0516V18.667ZM35.3334 18.667C35.3334 18.1147 34.8857 17.667 34.3334 17.667C33.7811 17.667 33.3334 18.1147 33.3334 18.667V20.0516C33.3334 20.6039 33.7811 21.0516 34.3334 21.0516C34.8857 21.0516 35.3334 20.6039 35.3334 20.0516V18.667ZM22.8878 24.8347L22.8881 24.835L22.8907 24.8366L22.91 24.8492C22.9283 24.861 22.9574 24.8796 22.9965 24.9039C23.0748 24.9526 23.1929 25.0243 23.3452 25.1113C23.6504 25.2857 24.0888 25.5195 24.6146 25.7532C25.6836 26.2283 27.035 26.667 28.3334 26.667C29.6319 26.667 30.9833 26.2283 32.0523 25.7532C32.5781 25.5195 33.0165 25.2857 33.3217 25.1113C33.4739 25.0243 33.5921 24.9526 33.6704 24.9039C33.7095 24.8796 33.7386 24.861 33.7569 24.8492L33.7762 24.8366L33.7787 24.835L33.7791 24.8347C34.2386 24.5287 34.8592 24.6529 35.1655 25.1123C35.4718 25.5719 35.3477 26.1927 34.8881 26.4991L34.3334 25.667C34.8881 26.4991 34.8879 26.4992 34.8877 26.4993L34.8872 26.4997L34.8861 26.5004L34.8829 26.5025L34.8733 26.5089L34.8411 26.5298C34.8141 26.5473 34.7757 26.5717 34.727 26.602C34.6295 26.6627 34.4898 26.7473 34.3139 26.8478C33.9629 27.0484 33.4638 27.3145 32.8646 27.5808C31.6836 28.1057 30.035 28.667 28.3334 28.667C26.6319 28.667 24.9833 28.1057 23.8023 27.5808C23.2031 27.3145 22.704 27.0484 22.3529 26.8478C22.1771 26.7473 22.0374 26.6627 21.9399 26.602C21.8911 26.5717 21.8528 26.5473 21.8257 26.5298L21.7936 26.5089L21.784 26.5025L21.7808 26.5004L21.7796 26.4997L21.7791 26.4993C21.7789 26.4992 21.7787 26.4991 22.3334 25.667L21.7787 26.4991C21.3192 26.1927 21.195 25.5719 21.5014 25.1123C21.8075 24.6531 22.4278 24.5288 22.8873 24.8344L22.8877 24.8347L22.8878 24.8347Z" fill="url(#paint0_linear_7746_5053)"/>
<defs>
<linearGradient id="paint0_linear_7746_5053" x1="28.3333" y1="4.66641" x2="28.3333" y2="52.667" gradientUnits="userSpaceOnUse">
<stop stop-color="#00BDD6"/>
<stop offset="1" stop-color="#06A8BD"/>
</linearGradient>
</defs>
</svg>
