<svg width="57" height="57" viewBox="0 0 57 57" fill="none" xmlns="http://www.w3.org/2000/svg">
<path fill-rule="evenodd" clip-rule="evenodd" d="M17.1667 4.66699C15.786 4.66699 14.6667 5.78628 14.6667 7.16699C14.6667 8.5477 15.786 9.667 17.1667 9.667C18.5475 9.667 19.6667 8.5477 19.6667 7.16699C19.6667 5.78628 18.5475 4.66699 17.1667 4.66699ZM16.6667 7.16699C16.6667 6.89085 16.8906 6.66699 17.1667 6.66699C17.4429 6.66699 17.6667 6.89085 17.6667 7.16699C17.6667 7.44314 17.4429 7.667 17.1667 7.667C16.8906 7.667 16.6667 7.44314 16.6667 7.16699ZM9.56118 9.21979C9.39178 8.88101 9.04552 8.66701 8.66674 8.66701C8.28797 8.66701 7.94171 8.88101 7.77232 9.2198C7.24175 10.281 7.06779 10.6018 6.83464 10.8349C6.6015 11.0681 6.28068 11.242 5.21953 11.7726C4.88075 11.942 4.66675 12.2883 4.66675 12.667C4.66675 13.0458 4.88075 13.3921 5.21953 13.5615C6.28068 14.092 6.6015 14.266 6.83465 14.4991C7.0678 14.7323 7.24176 15.0531 7.77233 16.1142C7.94172 16.453 8.28798 16.667 8.66676 16.667C9.04553 16.667 9.39179 16.453 9.56118 16.1142C10.0918 15.0531 10.2657 14.7323 10.4989 14.4991C10.732 14.266 11.0528 14.092 12.114 13.5615C12.4528 13.3921 12.6668 13.0458 12.6668 12.667C12.6668 12.2883 12.4528 11.942 12.114 11.7726C11.0528 11.242 10.732 11.0681 10.4989 10.8349C10.2657 10.6018 10.0918 10.281 9.56118 9.21979ZM8.24886 12.2491C8.40201 12.096 8.53841 11.9286 8.66675 11.7444C8.79509 11.9286 8.93149 12.096 9.08465 12.2491C9.2378 12.4023 9.40521 12.5387 9.58941 12.667C9.40521 12.7954 9.2378 12.9318 9.08465 13.0849C8.93149 13.2381 8.7951 13.4055 8.66676 13.5897C8.53841 13.4055 8.40201 13.2381 8.24886 13.0849C8.0957 12.9318 7.92829 12.7954 7.7441 12.667C7.9283 12.5387 8.09571 12.4023 8.24886 12.2491ZM48.5611 43.2198C48.3917 42.881 48.0454 42.667 47.6667 42.667C47.2879 42.667 46.9416 42.881 46.7722 43.2198C46.3024 44.1595 45.8596 44.8098 45.3346 45.3349C44.8095 45.86 44.1591 46.3027 43.2195 46.7726C42.8807 46.942 42.6667 47.2882 42.6667 47.667C42.6667 48.0458 42.8807 48.3921 43.2195 48.5614C44.1591 49.0313 44.8095 49.474 45.3346 49.9991C45.8597 50.5242 46.3024 51.1745 46.7722 52.1142C46.9416 52.453 47.2879 52.667 47.6667 52.667C48.0454 52.667 48.3917 52.453 48.5611 52.1142C49.0309 51.1745 49.4737 50.5242 49.9988 49.9991C50.5239 49.474 51.1742 49.0313 52.1139 48.5614C52.4527 48.3921 52.6667 48.0458 52.6667 47.667C52.6667 47.2882 52.4527 46.942 52.1139 46.7726C51.1742 46.3027 50.5239 45.86 49.9988 45.3349C49.4737 44.8098 49.0309 44.1595 48.5611 43.2198ZM46.7488 46.7491C47.0864 46.4115 47.3876 46.0469 47.6667 45.6465C47.9457 46.0469 48.247 46.4115 48.5846 46.7491C48.9222 47.0867 49.2868 47.3879 49.6872 47.667C49.2868 47.9461 48.9222 48.2473 48.5846 48.5849C48.247 48.9225 47.9457 49.2872 47.6667 49.6875C47.3876 49.2872 47.0864 48.9225 46.7488 48.5849C46.4112 48.2473 46.0465 47.9461 45.6462 47.667C46.0465 47.3879 46.4112 47.0867 46.7488 46.7491ZM30.6266 12.9685C29.6277 12.9685 28.6687 12.8035 27.705 12.5821C27.3516 12.5009 26.9725 12.4052 26.5868 12.3079L26.5868 12.3079L26.5867 12.3079L26.5867 12.3079L26.5867 12.3079C25.9867 12.1564 25.3707 12.001 24.8101 11.8895C22.8221 11.4945 20.7332 11.4626 18.6407 13.199C17.7839 13.91 17.0283 14.7404 16.3911 15.9995C15.7653 17.2362 15.274 18.8466 14.8761 21.0934C14.6535 22.3501 14.6062 24.3952 14.7448 26.7264C14.7776 27.2777 15.2511 27.698 15.8024 27.6652C16.3537 27.6325 16.774 27.1589 16.7413 26.6076C16.6056 24.3261 16.6641 22.4663 16.8454 21.4421C17.2253 19.297 17.6721 17.8976 18.1757 16.9026C18.6678 15.93 19.2325 15.3068 19.9179 14.7381C21.3544 13.546 22.7243 13.5141 24.4202 13.8512C24.9553 13.9575 25.4589 14.0855 26.0005 14.2231L26.0005 14.2231C26.391 14.3223 26.8012 14.4266 27.2571 14.5313C28.2849 14.7675 29.4107 14.9685 30.6266 14.9685C31.8421 14.9685 32.9646 14.7688 33.9881 14.5341C34.4461 14.429 34.8566 14.3247 35.2468 14.2256C35.7814 14.0897 36.2781 13.9635 36.8071 13.8583C38.4878 13.5238 39.8406 13.5553 41.2659 14.7381C41.9583 15.3127 42.5406 15.94 43.0484 16.9135C43.5664 17.9068 44.0289 19.3034 44.4079 21.4422C44.692 23.046 44.7922 26.3326 44.4498 29.9576C44.1126 33.5284 43.3757 37.228 42.0518 39.9029C41.3921 41.236 40.618 42.2497 39.7372 42.8835C38.8821 43.4989 37.8865 43.7876 36.6693 43.6201C36.1557 43.5494 35.8494 43.2934 35.581 42.7948C35.3076 42.2868 35.1374 41.6461 34.9267 40.8527L34.9256 40.8487C34.8993 40.7497 34.8724 40.6483 34.8446 40.5446C34.6152 39.6895 34.317 38.6488 33.7088 37.8341C33.04 36.9383 32.0455 36.3715 30.6266 36.3715C29.2078 36.3715 28.2133 36.9383 27.5445 37.8341C26.9362 38.6488 26.6381 39.6895 26.4087 40.5446C26.3805 40.6497 26.3532 40.7524 26.3266 40.8527C26.1158 41.6461 25.9457 42.2868 25.6722 42.7948C25.4039 43.2934 25.0975 43.5494 24.584 43.6201C23.3596 43.7886 22.396 43.4911 21.5844 42.872C21.1454 42.537 20.5178 42.6214 20.1828 43.0604C19.8479 43.4995 19.9322 44.127 20.3713 44.462C21.6053 45.4034 23.1033 45.8427 24.8566 45.6014C26.1594 45.4221 26.9458 44.6483 27.4333 43.7427C27.8276 43.0102 28.0624 42.1179 28.2611 41.3624L28.2613 41.3615C28.2882 41.2592 28.3145 41.1594 28.3404 41.0628C28.5798 40.1706 28.8003 39.4952 29.1471 39.0306C29.4334 38.6471 29.8306 38.3715 30.6266 38.3715C31.4227 38.3715 31.8198 38.6471 32.1062 39.0306C32.453 39.4952 32.6735 40.1706 32.9129 41.0628C32.9388 41.1596 32.9652 41.2597 32.9922 41.3623C33.1909 42.1179 33.4257 43.0101 33.82 43.7427C34.3074 44.6483 35.0939 45.4221 36.3967 45.6014C38.1327 45.8403 39.6424 45.4158 40.9054 44.5069C42.1427 43.6165 43.0996 42.2948 43.8443 40.7901C45.3294 37.7894 46.0955 33.803 46.4409 30.1457C46.7922 26.426 46.7047 22.9419 46.3772 21.0933C45.978 18.8401 45.4676 17.227 44.8217 15.9886C44.1655 14.7304 43.3928 13.9041 42.5431 13.199L41.9045 13.9685L42.5431 13.199C40.4624 11.4724 38.3911 11.5038 36.4168 11.8967C35.864 12.0067 35.2545 12.1605 34.6605 12.3104L34.6604 12.3104C34.2741 12.4079 33.8943 12.5037 33.541 12.5847C32.5825 12.8045 31.6261 12.9685 30.6266 12.9685ZM11.5377 32.2764C11.7338 30.7834 13.0063 29.667 14.5122 29.667H14.8213C16.3272 29.667 17.5997 30.7834 17.7958 32.2764L17.9583 33.5142C18.0173 33.9632 18.3706 34.3165 18.8196 34.3755L20.0573 34.538C21.5504 34.734 22.6667 36.0066 22.6667 37.5125V37.8215C22.6667 39.3274 21.5504 40.6 20.0573 40.796L18.8196 40.9585C18.3706 41.0175 18.0173 41.3708 17.9583 41.8198L17.7958 43.0576C17.5997 44.5506 16.3272 45.667 14.8213 45.667H14.5122C13.0063 45.667 11.7338 44.5506 11.5377 43.0576L11.3752 41.8198C11.3162 41.3708 10.9629 41.0175 10.5139 40.9585L9.27616 40.796C7.78311 40.6 6.66675 39.3274 6.66675 37.8215V37.5125C6.66675 36.0066 7.7831 34.734 9.27616 34.538L10.5139 34.3755C10.9629 34.3165 11.3162 33.9632 11.3752 33.5142L11.5377 32.2764ZM14.5122 31.667C14.0102 31.667 13.5861 32.0391 13.5207 32.5368L13.3582 33.7746C13.1813 35.1215 12.1213 36.1816 10.7743 36.3584L9.53655 36.521C9.03887 36.5863 8.66675 37.0105 8.66675 37.5125V37.8215C8.66675 38.3235 9.03887 38.7477 9.53655 38.813L10.7743 38.9756C12.1213 39.1524 13.1813 40.2125 13.3582 41.5594L13.5207 42.7972C13.5861 43.2949 14.0102 43.667 14.5122 43.667H14.8213C15.3233 43.667 15.7474 43.2949 15.8128 42.7972L15.9753 41.5594C16.1522 40.2124 17.2122 39.1524 18.5592 38.9756L19.7969 38.813C20.2946 38.7477 20.6667 38.3235 20.6667 37.8215V37.5125C20.6667 37.0105 20.2946 36.5863 19.7969 36.521L18.5592 36.3584C17.2122 36.1816 16.1522 35.1215 15.9753 33.7746L15.8128 32.5368C15.7474 32.0391 15.3233 31.667 14.8213 31.667H14.5122ZM25.6667 21.667C25.6667 21.1147 25.219 20.667 24.6667 20.667C24.1145 20.667 23.6667 21.1147 23.6667 21.667V23.0516C23.6667 23.6039 24.1145 24.0516 24.6667 24.0516C25.219 24.0516 25.6667 23.6039 25.6667 23.0516V21.667ZM37.6667 21.667C37.6667 21.1147 37.219 20.667 36.6667 20.667C36.1145 20.667 35.6667 21.1147 35.6667 21.667V23.0516C35.6667 23.6039 36.1145 24.0516 36.6667 24.0516C37.219 24.0516 37.6667 23.6039 37.6667 23.0516V21.667ZM25.2211 27.8347L25.2214 27.8349L25.224 27.8366L25.2433 27.8492C25.2616 27.861 25.2907 27.8795 25.3298 27.9039C25.4081 27.9526 25.5263 28.0243 25.6785 28.1113C25.9837 28.2857 26.4221 28.5195 26.9479 28.7532C28.0169 29.2283 29.3683 29.667 30.6667 29.667C31.9652 29.667 33.3166 29.2283 34.3856 28.7532C34.9114 28.5195 35.3498 28.2857 35.655 28.1113C35.8072 28.0243 35.9254 27.9526 36.0037 27.9039C36.0428 27.8795 36.0719 27.861 36.0902 27.8492L36.1095 27.8366L36.112 27.8349L36.1124 27.8347C36.5719 27.5287 37.1925 27.6529 37.4988 28.1123C37.8052 28.5718 37.681 29.1927 37.2214 29.4991L36.6667 28.667C37.2214 29.4991 37.2213 29.4992 37.221 29.4993L37.2206 29.4996L37.2194 29.5004L37.2162 29.5025L37.2066 29.5088L37.1745 29.5298C37.1474 29.5472 37.1091 29.5716 37.0603 29.602C36.9628 29.6627 36.8231 29.7472 36.6473 29.8477C36.2962 30.0483 35.7971 30.3145 35.1979 30.5808C34.0169 31.1057 32.3683 31.667 30.6667 31.667C28.9652 31.667 27.3166 31.1057 26.1356 30.5808C25.5364 30.3145 25.0373 30.0483 24.6862 29.8477C24.5104 29.7472 24.3707 29.6627 24.2732 29.602C24.2244 29.5716 24.1861 29.5472 24.159 29.5298L24.1269 29.5088L24.1173 29.5025L24.1141 29.5004L24.1129 29.4996L24.1125 29.4993C24.1122 29.4992 24.112 29.4991 24.6667 28.667L24.112 29.4991C23.6525 29.1927 23.5283 28.5718 23.8347 28.1123C24.1409 27.6531 24.7611 27.5288 25.2206 27.8344L25.221 27.8347L25.2211 27.8347Z" fill="url(#paint0_linear_7746_42012)"/>
<defs>
<linearGradient id="paint0_linear_7746_42012" x1="28.6667" y1="4.66641" x2="28.6667" y2="52.667" gradientUnits="userSpaceOnUse">
<stop stop-color="#00BDD6"/>
<stop offset="1" stop-color="#06A8BD"/>
</linearGradient>
</defs>
</svg>
