<svg width="290" height="13" viewBox="0 0 290 13" fill="none" xmlns="http://www.w3.org/2000/svg">
<path d="M565.855 2.99512C559.53 2.99512 557.71 10.9951 551.398 10.9951C545.085 10.9951 543.252 2.99512 536.94 2.99512C530.627 2.99512 528.795 10.9951 522.482 10.9951C516.169 10.9951 514.349 2.99512 508.024 2.99512C501.699 2.99512 499.879 10.9951 493.566 10.9951C487.254 10.9951 485.421 2.99512 479.108 2.99512C472.796 2.99512 470.963 10.9951 464.651 10.9951C458.338 10.9951 456.518 2.99512 450.193 2.99512C443.867 2.99512 442.048 10.9951 435.735 10.9951C429.422 10.9951 427.59 2.99512 421.277 2.99512C414.965 2.99512 413.132 10.9951 406.819 10.9951C400.507 10.9951 398.687 2.99512 392.361 2.99512C386.036 2.99512 384.216 10.9951 377.904 10.9951C371.591 10.9951 369.758 2.99512 363.446 2.99512C357.133 2.99512 355.301 10.9951 348.988 10.9951C342.675 10.9951 340.855 2.99512 334.53 2.99512C328.205 2.99512 326.385 10.9951 320.072 10.9951C313.76 10.9951 311.927 2.99512 305.614 2.99512C299.302 2.99512 297.469 10.9951 291.157 10.9951C284.844 10.9951 283.024 2.99512 276.699 2.99512C270.373 2.99512 268.554 10.9951 262.241 10.9951C255.928 10.9951 254.096 2.99512 247.783 2.99512C241.471 2.99512 239.638 10.9951 233.325 10.9951C227.013 10.9951 225.193 2.99512 218.867 2.99512C212.542 2.99512 210.722 10.9951 204.41 10.9951C198.097 10.9951 196.264 2.99512 189.952 2.99512C183.639 2.99512 181.807 10.9951 175.494 10.9951C169.181 10.9951 167.361 2.99512 161.036 2.99512C154.711 2.99512 152.891 10.9951 146.578 10.9951C140.266 10.9951 138.433 2.99512 132.12 2.99512C125.808 2.99512 123.975 10.9951 117.663 10.9951C111.35 10.9951 109.53 2.99512 103.205 2.99512C96.8922 2.99512 95.0596 10.9951 88.747 10.9951C82.4344 10.9951 80.6145 2.99512 74.2892 2.99512C67.9639 2.99512 66.1439 10.9951 59.8313 10.9951C53.5188 10.9951 51.6861 2.99512 45.3735 2.99512C39.0609 2.99512 37.2282 10.9951 30.9157 10.9951C24.6031 10.9951 22.7831 2.99512 16.4578 2.99512C10.1453 2.99512 8.31257 10.9951 2 10.9951" stroke="#E0EEF8" stroke-width="4" stroke-linecap="round"/>
</svg>
