<svg width="32" height="32" viewBox="0 0 32 32" fill="none" xmlns="http://www.w3.org/2000/svg">
<path fill-rule="evenodd" clip-rule="evenodd" d="M8.22183 5.55516C10.2847 3.49226 13.0826 2.33333 16 2.33333C18.9174 2.33333 21.7153 3.49226 23.7782 5.55516C25.8411 7.61806 27 10.416 27 13.3333C27 17.5981 24.2343 21.6876 21.274 24.8123C19.8144 26.353 18.3513 27.6132 17.2521 28.4886C16.7423 28.8944 16.3126 29.2162 16 29.4434C15.6874 29.2162 15.2577 28.8944 14.7479 28.4886C13.6487 27.6132 12.1856 26.353 10.726 24.8123C7.76574 21.6876 5 17.5981 5 13.3333C5 10.416 6.15893 7.61806 8.22183 5.55516ZM15.4447 31.4983C15.445 31.4985 15.4453 31.4987 16 30.6667L15.4453 31.4987C15.7812 31.7226 16.2188 31.7226 16.5547 31.4987L16 30.6667C16.5547 31.4987 16.555 31.4985 16.5553 31.4983L16.5561 31.4978L16.5586 31.4961L16.5669 31.4905L16.5963 31.4707C16.6214 31.4536 16.6576 31.4288 16.7041 31.3966C16.7971 31.3322 16.9314 31.2379 17.1011 31.1154C17.4404 30.8703 17.9218 30.5119 18.4979 30.0531C19.6487 29.1368 21.1856 27.8137 22.726 26.1877C25.7657 22.9791 29 18.4019 29 13.3333C29 9.88552 27.6304 6.57892 25.1924 4.14095C22.7544 1.70297 19.4478 0.333334 16 0.333334C12.5522 0.333334 9.24558 1.70297 6.80761 4.14095C4.36964 6.57892 3 9.88552 3 13.3333C3 18.4019 6.23426 22.9791 9.27405 26.1877C10.8144 27.8137 12.3513 29.1368 13.5021 30.0531C14.0782 30.5119 14.5596 30.8703 14.8989 31.1154C15.0686 31.2379 15.2029 31.3322 15.2959 31.3966C15.3424 31.4288 15.3786 31.4536 15.4037 31.4707L15.4331 31.4905L15.4414 31.4961L15.4439 31.4978L15.4447 31.4983ZM13 13.3333C13 11.6765 14.3431 10.3333 16 10.3333C17.6569 10.3333 19 11.6765 19 13.3333C19 14.9902 17.6569 16.3333 16 16.3333C14.3431 16.3333 13 14.9902 13 13.3333ZM16 8.33333C13.2386 8.33333 11 10.5719 11 13.3333C11 16.0948 13.2386 18.3333 16 18.3333C18.7614 18.3333 21 16.0948 21 13.3333C21 10.5719 18.7614 8.33333 16 8.33333Z" fill="#00BDD6"/>
</svg>
