<svg width="25" height="24" viewBox="0 0 25 24" fill="none" xmlns="http://www.w3.org/2000/svg">
<path fill-rule="evenodd" clip-rule="evenodd" d="M5.50292 12.999C7.53273 12.9931 9.22321 14.8703 9.00617 16.8881C8.79491 18.7163 7.34407 20.005 5.50326 19.999C3.5688 19.9927 2.00802 18.433 2.00001 16.499C2.00725 14.5651 3.56865 13.0047 5.50292 12.999ZM2.9806 9.21085L2.60692 11.8248C3.44612 11.3039 4.43603 11.0021 5.49709 10.999C8.34333 10.9907 10.7205 13.2613 10.9981 15.999L13.0074 15.999C13.296 13.2692 15.6592 11.0177 18.4989 11.0146C19.5866 11.0135 20.5936 11.3084 21.4423 11.8307C21.3419 11.187 21.2452 10.5847 21.1692 10.116C21.1224 9.8281 21.0835 9.59082 21.0563 9.42562L21.0247 9.23462L21.0164 9.18473L21.0143 9.17206L21.0138 9.16891L21.0137 9.16815L21.0136 9.16797L22 9.00341L21.0136 9.16793L21.0136 9.16781C20.7673 7.69001 20.5321 6.77924 20.2642 6.1355C20.0102 5.52504 19.7169 5.1304 19.2929 4.70637C18.9352 4.34865 18.4149 4.15493 17.903 4.06395C17.6571 4.02023 17.438 4.00477 17.2823 4.00038C17.2051 3.9982 17.1454 3.9988 17.1078 3.99974C17.0891 4.00021 17.0761 4.00076 17.0693 4.00108L17.0667 4.00119L17.0652 4.00128L17.0644 4.00134C16.5153 4.0368 16.0403 3.62173 16.0024 3.07225C15.9644 2.52128 16.3802 2.0438 16.9312 2.00578L17 3.00341C16.9312 2.00578 16.9315 2.00576 16.9318 2.00574L16.9325 2.00569L16.934 2.00559L16.9376 2.00536L16.9468 2.0048L16.9734 2.00338C16.9946 2.00236 17.023 2.00124 17.0577 2.00036C17.1271 1.99863 17.2226 1.9979 17.3387 2.00118C17.5697 2.00769 17.8897 2.03022 18.2531 2.09481C18.9599 2.22045 19.9396 2.52465 20.7071 3.29215C21.2831 3.86812 21.7398 4.47555 22.1108 5.36717C22.4679 6.2255 22.7327 7.3168 22.9864 8.83899L22.9864 8.83901L22.9864 8.83922L22.9866 8.84009L22.9871 8.84346L22.9893 8.85655L22.9978 8.90736L23.0297 9.10036C23.0571 9.26695 23.0963 9.50589 23.1433 9.79567C23.2374 10.375 23.3628 11.1586 23.4884 11.9741C23.6138 12.7886 23.7399 13.6394 23.835 14.3519C23.9209 14.9956 23.9919 15.5993 23.9994 15.9427C24.3043 19.1263 21.7049 21.9968 18.5007 21.999C15.9481 22.0008 13.8395 20.3696 13.1799 17.999L10.8218 17.999C10.1653 20.3719 8.05048 22.0073 5.49675 21.999C2.46174 21.9891 0.00989972 19.5373 1.22909e-05 16.5023L8.47062e-07 16.499C8.49885e-07 16.4666 0.000401396 16.4325 0.00117197 16.3969C0.00205698 16.3538 0.003436 16.3108 0.00530139 16.2679C0.0068796 16.2297 0.00879933 16.1901 0.0110454 16.1491C-0.00321348 16.0548 -0.00411934 15.9569 0.0100698 15.8576L0.0632382 15.4857C0.15658 14.5151 0.338816 13.2023 0.510816 12.0421C0.636552 11.1939 0.762187 10.3936 0.856332 9.80556C0.903425 9.51145 0.942684 9.27017 0.970197 9.10226L1.00218 8.90792L1.01066 8.85678L1.01285 8.84356L1.01342 8.84015L1.01357 8.83925L1.01361 8.839C1.01361 8.839 1.01361 8.839 1.01371 8.83901C1.01372 8.83898 1.01372 8.83894 1.01373 8.83891L1.01363 8.8389C1.01441 8.83425 1.01521 8.82961 1.01605 8.82498C1.26901 7.31042 1.53324 6.22336 1.88924 5.36778C2.05371 4.9725 2.23503 4.63308 2.43611 4.32749C2.68912 3.94272 2.9731 3.61188 3.29298 3.29207C4.06717 2.51807 5.04571 2.21289 5.75531 2.0886C6.11905 2.02489 6.43874 2.00397 6.66957 1.99886C6.78564 1.99629 6.88106 1.99769 6.95049 1.99995C6.98525 2.00108 7.01365 2.00244 7.03502 2.00364L7.06179 2.00529L7.0711 2.00594L7.07472 2.0062L7.07626 2.00632L7.07697 2.00638C7.077 2.00638 7.07703 2.00638 7.07701 2.00699C7.0772 2.007 7.07739 2.00702 7.07759 2.00703L7.07763 2.00643C7.60644 2.0476 8.00703 2.49298 7.99996 3.01594C7.99972 3.03482 7.99895 3.05379 7.99763 3.07286C7.95972 3.62233 7.48473 4.0374 6.93566 4.00194L6.93483 4.00189L6.93481 4.00189L6.93069 4.00169C6.92396 4.00136 6.91092 4.00081 6.8922 4.00034C6.85465 3.9994 6.79487 3.99881 6.71768 4.00099C6.56198 4.00538 6.34292 4.02084 6.09697 4.06455C5.58511 4.15553 5.06483 4.34926 4.70711 4.70697C4.47278 4.9413 4.27838 5.16666 4.10846 5.42442C3.97291 5.63026 3.85277 5.85691 3.74059 6.1249C3.47428 6.76109 3.24097 7.65899 3.00329 9.1073C2.99757 9.1422 2.98999 9.17676 2.9806 9.21085ZM18.5011 13.0146C16.473 13.0168 14.7945 14.873 14.9941 16.8904C15.2123 18.7174 16.6582 20.0003 18.4993 19.999C20.5304 19.9976 22.2132 18.1307 22.0063 16.1111C21.7821 14.2877 20.3394 13.0127 18.5011 13.0146Z" fill="#00BDD6"/>
</svg>
