<svg width="96" height="96" viewBox="0 0 96 96" fill="none" xmlns="http://www.w3.org/2000/svg">
<rect y="0.000999451" width="96" height="96" rx="16" fill="white"/>
<g clip-path="url(#clip0_7822_41081)">
<path d="M36.4286 13.2854H31.4286C29.2194 13.2854 27.4286 15.0763 27.4286 17.2854V78.714C27.4286 80.9231 29.2195 82.714 31.4286 82.714H64.5714C66.7806 82.714 68.5714 80.9231 68.5714 78.714V17.2854C68.5714 15.0763 66.7806 13.2854 64.5714 13.2854H59.5714M36.4286 13.2854L40.9857 17.8425C41.3607 18.2176 41.8694 18.4283 42.3999 18.4283H53.6002C54.1306 18.4283 54.6393 18.2176 55.0144 17.8425L59.5714 13.2854M36.4286 13.2854H59.5714M54.4286 76.2854H42.8572M40.2857 51.8569H42.8572M57 51.8569H54.4286M54.4286 51.8569V43.4997C54.4286 40.3044 51.8382 37.714 48.6429 37.714V37.714C45.4475 37.714 42.8572 40.3044 42.8572 43.4997V51.8569M54.4286 51.8569H42.8572M46.7143 56.9997H50.5714M37.7143 38.9997C37.7143 38.9997 40.2857 31.2854 48.6429 31.2854C57 31.2854 59.5714 38.9997 59.5714 38.9997" stroke="url(#paint0_linear_7822_41081)" stroke-width="2" stroke-linecap="round" stroke-linejoin="round"/>
</g>
<defs>
<linearGradient id="paint0_linear_7822_41081" x1="48" y1="13.2846" x2="48" y2="82.714" gradientUnits="userSpaceOnUse">
<stop stop-color="#00BDD6"/>
<stop offset="1" stop-color="#06A8BD"/>
</linearGradient>
<clipPath id="clip0_7822_41081">
<rect width="72" height="72" fill="white" transform="translate(12 12.001)"/>
</clipPath>
</defs>
</svg>
