<svg width="24" height="25" viewBox="0 0 24 25" fill="none" xmlns="http://www.w3.org/2000/svg">
<path fill-rule="evenodd" clip-rule="evenodd" d="M3.29289 3.79143C3.68342 3.4009 4.31658 3.4009 4.70711 3.79143L9.20711 8.29143C9.39586 8.48018 9.50131 8.73657 9.49999 9.0035C9.49866 9.27044 9.39067 9.52577 9.20004 9.71263C8.44674 10.4511 8 11.3946 8 12.4985C8 13.6165 8.45865 14.6274 9.19805 15.3532C9.91972 16.0616 10.9088 16.4985 12 16.4985C13.1403 16.4985 14.0736 16.0958 14.7859 15.3692C14.9718 15.1796 15.2255 15.0717 15.4911 15.0693C15.7566 15.0669 16.0122 15.1703 16.2015 15.3566L20.7015 19.7859C21.0951 20.1733 21.1001 20.8064 20.7127 21.2C20.3253 21.5936 19.6921 21.5986 19.2985 21.2112L15.4515 17.4247C14.4735 18.1271 13.299 18.4985 12 18.4985C10.7198 18.4985 9.53317 18.0976 8.55896 17.4144L4.70149 21.2112C4.30788 21.5986 3.67474 21.5936 3.28732 21.2C2.8999 20.8064 2.90491 20.1733 3.29852 19.7859L7.13445 16.0102C6.42068 15.023 6 13.8099 6 12.4985C6 11.1781 6.42674 10.0092 7.13528 9.04803L3.29289 5.20564C2.90237 4.81512 2.90237 4.18195 3.29289 3.79143ZM20.7071 3.79143C21.0976 4.18195 21.0976 4.81512 20.7071 5.20564L16.2071 9.70564C15.8166 10.0962 15.1834 10.0962 14.7929 9.70564C14.4024 9.31512 14.4024 8.68195 14.7929 8.29143L19.2929 3.79143C19.6834 3.4009 20.3166 3.4009 20.7071 3.79143ZM9 12.4985C9 10.8417 10.3431 9.49854 12 9.49854C13.6569 9.49854 15 10.8417 15 12.4985C15 14.1554 13.6569 15.4985 12 15.4985C10.3431 15.4985 9 14.1554 9 12.4985ZM12 11.4985C11.4477 11.4985 11 11.9462 11 12.4985C11 13.0508 11.4477 13.4985 12 13.4985C12.5523 13.4985 13 13.0508 13 12.4985C13 11.9462 12.5523 11.4985 12 11.4985Z" fill="#00BDD6"/>
</svg>
