<svg width="248" height="124" viewBox="0 0 248 124" fill="none" xmlns="http://www.w3.org/2000/svg">
<g opacity="0.9" clip-path="url(#clip0_6057_65424)">
<path d="M92.6813 102.602H95.4601L88.7325 118.577C88.0012 120.336 86.9775 121.655 85.8074 122.534C84.6374 123.414 83.1749 123.707 81.5662 123.56V120.922C82.7362 121.069 83.6137 120.922 84.3449 120.483C85.0762 120.043 85.6612 119.163 86.1 118.138L86.2462 117.698L79.3724 102.602H82.1512L87.7087 114.62L92.6813 102.602ZM93.8513 123.56V121.069C95.1676 121.215 96.1913 120.922 96.9226 119.896C97.6538 118.87 97.9463 117.112 97.9463 114.474V102.602H111.84V123.56H109.061V105.24H100.871V114.474C100.871 116.379 100.725 117.991 100.286 119.163C99.9939 120.483 99.4089 121.362 98.8239 122.095C98.0926 122.681 97.3613 123.121 96.6301 123.414C95.7526 123.56 94.8751 123.707 93.8513 123.56ZM116.228 123.56V102.602H119.007V110.077H123.833C125.734 110.077 127.343 110.663 128.659 111.982C129.975 113.301 130.56 114.913 130.56 116.819C130.56 118.724 129.975 120.336 128.659 121.655C127.343 122.974 125.734 123.56 123.833 123.56H116.228ZM132.754 123.56V102.602H135.533V123.56H132.754ZM119.007 120.922H123.833C125.003 120.922 125.88 120.483 126.758 119.75C127.489 119.017 127.928 117.991 127.928 116.819C127.928 115.646 127.489 114.62 126.758 113.887C126.027 113.154 125.003 112.715 123.833 112.715H119.007V120.922ZM147.964 110.81C149.719 110.81 151.328 111.396 152.645 112.715C153.961 113.887 154.546 115.499 154.546 117.258C154.546 119.017 153.961 120.629 152.645 121.802C151.328 122.974 149.866 123.56 147.964 123.56H140.067V102.602H152.645V105.24H142.846V110.81H147.964ZM147.964 120.922C148.988 120.922 149.866 120.629 150.597 119.896C151.328 119.163 151.621 118.284 151.621 117.258C151.621 116.232 151.328 115.353 150.597 114.62C149.866 113.887 148.988 113.594 147.964 113.594H142.846V121.069H147.964V120.922ZM174.875 120.776C172.827 122.828 170.195 124 167.123 124C164.052 124 161.566 122.974 159.372 120.776C157.325 118.724 156.301 116.086 156.301 113.008C156.301 109.93 157.325 107.439 159.372 105.24C161.42 103.188 164.052 102.016 167.123 102.016C170.195 102.016 172.681 103.042 174.875 105.24C176.922 107.292 178.092 109.93 178.092 113.008C177.946 116.086 176.922 118.577 174.875 120.776ZM161.42 118.87C163.028 120.483 164.93 121.215 167.123 121.215C169.463 121.215 171.365 120.483 172.827 118.87C174.436 117.258 175.167 115.353 175.167 113.008C175.167 110.663 174.436 108.758 172.827 107.145C171.218 105.533 169.317 104.801 167.123 104.801C164.783 104.801 162.882 105.533 161.42 107.145C159.811 108.758 159.08 110.663 159.08 113.008C159.08 115.353 159.811 117.258 161.42 118.87ZM196.52 123.56H193.156L184.089 113.448V123.56H181.31V102.602H184.089V112.129L192.864 102.602H196.228L187.014 112.861L196.52 123.56Z" fill="white"/>
<path fill-rule="evenodd" clip-rule="evenodd" d="M93.296 77.8333C96.3673 77.9799 96.6598 78.8593 93.5885 79.1524C92.126 79.2989 90.8097 79.4455 89.201 80.7645C87.7385 81.937 86.5684 84.7217 85.5447 87.6529C83.9359 91.61 82.3271 95.5672 79.6946 95.8603C78.2321 96.0069 76.9158 94.9809 75.7458 93.6619C73.9908 91.61 72.5283 88.6788 71.797 87.0667C70.1883 83.2561 68.7257 77.9799 67.8482 72.8503C66.9707 68.1603 66.532 63.4704 66.6782 59.6598C66.8245 57.4614 66.9707 55.1164 67.702 53.2111C68.4332 51.3058 69.7495 49.5471 72.2358 48.6677C77.0621 46.909 83.2047 49.4005 87.5922 51.1593C89.4935 51.8921 90.956 52.6249 91.9798 52.6249C93.7348 52.7714 94.9048 52.4783 96.2211 52.3318C99.7311 51.5989 100.462 52.0386 96.5136 53.5042C95.4898 53.9439 94.3198 54.237 93.4423 54.237C90.956 54.3836 88.031 53.5042 85.1059 52.6249C81.7421 51.599 78.2321 50.573 75.7458 51.1593C73.9908 51.4524 72.8208 52.6249 71.9433 53.9439C70.9195 55.7026 70.3345 57.9011 70.3345 59.9529C70.042 64.0566 70.3345 68.1603 70.9195 72.264C71.6508 76.5143 72.6745 80.618 74.137 84.5751C74.4296 85.4545 75.3071 87.6529 76.4771 89.2651C77.0621 90.1444 77.6471 90.8772 78.2321 91.3169C78.8171 91.7566 79.4021 91.9032 79.9871 91.61C80.1334 91.4635 80.2796 91.3169 80.5721 91.1704C82.0346 89.5582 83.0584 87.3598 84.0822 85.3079C85.5447 82.2302 87.0072 79.2989 89.4935 78.4196C90.371 77.9799 91.9798 77.8333 93.296 77.8333ZM88.9085 49.5471C87.2997 48.9609 86.4222 47.9349 88.9085 48.2281C89.0547 48.2281 89.3472 48.2281 89.4935 48.2281C92.711 48.3746 95.4898 47.7884 97.9761 47.2021C101.194 46.4693 103.972 45.7365 106.751 47.2021C109.091 48.3746 110.7 50.573 111.724 53.0646C113.186 56.4355 113.625 60.3926 113.625 63.4704C113.625 67.7206 113.04 72.4106 112.016 76.954C110.992 81.6439 109.384 86.1873 107.482 90.1444C107.044 91.0238 106.312 92.1963 105.581 93.0756C104.996 93.6619 104.265 94.2481 103.387 94.3947C101.34 94.8344 100.316 93.0756 99.1461 90.7307C98.2686 89.1185 97.2448 87.2132 95.6361 85.7476C93.5885 84.1354 91.9798 83.9889 90.8097 83.9889C90.0785 83.9889 89.6397 83.9889 89.3472 83.5492C89.3472 83.4026 89.3472 83.4026 89.3472 83.2561C89.4935 83.1095 89.6397 82.963 90.0785 82.963C90.371 82.8164 90.8097 82.6698 91.3948 82.6698C93.4423 82.3767 96.8061 82.8164 99.4386 86.3339C100.024 87.0667 100.462 87.7995 100.901 88.3857C101.486 89.4116 102.071 90.1444 102.51 90.4376C103.241 90.8772 104.265 90.1444 105.874 87.0667C107.482 84.282 108.652 80.3249 109.676 76.3677C110.7 71.6778 111.285 66.8413 111.285 63.0307C111.285 60.3926 110.992 56.582 109.676 53.6508C108.799 51.5989 107.336 49.8402 105.289 49.254C103.68 48.8143 101.34 49.1074 98.5611 49.4005C96.2211 49.6937 93.7348 49.9868 91.541 49.8402C90.6635 49.9868 89.786 49.6937 88.9085 49.5471Z" fill="white"/>
<path d="M0.103931 94.8343L6.97776 45.0037H8.00153L28.1843 85.8941L48.367 45.0037H49.0983L56.2646 94.8343H51.4383L46.4657 59.0735L28.9155 94.8343H27.5993L9.75655 58.9269L4.93024 94.8343H0.103931Z" fill="white"/>
<path d="M126.319 45.0037H136.264C141.822 45.0037 145.478 45.2968 147.526 45.7365C150.451 46.4693 152.937 47.7883 154.692 50.1333C156.593 52.3317 157.471 55.1164 157.471 58.3407C157.471 60.9788 156.886 63.4703 155.57 65.5222C154.253 67.574 152.498 69.1862 150.158 70.2121C147.818 71.238 144.454 71.8243 140.359 71.8243L158.202 94.9809H152.06L134.217 71.6777H131.292V94.8343H126.319V45.0037ZM131.292 49.8402V66.8412H139.921C143.284 66.8412 145.771 66.5481 147.233 65.9619C148.842 65.3756 150.012 64.3497 151.036 62.8841C151.913 61.565 152.352 59.9529 152.352 58.1941C152.352 56.582 151.913 54.9698 151.036 53.6507C150.158 52.3317 148.988 51.3058 147.526 50.7195C146.063 50.1333 143.577 49.8402 140.213 49.8402H131.292Z" fill="white"/>
<path d="M168.147 45.0037H196.666V49.8402H173.12V65.5222H196.374V70.3587H173.12V89.9978H196.374V94.8343H168.147V45.0037Z" fill="white"/>
<path fill-rule="evenodd" clip-rule="evenodd" d="M159.08 30.4942C138.604 25.218 120.323 29.0286 103.796 40.4603C125.734 31.227 144.454 31.8132 160.103 41.1931C182.48 17.7434 212.9 5.7254 248.001 0.00953155C215.386 -0.28359 184.82 6.89789 159.08 30.4942Z" fill="white"/>
</g>
<defs>
<clipPath id="clip0_6057_65424">
<rect width="248" height="124" fill="white" transform="translate(0.000495911)"/>
</clipPath>
</defs>
</svg>
