<svg width="360" height="716" viewBox="0 0 360 716" fill="none" xmlns="http://www.w3.org/2000/svg">
<path d="M56.8275 569.536C72.5814 556.75 85.471 555.329 99.7928 553.908C110.192 553.908 100.4 580.115 65.4206 590.846C61.2295 592.131 58.8654 591.711 58.2597 593.687C57.9418 594.724 58.0615 595.403 58.2465 596.453L58.2597 596.528C58.783 599.502 65.4206 600.79 72.5815 600.79C84.0389 600.79 99.7928 602.211 119.843 617.838C135.348 631.82 145.304 649.93 153.806 665.397L154.215 666.141C165.673 688.872 175.698 705.92 195.749 701.658C204.342 700.237 211.503 694.555 217.231 688.872C224.392 680.348 231.553 668.983 235.85 660.458C254.468 622.1 270.222 578.06 280.247 532.598C290.272 488.557 296.001 443.096 296.001 401.897C296.001 372.063 291.704 333.704 277.383 301.029C267.357 276.878 251.603 255.568 228.689 244.202C201.477 229.996 174.266 237.099 142.758 244.202C118.411 249.885 91.1997 255.568 59.6919 254.147H53.9632C29.6162 251.306 39.3208 258.846 53.9632 266.933C85.7108 284.467 125.572 285.402 125.572 293.926C125.572 302.45 99.7928 301.029 84.0388 296.767C74.3683 294.151 59.6919 289.664 41.0736 282.56L40.0665 282.161C-2.8279 265.139 -62.4112 241.494 -109.305 258.409C-133.652 266.933 -146.541 283.981 -153.702 302.45C-160.863 320.918 -162.295 343.649 -163.728 364.959C-165.16 401.897 -160.863 447.358 -152.27 492.819C-143.677 542.543 -129.355 593.687 -113.601 630.624C-106.441 646.252 -92.1188 674.665 -74.9327 694.555C-63.4753 707.341 -50.5857 717.285 -36.2639 715.865C-10.4848 713.023 5.26915 674.665 21.0231 636.307C31.0483 607.894 42.5057 580.901 56.8275 569.536Z" fill="#06A8BD"/>
<path fill-rule="evenodd" clip-rule="evenodd" d="M139.905 133.248C50.3103 110.192 -29.6846 126.844 -102 176.798C-6.00609 136.45 75.9087 139.012 144.384 180C242.298 77.5302 375.41 25.0144 529 0.0373833C386.289 -1.24349 252.537 30.1379 139.905 133.248Z" fill="#06A8BD"/>
</svg>
