<svg width="33" height="32" viewBox="0 0 33 32" fill="none" xmlns="http://www.w3.org/2000/svg">
<path fill-rule="evenodd" clip-rule="evenodd" d="M4.33331 16C4.33331 9.18849 9.85513 3.66667 16.6666 3.66667C23.4782 3.66667 29 9.18849 29 16C29 22.8115 23.4782 28.3333 16.6666 28.3333C9.85513 28.3333 4.33331 22.8115 4.33331 16ZM16.6666 1.66667C8.75057 1.66667 2.33331 8.08392 2.33331 16C2.33331 23.9161 8.75057 30.3333 16.6666 30.3333C24.5827 30.3333 31 23.9161 31 16C31 8.08392 24.5827 1.66667 16.6666 1.66667ZM17.6666 8C17.6666 7.44772 17.2189 7 16.6666 7C16.1144 7 15.6666 7.44772 15.6666 8V16C15.6666 16.3788 15.8806 16.725 16.2194 16.8944L21.5528 19.5611C22.0467 19.8081 22.6474 19.6079 22.8944 19.1139C23.1414 18.6199 22.9412 18.0192 22.4472 17.7722L17.6666 15.382V8Z" fill="#00BDD6"/>
</svg>
